<svg xmlns="http://www.w3.org/2000/svg" viewBox="0 0 232.13 61.51"><title>3 Dots</title><g id="Layer_2" data-name="Layer 2"><g id="Layer_1-2" data-name="Layer 1"><path d="M126,58.26l.78.13-7,1.45a.93.93,0,0,1-.62.18,41.25,41.25,0,0,0-5.62-.38,10.87,10.87,0,0,1-5.54-1,31.87,31.87,0,0,0-5.11-2.73c-3.71-1.23-3.89-5.34-6.55-7.51-2-1.63-3.18-4.31-4.76-6.5a4.24,4.24,0,0,0-.88-.85c-.81-3.49-1.56-6.65-2.4-10.27L90,22.89c-.4.08-.2,0,.06,0-.15-.09-.27-.18-.16-.1.63-1.36,1.27-2.67,1.84-4a48.17,48.17,0,0,1,7-11.3c.86-1.07,2.66-1.39,4.06-2a23.81,23.81,0,0,1,5-1.92,59.88,59.88,0,0,1,6.72-.34,26.48,26.48,0,0,0,2.92-.47l4-.73-.76-.66L133,4.15c-.26-.16.07,0,.4.23l-.07.15L136,6c0-.14,0,.07,0,.16l3.27,2.72.17-.15,3.56,4,.53-.87v2.13c1.67,3.43,4.44,6.93,3.89,11.73-.41,3.64-.1,7.4-1.74,10.82-1.16,2.42-2.59,4.72-3.88,7.09a58.27,58.27,0,0,1-3.23,5.86,39,39,0,0,1-3.84,3.88c-.5.53-.69,1.36-1.22,1.83a7.38,7.38,0,0,1-2.18,1.17C129.48,57,127.67,57.64,126,58.26Zm12.41-20.18-.32-.26a4.57,4.57,0,0,1,.54-1.11c.39-.46,1-.75,1.31-1.25a16.15,16.15,0,0,0,1.69-3.21,15.45,15.45,0,0,0,.47-2.93l.16,0c.13-2.95.27-5.9.4-8.81l-.78.1c0-.66.09-1.27-.15-1.61-1.07-1.49-2.25-2.91-3.4-4.34l-1.81-2.27.54-.53-1.67-.38c-.07-.45,0-.84-.19-1s-.55-.15-.63-.17c-.46-.52-.75-1.15-1.2-1.29A25.85,25.85,0,0,0,128,7.61a38.17,38.17,0,0,0-6.41.15c-1.12.09-2.24.7-3.33.64a39.21,39.21,0,0,1-4-.9,8.25,8.25,0,0,0-2,.13v.29l2,.28-2.88.51-.19-.53-.86,1L110,9l.32-.45c-.74.36-1.77.79-2.73,1.34-.81.46-1.53,1.07-2.31,1.56a11.06,11.06,0,0,0-1.82,1,11.91,11.91,0,0,0-1.83,2.4,46.76,46.76,0,0,0-3.47,6.21,41,41,0,0,0-1.72,6.53c-.52,2.3-1.39,4.51-1,7,.73,5,2.24,9.64,5.88,13.31a29,29,0,0,0,4.92,4.14,29.48,29.48,0,0,0,5.12,2c12.3.87,21.66-3.44,26.43-15.55Z"/><path d="M.42,28.53a5.29,5.29,0,0,1-.28-1.38,5.48,5.48,0,0,1,.37-1.94,104.44,104.44,0,0,1,4.58-9.68c.72-1.26,2.45-1.94,3.72-2.88.7-.52,1.42-1,2.08-1.56.21-.18.24-.55.3-.69L27.11,1C32.55-1.24,38,.6,43.36,3c5.75,2.59,9.32,7.2,11.53,13.09l-.39.29c2.66,5,2.22,10.34,1.45,15.75-.23,1.63-6.21,12.4-8.35,13.42l.92.06A21.44,21.44,0,0,1,46.84,47c-6.16,4.09-12.74,7-20.33,6.7-.21,0-.4-.22-.71,0a25.92,25.92,0,0,0-2.75-.6c-.3,0-.66.36-1.15.65l-.72-.86-.81.36-.05-.9c-.51.14-1,.44-1.4.36a7.16,7.16,0,0,1-2.71-.89c-3.47-2.5-7-5-10.21-7.75a11.47,11.47,0,0,1-2.6-4.2c-1.09-2.49-2-5.07-2.86-7.66a16,16,0,0,1-.45-2.88L0,28.66Zm5.44-1.6a4.05,4.05,0,0,0-.31,1.39c.25,1.41.61,2.79.91,4.19a24.59,24.59,0,0,0,.86,4.06,36.86,36.86,0,0,0,2.3,4.22c.06.11,0,.32,0,.44a4.33,4.33,0,0,0,.71,1c.34.31.8.5,1.16.79,1.32,1.06,2.61,2.16,3.94,3.21.68.54,1.37,1.35,2.14,1.46,2.09.3,4.22.27,6.33.39a2.35,2.35,0,0,1,.57.13,6.5,6.5,0,0,0,2.09.58,29,29,0,0,0,3.61-.85,33.91,33.91,0,0,0,5.47-1.36,28.8,28.8,0,0,0,4.51-2.94,14.38,14.38,0,0,0,3.09-2.14,61.15,61.15,0,0,0,4.31-5.91,20.25,20.25,0,0,0,1.36-3l.24,0,.76-2.87c.1-1.73.75-3.35.85-5a22,22,0,0,0-.45-5.84,24.16,24.16,0,0,0-2-5.59,25.09,25.09,0,0,0-2.84-4.06c-.77-1-1.49-2.28-2.53-2.69a31.39,31.39,0,0,0-7.08-1.77c-1-.14-2.21.62-3.32,1C29.23,6.85,25.91,8,22.64,9.18a19.24,19.24,0,0,0-4.11,2.05,76.91,76.91,0,0,0-7.28,5.52,32.61,32.61,0,0,0-4.18,4.88,8.59,8.59,0,0,0-.85,2.44l.55.17-1,2.67Z"/><path d="M223.18,56.15a45.4,45.4,0,0,1-13.47,5.09c-5.3,1.13-9.5-1.55-14-3.17-4.78-1.72-8.1-5.61-10.78-9.58-2.4-3.57-4.18-7.8-3.64-12.36.27-9.77,5.57-16.72,12.59-22.61,1.41-1.12,3.73.18,4.71-2,.18-.41,1.6-.3,2.46-.39a30.81,30.81,0,0,1,3.94-.34c1.25,0,2.48.5,3.72.52,5.26.1,9.93,2.11,14.49,4.42A9.78,9.78,0,0,1,225.75,18a29.07,29.07,0,0,1,3.42,4.2,14.58,14.58,0,0,1,1.05,3.69c.61,2.29,1.55,4.55,1.75,6.88a32.77,32.77,0,0,1-.28,8.74,30.35,30.35,0,0,1-2.87,8.33c-1.14,2.2-3,4-4.65,6C224,56,223.52,56,223.18,56.15ZM203,17a19.88,19.88,0,0,0-4.28,1.68,18.27,18.27,0,0,0-4,3.77A53.82,53.82,0,0,0,190,29.05a18,18,0,0,0-1.44,4.5,16.41,16.41,0,0,0-.86,4,24.86,24.86,0,0,0,.63,6.21,16.24,16.24,0,0,0,6,9c1.43,1.1,3.35,1.54,4.86,2.55,2.71,1.81,5.57,1.62,8.45.88a52.45,52.45,0,0,0,8.6-2.72A26.13,26.13,0,0,0,222,49.22a8.54,8.54,0,0,0,3-5.75c.27-2.37,1.55-4.68,1.6-7,.12-6.1-1.24-11.91-5.14-16.84a9.92,9.92,0,0,0-8.61-3.73C209.72,16,206.59,16.56,203,17Z"/></g></g></svg>