<svg xmlns="http://www.w3.org/2000/svg" viewBox="0 0 555.94 467.23"><defs><style>.cls-1{fill:#fff;}.cls-2{fill:#fcee21;}.cls-3{fill:#3bbf4f;}.cls-4{fill:#227336;}.cls-5{fill:#bebebe;}</style></defs><title>Cloud logo2</title><g id="Layer_2" data-name="Layer 2"><g id="Layer_1-2" data-name="Layer 1"><path class="cls-1" d="M529.49,47.43c6.7,16,9.34,35.84-4.8,51.15-12.91,14-23.42,27.32-37.12,40.41a124.22,124.22,0,0,1-62.26,32.24c-3.2.64-5.95,3.51-8.92,5.35,4.77,2,9.46,5.43,14.33,5.72,5.32.33,18-5.72,23-6.72,2,0,4.7,7.28,5,10,4.71,18.66,2,31,.42,43a6.71,6.71,0,0,1-.34,1.79c-.75,2-2.3-.68-2.69-1-19.26-16.92-38.84-33.5-57.48-51.09-19.29-18.21-38.36-36.76-56.14-56.41-10.34-11.42-19.73-7-30.35-2.81-4.29,1.69-9.53,1.83-13,4.43-2.57,1.91-3.12,6.64-4.38,10.18-10,28.08-21,55.87-29.57,84.38-5.83,19.32-22.89,14.3-34.92,18.26-22,7.23-45.32,10.18-67.61,16.58-5.29,1.52-9,9.4-12.85,14.76-2.35,3.24-3.1,7.66-5.56,10.78-2,2.52-5.44,3.87-8.24,5.75-1.92,1.29-5.22,2.37-5.47,3.94-.68,4.12-1.6,9.51.41,12.5,4.91,7.3,11.53,13.43,17.24,20.22,11.1,13.19,22.17,26.4,33,39.8,6.82,8.45,13.33,17.16,19.58,26,.23.32,0,1-.36,1.82a27.92,27.92,0,0,1-2.37,3.71c-16,21.8-38.86,32.31-64.31,38.28-17.86,4.19-35.63,8.22-54.2,3.25-37.84-10.11-61.07-45.68-53.83-84.33,2.5-13.36,5.09-27.19,10.83-39.29,4.23-8.93,13.28-15.78,20.83-22.85s16-13.61,24.27-20.08c2.08-1.63,5.9-3.11,8.12-4.63a36.52,36.52,0,0,0,6-5c-2.45-1.83-4.82-5.11-7.35-5.25-15.56-.84-25.66,9.51-36.1,18.83-6.23,5.57-12.18,11.47-18.45,17-.67.59-3.36.13-4-.71-21.47-26.86-13.1-53.66-1.52-81.75C40.76,175.2,64.44,158.94,93.27,148c5.71-2.17,12.58-2.4,18.68-1.67,1.73.21,2.66,7,4,10.8l5.23,37.77c.28,1.17,4.31,2.81,5.26,2.19,3-2,7.69-4.93,7.69-7.5,0-23.24-3.23-46.7-.93-69.64,2.22-22.09,7.41-45.5,28-59,22.94-15,47.64-25.34,76.51-25.34,8,0,16,0,24,1.64.56.11,2.1,3,1.71,3.54-7.76,11-16.17,21.6-23.51,32.88a145.57,145.57,0,0,0-12.5,24.73c-.69,1.73,2.68,6.86,5.06,7.6,2.53.79,7.35-.82,9-3,8.4-11,14.75-23.93,24.41-33.59C277.2,58,291.24,49.44,304,39.52c19-14.8,40.91-19.26,64.08-15.63,8.33,1.3,16,6.88,23.85,10.79.55.28.56,3.26-.17,4.27-9.39,13-19.24,25.63-28.13,38.93-1.23,1.84,2.11,6.73,3.34,10.21,3.72-1.32,9.51-1.58,10.84-4.15,9.58-18.57,38-41,56.88-49.36,14.92-6.56,9.87-5,25-11C480,15.51,521.47,28.32,529.49,47.43Z" transform="translate(-0.25 -0.25)"/><path class="cls-2" d="M430.82,398.73c.92,1,1.18.66,2,2.65-.78,1.2-3.61,4.53-4.43,4.53-1.55,0-1.46,0-2.58-1.23-16.39-17.41-32.64-35-49-52.4q-35.29-37.61-70.75-75.06c-5.12-5.38-11.07-10-16.31-15.23-1.49-1.51,2.19-3.17,1.33-5.29,4.17-.7,6.56-4.49,8.19-2.77,26.3,27.65,52.13,55.74,77.77,84C395.23,358,413,378.41,430.82,398.73Z" transform="translate(-0.25 -0.25)"/><path class="cls-3" d="M469.21,266.06l3.94,8.87q-14.07,55.47-28.31,110.89L412.55,212.89C431.51,230.53,450.5,248.15,469.21,266.06Z" transform="translate(-0.25 -0.25)"/><path class="cls-4" d="M410.59,412.8c.59.66-.92,4.86-2.17,5.29-19.9,6.8-39.71,14-60,19.57-21.51,5.91-43.56,9.88-65.2,15.34-7.61,1.93-10-2.54-13.42-7.3-5-6.93-10.37-13.58-15.84-20.13-9.17-11-18.77-21.64-27.78-32.75-18.9-23.29-37.45-46.86-56.34-70.16-5.26-6.49-11.25-12.4-16.81-18.66-2.7-3-5-5.65,1.77-7,10.29-2.09,20.39-5.12,30.57-7.75l31.71-8.42c16.71-5.55,33.41-11.14,50.25-16.28a9.13,9.13,0,0,1,7.73,2q41.92,44.64,83.42,89.69C375.94,375,393.39,393.81,410.59,412.8Z" transform="translate(-0.25 -0.25)"/><path class="cls-5" d="M550.08,43.71c9.48,21.12,7.34,37.06-2.39,56.87-10.57,21.51-31.34,39.19-50.5,50.71-20.5,12.29-16.5,9.29-17.5,16.29-1,24-7.08,57.2-8.83,73a5.14,5.14,0,0,0,.06,1.4l-12.15-11.58a6.71,6.71,0,0,0,.34-1.79c1.58-12,4.29-24.38-.42-43-.3-2.72-3-10-5-10-5,1-17.65,7-23,6.72-4.87-.29-9.56-3.69-14.33-5.72,3-1.84,5.72-4.71,8.92-5.35A124.22,124.22,0,0,0,487.57,139c13.7-13.09,24.21-26.43,37.12-40.41,14.14-15.31,11.5-35.2,4.8-51.15-8-19.11-49.46-31.92-69.8-23.85-15.13,6-10.08,4.44-25,11-18.88,8.31-47.3,30.79-56.88,49.36-1.33,2.57-7.12,2.83-10.84,4.15-1.23-3.48-4.57-8.37-3.34-10.21,8.89-13.3,18.74-25.95,28.13-38.93.73-1,.72-4,.17-4.27-7.84-3.91-15.52-9.49-23.85-10.79-23.17-3.63-45,.83-64.08,15.63C291.24,49.44,277.2,58,265.89,69.36c-9.66,9.66-16,22.57-24.41,33.59-1.68,2.2-6.5,3.81-9,3-2.38-.74-5.75-5.87-5.06-7.6a145.57,145.57,0,0,1,12.5-24.73c7.34-11.28,15.75-21.86,23.51-32.88.39-.56-1.15-3.43-1.71-3.54-8-1.64-16-1.64-24-1.64-28.87,0-53.57,10.3-76.51,25.34-20.62,13.52-25.81,36.93-28,59-2.3,22.94.89,46.4.93,69.64,0,2.57-4.67,5.52-7.69,7.5-1,.62-5-1-5.26-2.19l-5.23-37.77c-1.29-3.78-2.22-10.59-4-10.8-6.1-.73-13-.5-18.68,1.67-28.83,10.95-52.51,27.21-65,57.67-11.58,28.09-19.95,54.89,1.52,81.75.67.84,3.36,1.3,4,.71,6.27-5.51,12.22-11.41,18.45-17,10.44-9.32,20.54-19.67,36.1-18.83,2.53.14,4.9,3.42,7.35,5.25a36.52,36.52,0,0,1-6,5c-2.22,1.52-6,3-8.12,4.63C73.29,273.68,65,280.12,57.3,287.29s-16.6,13.92-20.83,22.85c-5.74,12.1-8.33,25.93-10.83,39.29-7.24,38.65,16,74.22,53.83,84.33,18.57,5,36.34.94,54.2-3.25,25.45-6,48.27-16.48,64.31-38.28a27.92,27.92,0,0,0,2.37-3.71l19.3,24.37c-1.29.24-2.81,1.12-4.8,2.89-17.55,15.62-39,23.88-60.93,32.08-26.94,10.08-52.23,10.72-80.23,6.72-48-7-69-77-68-101-1-11,5-32,7.32-38.18,4.29-8.59-1.55-13.09-3.7-18.46-10.52-26.23-10.62-62.36-6.62-78.36,3-15,9-25.63,15.08-36,6.85-11.58,17-21.52,26.86-30.93,17.82-17,41-22,64.21-26.61,2.32-.46,5.47-4.64,5.58-7.21,1.49-34.57,20.44-58.22,47-77.63,25.22-18.45,53.71-24.47,84.17-23.13,13.8.61,27.54,2.48,41.32,3.47,1.85.14,4-1.3,5.73-2.41C311.43,6.28,332.23.44,354,3.09c18.57,2.26,37.39,5.89,52.78,18.7,1.63,1.35,2.23,1.56,10.87-3.21,21.58-15.39,49.87-21.2,75-17,13,3,33.79,6.72,46.85,22.78C544.1,30,547.07,37,550.08,43.71Z" transform="translate(-0.25 -0.25)"/><path d="M477,250.78c10.43,6.73,11,14.56,8.26,26.25-6.66,27.9-10.45,56.49-16.84,84.46-3,13-7.58,26.21-14.51,37.43C444.81,413.7,433.82,427,414.84,432c-32.19,8.55-63.67,19.75-95.76,28.72-13.59,3.79-27.91,5.28-42,6.68-4.2.41-10.15-1.84-13-5-13.14-14.65-25.55-29.95-38-45.2-2.34-2.87-4-4.83-6.44-4.37l-19.3-24.37c.39-.81.59-1.5.36-1.82-6.25-8.88-12.76-17.59-19.58-26-10.83-13.4-21.9-26.61-33-39.8-5.71-6.79-12.33-12.92-17.24-20.22-2-3-1.09-8.38-.41-12.5.25-1.57,3.55-2.65,5.47-3.94,2.8-1.88,6.26-3.23,8.24-5.75,2.46-3.12,3.21-7.54,5.56-10.78,3.87-5.36,7.56-13.24,12.85-14.76,22.29-6.4,45.64-9.35,67.61-16.58,12-4,29.09,1.06,34.92-18.26,8.6-28.51,19.57-56.3,29.57-84.38,1.26-3.54,1.81-8.27,4.38-10.18,3.5-2.6,8.74-2.74,13-4.43,10.62-4.21,20-8.61,30.35,2.81,17.78,19.65,36.85,38.2,56.14,56.41,18.64,17.59,38.22,34.17,57.48,51.09.39.34,1.94,3,2.69,1L470.92,242C471.43,245.1,474.35,249.06,477,250.78Zm-3.87,24.15-3.94-8.87c-18.71-17.91-37.7-35.53-56.66-53.17-12.46-11.6-25.24-22.85-37.41-34.73-12.77-12.47-24.95-25.55-37.52-38.24-.92-.93-4-1.42-4.22-1.09a96,96,0,0,0-6.64,14.07c-2.77,8.21-4.29,16.88-7.46,24.92-6.45,16.36-13.69,32.4-20.46,48.64a4.45,4.45,0,0,0,.64,3.93c7.4,7.32,15.35,14.11,22.44,21.71,12.22,13.08,23.95,26.62,35.86,40q28,31.41,55.9,62.85c9,10.11,17.76,20.38,26.82,30.41.77.84,4.28.71,4.34.47Q459.2,330.42,473.15,274.93ZM432.84,401.38c-.84-2-1.1-1.6-2-2.65C413,378.41,395.23,358,377.06,337.93c-25.64-28.26-51.47-56.35-77.77-84-1.63-1.72-4,2.07-8.19,2.77.86,2.12-2.82,3.78-1.33,5.29,5.24,5.27,11.19,9.85,16.31,15.23q35.54,37.38,70.75,75.06c16.36,17.44,32.61,35,49,52.4,1.12,1.2,1,1.2,2.58,1.23C429.23,405.91,432.06,402.58,432.84,401.38Zm-24.42,16.71c1.25-.43,2.76-4.63,2.17-5.29-17.2-19-34.65-37.77-52.07-56.56q-41.62-44.92-83.42-89.69a9.13,9.13,0,0,0-7.73-2c-16.84,5.14-33.54,10.73-50.25,16.28l-31.71,8.42c-10.18,2.63-20.28,5.66-30.57,7.75-6.8,1.38-4.47,4-1.77,7,5.56,6.26,11.55,12.17,16.81,18.66,18.89,23.3,37.44,46.87,56.34,70.16,9,11.11,18.61,21.76,27.78,32.75,5.47,6.55,10.87,13.2,15.84,20.13,3.42,4.76,5.81,9.23,13.42,7.3,21.64-5.46,43.69-9.43,65.2-15.34C368.71,432.09,388.52,424.89,408.42,418.09Zm-85.79-283.5c-.6-.19-1.39-.67-1.65-.47-3.89,3-9.27,5.38-11.24,9.39-3.91,8-5.44,17-8.82,25.29C292.66,189,284,209,275.25,229c-2.16,4.89-4.54,11.82-8.54,13.37-12.31,4.77-25.34,7.86-38.29,10.72-15.95,3.53-32.06,6.43-48.19,9.1-8.65,1.43-15.34,4.63-17.92,13.64-.24.81-.43,1.62-.64,2.44a7.53,7.53,0,0,0,1.78,0l76.62-20.56c24.25-6.67,43.22-18.89,51.14-44.95,4.85-16,12.44-31.09,18.75-46.62C314.17,155.74,318.3,145.36,322.63,134.59Z" transform="translate(-0.25 -0.25)"/><path class="cls-3" d="M412.55,212.89l32.29,172.93c-.06.24-3.57.37-4.34-.47-9.06-10-17.85-20.3-26.82-30.41q-27.9-31.47-55.9-62.85c-11.91-13.37-23.64-26.91-35.86-40-7.09-7.6-15-14.39-22.44-21.71a4.45,4.45,0,0,1-.64-3.93c6.77-16.24,14-32.28,20.46-48.64,3.17-8,4.69-16.71,7.46-24.92a96,96,0,0,1,6.64-14.07c.18-.33,3.3.16,4.22,1.09,12.57,12.69,24.75,25.77,37.52,38.24C387.31,190,400.09,201.29,412.55,212.89Z" transform="translate(-0.25 -0.25)"/></g></g></svg>