<svg xmlns="http://www.w3.org/2000/svg" viewBox="0 0 451.01 228.96"><defs><style>.cls-1{fill:none;stroke-width:7px;}.cls-1,.cls-2{stroke:#000;stroke-miterlimit:10;}.cls-2{fill:#fff;stroke-width:6.93px;}</style></defs><title>Handshake</title><g id="Layer_2" data-name="Layer 2"><g id="Layer_2-2" data-name="Layer 2"><rect class="cls-1" x="3.5" y="113.46" width="64" height="112" rx="6.92"/><rect class="cls-1" x="383.51" y="111.46" width="64" height="112" rx="6.92" transform="translate(831.02 334.93) rotate(-180)"/><path class="cls-2" d="M383.51,129.46v71c-32-3-109,20-138,19s-74-24-120-31-65-45,6-45c-44-14-35-39,11-37-74-44,82-17,82-17,37,9,10-36,7-62s14-35,25-6,85,111,127,108"/><path class="cls-2" d="M67.5,131.46v71c32-3,109,20,138,19s74-24,120-31,69-49-2-49c44-14,54-43,8-41,47-38-105-9-105-9-37,9-10-36-7-62s-14-35-25-6-85,111-127,108"/></g></g></svg>