<svg xmlns="http://www.w3.org/2000/svg" viewBox="0 0 210.98 218.07"><title>Cloudloop</title><g id="Layer_2" data-name="Layer 2"><g id="Layer_1-2" data-name="Layer 1"><path d="M166.07,59.09c1.39-.93-.17-1.42,0-2.06l-.91-.14c.83-1,.11-1.77-.26-2.56-.2-.43-.37-.88-.59-1.3-.55-1.06-1.13-2.1-1.69-3.15a1.88,1.88,0,0,1-.14-2.24c-1.11.23-1.44-.32-1.76-1.15a13.3,13.3,0,0,0-1.46-2.25,6.34,6.34,0,0,1-.42-.82c-.41-1-1.4-1.62-1.63-2.78-.1-.5-.79-.89-1.19-1.34-.09-.1-.1-.26-.16-.39a5.39,5.39,0,0,0-.39-.8c-.21-.3-.47-.57-.7-.85l.13-.18c-.22-.06-.51,0-.65-.19a1.55,1.55,0,0,1-.41-.78,10.73,10.73,0,0,1-.1-1.4l1-.42a1.1,1.1,0,0,0-1.51,0,1,1,0,0,1-1.54-.3,6,6,0,0,0-3.29-2.43,2.63,2.63,0,0,1-1-.42,2.28,2.28,0,0,1-.66-1,5.56,5.56,0,0,1-.05-1.23,1.52,1.52,0,0,0-.91-1.49,1.11,1.11,0,0,1-.5-.46,7.73,7.73,0,0,0-4.13-3.08,4.88,4.88,0,0,1-.9-.63l-2.14-1.51a13.27,13.27,0,0,0-1.24-.88,11.77,11.77,0,0,0-2.61-1.4c-1.51-.42-2.58-1.51-3.91-2.17s-3-1.24-4.48-1.82c-1-.37-2-.7-3-1a10.32,10.32,0,0,0-1.57-.4c-1.31-.19-2.64-.33-4-.52-.32,0-.62-.23-1-.28a11.84,11.84,0,0,0-1.46-.15c-1.28,0-2.56,0-3.84-.09-1.49-.09-3-.31-4.46-.37-2.55-.1-5.1-.17-7.65-.16a14.22,14.22,0,0,0-2.88.43A44.2,44.2,0,0,1,89.86,14a28.51,28.51,0,0,0-4.18,1c-.91.21-1.84.36-2.76.56-.4.09-.79.23-1.18.35s-.84.22-1.24.37-.93.36-1.39.55a20.07,20.07,0,0,0-2.45,1.1c-1.53.92-3.4.74-4.93,1.6-.77.43-1.46,1-2.25,1.41a27.16,27.16,0,0,1-3.29,1.25c-.25.08-.6-.2-.92-.24-.79-.08-1.27.47-1.8.92S62.11,24,61.4,24.52c-.41.3-.91.47-1.31.78a8.8,8.8,0,0,0-1.62,1.48c-.51.65-1.07,1-1.8.76-.55-.21-.82,0-1.21.32a5.5,5.5,0,0,1-2.27,1.54c-.27.06-.47.5-.7.77a5.08,5.08,0,0,1-.41.51c-.6.49-1.21,1-1.83,1.43-.2.14-.5.14-.69.29-1.11.82-2.38,1.47-2.9,2.88,0,.07,0,.17-.07.22Q44.8,37.61,43,39.71c-.49.56-1,1.08-1.49,1.66-.86,1.07-1.71,2.14-2.54,3.24-2.85,3.81-5.85,7.54-7.51,12.1-.32.89-.56,1.82-.91,2.71s-.93,1.95-1.34,2.95a10.68,10.68,0,0,0-.34,1.51c-.14.54-.26,1.09-.44,1.61-.28.8-.33,1.7-1.06,2.31a1.27,1.27,0,0,0-.36.83,19.16,19.16,0,0,1-.75,2.29,3.28,3.28,0,0,0,.12,1.7c.21.59.4.91-.32,1.36A2.54,2.54,0,0,0,25,76.27c0,.39-.32.76-.44,1.16s-.15.82-.23,1.23a4.84,4.84,0,0,1-.22.93c-.13.32-.43.59-.49.92A16.44,16.44,0,0,0,23.31,83a1.82,1.82,0,0,0,1.29,1.87c-.15,1.3-.42,2.6-.44,3.9,0,1.11.39,2.24.36,3.35s.95,1.75,1.16,2.77A28.17,28.17,0,0,0,27,98.88a6.91,6.91,0,0,0,.54.83,10.38,10.38,0,0,1,.4,1c.32.84.33,1.81,1.13,2.46a7.59,7.59,0,0,1,.87,1.19.84.84,0,0,0,1.33.14c1.32-1,2.67-2,4-3,.57-.45,1.08-1,.71-1.82a13.75,13.75,0,0,0,2.14-.26c.34-.09.6-.54.95-.88.65.45,1-.48,1.53-.68.35-.13.65-.45,1-.54.93-.26,2.82,1.2,2.89,2.17s.13,1.93.2,2.89c.13,1.73.17,3.48.45,5.18.14.84-.11,1.75.49,2.56.29.38.23,1,.35,1.53a1.54,1.54,0,0,0,.26.53,1.87,1.87,0,0,1,.3,1.8,3,3,0,0,0-.12,1.29,30.21,30.21,0,0,0,.59,3.4c.27,1.09.7,2.13,1.08,3.28l-.61-.21c.3.88-.57,1.8.13,2.47,0,.76,0,1.37,0,2a13.85,13.85,0,0,0,.07,1.82c.23,1.51.54,3,.79,4.52.07.45,0,.91.1,1.36.1.67.25,1.33.36,2a3.32,3.32,0,0,1,.13,1.41A4.94,4.94,0,0,1,45,140.87a2.16,2.16,0,0,1-1.29-.12c-1.27-.69-2.68-.41-4-.73-.79-.19-1.55-.52-2.34-.74-1.12-.32-2.24-.67-3.38-.89-1.84-.34-3.69-.62-5.54-.86a13.55,13.55,0,0,0-2.62-.1,10.64,10.64,0,0,1-5.24-1.28c-1.14-.53-2.39-.83-3.54-1.34a24.47,24.47,0,0,1-2.41-.9,16.58,16.58,0,0,0-4-1.29c-1.23-.32-2.49-.55-3.74-.79-.85-.15-1.72-.25-2.58-.37-.18,0-.46,0-.52,0-.67-1-1.82-.51-2.68-.93-.37-.19-.88-.08-.77-.77,0-.19-.23-.42-.29-.53.8-.62,1.51-1.23,2.28-1.75s1.53-.83,2.28-1.28c1.29-.78,2.83-1.18,3.87-2.35.62-.7,1.17-1.47,1.76-2.21.3-.37.41-1.08,1.18-.64.08,0,.29-.16.49-.28-.64-.62-.19-.85.31-1.1s1.2-.59.58-1.36l1.06-.28L10,109.14l.68.32a5.35,5.35,0,0,0-.06-.66c-.21-1.06-.42-2.12-.67-3.18,0-.16-.28-.33-.46-.41-.49-.2-.58-.42-.1-.73s.72-.77.2-1.32a1,1,0,0,1-.11-.63,4.8,4.8,0,0,0,.15-.91c-.19-1.4-.42-2.8-.67-4.19-.05-.26-.31-.48-.45-.68-.06-.79-.1-1.57-.2-2.35a1.32,1.32,0,0,1,.4-1.31A1.22,1.22,0,0,0,8.84,92c-.27-.72-.38-1.34.39-1.9-.64-.38-.48-.89-.46-1.47.12-2.64.54-5.28-.26-7.9-.25-.81,0-1.76-.18-2.6s.38-1.56-.34-2.29c-.26-.26-.07-1,0-1.53.16-1.12.38-2.23.55-3.35a5,5,0,0,0,0-.67,8.47,8.47,0,0,1,.12-.88,4.13,4.13,0,0,0,.26-1.5c-.15-.75.15-.88.92-.82l-.17-1.22-.84.23c-.49-.31-.53-.66.14-.9,1.4-.49,1.67-1.52,1.69-2.81,0-.4.33-.78.45-1.18a11.87,11.87,0,0,1,2.15-3.81c.07-.1.12-.21.22-.39l-.62-.19c0-.09,0-.17,0-.19a5.51,5.51,0,0,0,1.86-3.31c0-.16.19-.3.29-.45a3,3,0,0,0,.52-.89c.42-.33,1-.52.86-1.28a.34.34,0,0,1,.21-.28c1.11-.17,1.1-1.32,1.71-1.93.34-.35.49-.87.8-1.25a4.46,4.46,0,0,0,1.42-2.47c0-.15.2-.29.41-.41l-.11.47.13.07a5,5,0,0,0,.71-1.17c.16-.67.69-.81,1.16-1.1a1.46,1.46,0,0,0,.63-.72c.16-.64.69-1.21.24-2-.13-.23.24-.75.41-1.24.15.5.28,1.07.92.44l-.56-.37a6.2,6.2,0,0,1,.66-.27,3.26,3.26,0,0,0,2.7-2.68.92.92,0,0,1,.16-.26l1.53-2a.4.4,0,0,0,.06-.3c-.2-.72.16-1,.79-1.28a12.61,12.61,0,0,0,3.82-3.23,17.86,17.86,0,0,1,1.86-1.46c.88-.75,1.72-1.55,2.59-2.31.16-.14.48-.12.6-.27.94-1.21,2.55-1.57,3.56-2.82l-.72-.08c.3-.33.48-.66.76-.8.91-.49,1.85-.91,2.72-1.33l-.29-1.08c.39-.07.78-.15,1.18-.21a4.42,4.42,0,0,0,1-.15c.16-.06.2-.39.15-.69.45-.17.89-.36,1.35-.5.64-.2.57-.47.1-.82l1.71-.66-.08.48c.06,0,.12,0,.16,0a13.12,13.12,0,0,1,5-2.47c.79-.2,1.23-.59,1.2-1.21l1.83-1a8.24,8.24,0,0,1,1.33-.73c.75-.25,1.31-.6,1.26-1.5,1.41.53,1.19.51,2.1-.35a3.14,3.14,0,0,1,1-.5l1.84-.74c.14-.06.24-.21.38-.25,1.43-.38,2.89-.7,4.3-1.13,1-.3,1.92-.76,2.88-1.15.26-.1.51-.32.77-.33,1.58-.07,2.86-1,4.29-1.43A21.67,21.67,0,0,1,83,2.33c1.76-.23,3.53-.3,5.29-.5a13.24,13.24,0,0,0,2.24-.52,6.6,6.6,0,0,1,3,0,14.11,14.11,0,0,0,3.14-.2L96.37,0c.47.71,1,.22,1.43.31s.73.24,1.1.31c1.79.32,3.52-.29,5.29-.34.74,0,1.5.31,2.24-.13.25-.15.67-.06.62.5,0,.17.3.49.51.53,1,.17,2,.25,3,.38s2.28.29,3.41.49a2.85,2.85,0,0,0,2.16-.2,1.15,1.15,0,0,1,.8-.06c.85.23,1.67.52,2.52.75a2.78,2.78,0,0,0,1.28.21,4.71,4.71,0,0,1,3.74.84,5.52,5.52,0,0,0,3,.86,7.19,7.19,0,0,1,3.54.7,2.47,2.47,0,0,0,1.55.1,5.11,5.11,0,0,1,4,1,3.14,3.14,0,0,0,2.24.65.7.7,0,0,1,.38,0c1,.54,2,1.11,3,1.64s2.11,1,3.08,1.57c1.27.8,2.45,1.74,3.68,2.6.37.26.78.46,1.32.77a6,6,0,0,0,2.31,4,7.56,7.56,0,0,1,1.57,1.94,5.24,5.24,0,0,0,2.31,1.81,13.78,13.78,0,0,1,3.41,2.41c.73.73,1.66,1.26,2.43,1.95a19.74,19.74,0,0,1,1.8,2,1.47,1.47,0,0,1,.14.8c0,.33-.06.66-.07,1,0,1.05.06,1.14,1.16,1.1-.15-.22-.39-.41-.41-.62a1.33,1.33,0,0,1,.3-.68c0-.05.33,0,.38.08a2.83,2.83,0,0,1,.51,1c.06.27-.11.58-.22,1.06,1.52-.59,1.84.55,2.38,1.31l-1.23,1,.16.27a2,2,0,0,0,.59-.3c.69-.74,1-.69,1.6.15a11.68,11.68,0,0,0,1.29,1.35c.07.07.21.13.21.2,0,1.31,1.2,2,1.7,3,.37.78.67,1.59,1,2.38a.91.91,0,0,0,.3.43c1.16.71,1.63,1.92,2.25,3a2.65,2.65,0,0,0,1,1.08,1.65,1.65,0,0,1,.77,1.13,20.63,20.63,0,0,0,.93,2c.61,1.22,1.31,2.41,1.83,3.68a28.57,28.57,0,0,1,.72,2.83c.34,1.17.74,2.33,1.09,3.5a2.75,2.75,0,0,1,0,.76,4.05,4.05,0,0,0,0,.69c.09.6.25,1.19.31,1.79.15,1.37.31,2.75.38,4.13.09,1.85,0,3.72.16,5.56.34,3.1-.48,6.14-.32,9.21.14,2.58-.63,5-1.14,7.45-.33,1.58-.42,3.2-.68,4.79-.12.67-.44,1.3-.61,2-.64,2.57-1.26,5.15-1.88,7.72a16.71,16.71,0,0,1-.85,3.36c-.77,1.62-.67,3.42-1.34,5.05-.51,1.24-.77,2.59-1.16,3.88a2.37,2.37,0,0,1-.31.53,5.36,5.36,0,0,0-1.19,2.69,6.92,6.92,0,0,1-.81,2.14c-.44,1-.92,1.94-1.39,2.91a1.23,1.23,0,0,1-.37.47c-1.71,1-3.43,2-5.14,3-.35.21-.63.54-1,.74-2,1.17-4,2.34-6.07,3.47a3.06,3.06,0,0,1-4.29-2.15c-.16-1.47-.62-2.92-.83-4.39a26.38,26.38,0,0,1-.11-2.82,10.15,10.15,0,0,0-.56-3.83,1.16,1.16,0,0,1,.16-1.28c.67-.94,1.24-2,1.89-2.9.24-.36.62-.63.85-1,.93-1.46,1.82-2.94,2.74-4.41.68-1.08,1.41-2.13,2-3.24a40,40,0,0,0,2.13-3.91c.37-.83.39-1.81.68-2.68.42-1.27,1-2.49,1.42-3.75.16-.46.22-1,.38-1.41.26-.79.62-1.55.83-2.35a7.33,7.33,0,0,0,.06-1.56c0-.14-.06-.4,0-.43,1.17-.62,1-1.94,1.27-2.9s.82-2,1-3c.26-1.26.38-2.55.55-3.82,0-.15,0-.34,0-.46a6.42,6.42,0,0,0,.5-4.13c-.3-2-.81-4-1.15-6-.19-1.06-.1-2.17-.36-3.2a8.08,8.08,0,0,1-.36-2.45,10.06,10.06,0,0,0-.65-2.84c0-.13-.24-.23-.38-.31S166.45,59.24,166.07,59.09ZM156.6,32.7c.22.07.5.07.65.21a33.22,33.22,0,0,1,3.69,3.35c1.36,1.74,3,3.28,4.43,4.94a17.79,17.79,0,0,1,1.55,2c.74,1.12,1.42,2.3,2.13,3.45.55.87,1.15,1.7,1.64,2.61a5.55,5.55,0,0,0,2.12,2.38c1,.58,1,1.74,1.42,2.68a7.6,7.6,0,0,1,.29,1.45l.29,0a1.28,1.28,0,0,0,0,1.65,5.59,5.59,0,0,1,.72,1.76c.3,1.62,1.45,3.13.65,4.9-.09.2,0,.5,0,.75a17.24,17.24,0,0,1,.09,1.75c0,.61-.15,1.21-.2,1.81-.1,1.15.49,2.24,0,3.47a14.72,14.72,0,0,0-.46,3.24c-.15,1-.45,2-.52,2.93a26.59,26.59,0,0,1-1.3,6.44,24.6,24.6,0,0,0-.7,2.51c-.33,1.54-.51,3.11-.92,4.62-.51,1.85-1.18,3.64-1.79,5.46-.26.78-.48,1.58-.81,2.33-.44,1-.93,2-1.45,3a14.07,14.07,0,0,1-1.7,2.83c-1.35,1.51-1.91,3.46-3.08,5.08a15.3,15.3,0,0,1-1.86,2.31c-.2.18-.34.44-.54.64-1.09,1.13-1.8,2.66-3.5,3.13-.76.21-.73.46-.46,1.21a6.32,6.32,0,0,1,.75,2.77,22,22,0,0,0,.17,3.52,11.21,11.21,0,0,0,.12,1.3c.07.4.14,1.06.37,1.13a2,2,0,0,0,1.35-.2c1.34-.69,2.63-1.45,3.94-2.19.69-.38,1.39-.76,2-1.19a17.75,17.75,0,0,0,1.69-1.31,4.13,4.13,0,0,0,.81-.91c.36-.61.65-1.26,1-1.89.07-.14.14-.27.2-.42.46-1.19.89-2.4,1.39-3.58.2-.47.65-.85.83-1.33a22.07,22.07,0,0,0,.73-2.56c.34-1.38.73-2.77,1-4.18s1.37-2.72,1.21-4.34c0-.4.25-.82.33-1.25.23-1.07.35-2.17.64-3.22.47-1.73,1-3.44,1.55-5.16a2.64,2.64,0,0,0,0-.68,5.73,5.73,0,0,1,.07-.58c.11-.7.23-1.4.34-2.09a3.79,3.79,0,0,1,.07-.6,5.49,5.49,0,0,0,.16-3.81c.74-.38.73-.38.8-1.28a9.87,9.87,0,0,1,.16-1.07,14.34,14.34,0,0,0,.63-3.54,26.55,26.55,0,0,1,.19-2.84,11.37,11.37,0,0,1,0-1.75c.12-.56.41-1.06-.18-1.54-.08-.06.07-.4.12-.62s.05-.19.07-.31L179,71.5a4.57,4.57,0,0,0,.15-1c-.17-1.86-.43-3.72-.55-5.59-.09-1.4,0-2.81,0-4.22,0-.52-.06-1-.8-1.09.66-.49.56-1,.24-1.63a3.6,3.6,0,0,1-.2-.66c-.32-1.23-.62-2.47-1-3.7a2.65,2.65,0,0,0-.22-.4c-.39-.74-.78-1.49-1.14-2.25-.05-.1.16-.33.11-.41-.49-.77-1-1.52-1.53-2.27,0,0-.15,0-.22,0-.87.28-1.38-.25-1.81-.84a5.45,5.45,0,0,1-.34-1,24.72,24.72,0,0,0-4.21-6.62c-1.27-1.46-2.39-3-3.62-4.55s-2-3-3.49-4.09a1.78,1.78,0,0,1-.38-.56,4.34,4.34,0,0,0-1.15-1.5A15.32,15.32,0,0,1,156.59,27c-.73-.81-1.33-1.73-2-2.58a4.25,4.25,0,0,0-.89-.8,20,20,0,0,1-2.15-1.42c-1.79-1.6-3.5-3.28-5.26-4.91a36.8,36.8,0,0,0-2.84-2.46,16.88,16.88,0,0,0-2-1,25.31,25.31,0,0,0-5.56-2.58,4.47,4.47,0,0,1-.68-.36c-1.42-.62-2.74-1.56-4.42-1.4a2.58,2.58,0,0,1-1.06-.18c-.77-.28-1.51-.64-2.29-.91a5.77,5.77,0,0,0-2-.56,6,6,0,0,1-3.54-1,3.06,3.06,0,0,0-1-.45,35.39,35.39,0,0,1-3.56-.65,2.49,2.49,0,0,0-2.82.49.92.92,0,0,1-.61.27c-1.54-.06-3.09-.08-4.61-.24a39.73,39.73,0,0,0-5-.72,50.92,50.92,0,0,0-9.14.65c-1,.19-2,.09-3,.22-1.77.23-3.55.52-5.32.82-1.18.19-2.47-.42-3.58.43-.06,0-.2,0-.3,0a7.12,7.12,0,0,0-4.72,1.24,1.61,1.61,0,0,1-.43.17c-1.4.36-2.83.65-4.21,1.09-1.7.53-3.39,1.14-5,1.81A4.29,4.29,0,0,0,67.27,13c-.32.33-.52.81-.88,1.06-1,.66-2,1.23-3,1.83a16.14,16.14,0,0,1-1.46.83c-.68.3-1.43.47-2.08.82s-.84.78-1.32,1.08a27.11,27.11,0,0,1-3,1.65A25,25,0,0,0,50,23.68c-1.43,1.16-2.83,2.36-4.27,3.5-.45.36-1,.58-1.49.9-1.06.67-2.12,1.36-3.16,2.05a1.31,1.31,0,0,0-.27.37,8,8,0,0,1-2.89,3,7.18,7.18,0,0,0-1.85,1.47,16.52,16.52,0,0,0-1.34,1.75c-.26.34-.44.85-.79,1-1.79.81-3,2.34-4.38,3.61-.74.67-1.46,1.39-2.15,2.15a4.73,4.73,0,0,0-1.18,2,2.75,2.75,0,0,1-.69,1.16c-.95.91-2.12,1.61-2.41,3a3.14,3.14,0,0,1-.54,1.1,31.29,31.29,0,0,0-2.8,4.73,28.46,28.46,0,0,0-2.33,6.33c0,.14-.25.23-.35.37a8.56,8.56,0,0,0-.88,1.22,5.22,5.22,0,0,0-.32,1.19,5.38,5.38,0,0,1-.21,1.21c-.06.22-.22.41-.27.63-.16.86-.29,1.72-.43,2.59a10.66,10.66,0,0,1-.24,1.5c-.2.64-.63,1.18-.51,1.94a2.3,2.3,0,0,1-.16,1.38c-.47.9,0,2.06-.9,2.82,0,0,0,.1,0,.15.21.82-.09,1.73.47,2.49.07.09,0,.29,0,.43-.06.53-.17,1.06-.19,1.6,0,.85.61,1.23,1.38.87l.93-.43.1,1.86a3.33,3.33,0,0,1-.7-.1c-.78-.35-1.42-.62-2,.42-.18.31-.47.58-.47,1a7.92,7.92,0,0,1,.1,1.52c-.2,1-.33,1.83.69,2.3a7.26,7.26,0,0,0-.65,1.94c-.06,1.66,0,3.32.09,5s.7,3,.44,4.66a23.39,23.39,0,0,0-.27,4.34,3.67,3.67,0,0,0,.71,2.29,2.08,2.08,0,0,1,.55,1.43,6.84,6.84,0,0,0,.68,2.94,2.62,2.62,0,0,1,.59,1.86,2.45,2.45,0,0,0,1.21,2.49c.55.37.48.74,0,1-.67.35-.6.71-.11,1.1.72.57.55,1.17.13,1.81s-.83,1.33-1.25,2a8.39,8.39,0,0,1-1.2,1.83,33.09,33.09,0,0,1-2.8,2c-.25.17-.47.37-.71.56a1.61,1.61,0,0,0,1.55,1,3.88,3.88,0,0,1,1.29.2,4,4,0,0,0,3.16-.06,4.58,4.58,0,0,1,1-.24c.45,0,.85-.14.84-.68s.2-.58.6-.63.65-.21,1-.22a2.67,2.67,0,0,1,1.2.14c.15.07.08.58.12,1l.32.13c1.15.49,2.33.94,3.46,1.48a5,5,0,0,0,3.77.53c1-.29,2.24.16,3.37.3.64.09,1.27.22,2,.35A10.13,10.13,0,0,0,39.14,131a3.51,3.51,0,0,0,3.54,1.33c.79-.33,1-.74.77-1.7-.16-.77-.28-1.55-.38-2.34s0-1.5-.79-1.93c.6-.71.6-.71.26-1.41a2.93,2.93,0,0,0,.29-.8,4,4,0,0,0-.15-.83c-.18-1.2-.37-2.41-.54-3.61,0-.25.06-.54,0-.76a4.62,4.62,0,0,0-.67-1.16,2.63,2.63,0,0,0-.8-.43c.3-.54,1.37-.66.73-1.53l-.65.15-.14-.18a3.36,3.36,0,0,1,.55-.63c.46-.29.44-.66.47-1.16.06-1-1-2.07.06-3,0,0,0-.11,0-.16-.28-1.32-.57-2.64-.84-4-.12-.64-.2-1.28-.3-1.92a3.47,3.47,0,0,0-.16-1,2.11,2.11,0,0,1-.35-1.67.6.6,0,0,0-.2-.52c-.08-.06-.35,0-.48.11-.65.42-1.28.86-1.92,1.29a12.94,12.94,0,0,0-3.75,3.73c-.38.59-.44,1.22-1.12.72l-1.52.7-.15-.26,1.05-1-.17-.24c-.39.25-.78.5-1.15.76a6.58,6.58,0,0,1-1,.73,15,15,0,0,1-2.35.86c-.27.07-.62-.2-1-.33l.47-.7-1.25-.2.17-.46a7.65,7.65,0,0,1-1.48-1.58c-.86-1.83-1.6-3.71-2.35-5.59A25.28,25.28,0,0,1,21,97.59a14.56,14.56,0,0,0-.24-1.65c-.36-.93-1.11-1.75-.58-2.86,0,0,0-.09,0-.14-.17-.62-.3-1.24-.5-1.84s-.53-1.43-.77-2.15a.83.83,0,0,1,0-.6,2,2,0,0,0-.44-2.53,6.45,6.45,0,0,0-.61-.45c1.06-.26,1.29-.51,1.21-1.18s-.15-1.51-.23-2.27c0-.16-.06-.33-.08-.49l-.73.15L18,81.4a3.35,3.35,0,0,0,.57-.42c.17-.16.39-.38.4-.57,0-1.08-.06-2.16.05-3.22a33.42,33.42,0,0,1,.65-3.43c.11-.56.27-1.11.45-1.82l-.85.27-.12-.77,1.23-.16,1.17-3.06-1.46-.29c.46-1,.75-1,1.6-.22l1.69-4-.42-.56c.55-.32,1.15-.48,1.44-.87,1-1.34,1.15-3.14,2.27-4.44,0,0,0-.09,0-.19l-.71-.4,1.19-.47-.38-.88,1-.18.8-1.11-1-.51a6.55,6.55,0,0,0,.88-.38,1.06,1.06,0,0,0,.43-.38A9.38,9.38,0,0,1,30,51.28c.41-.49.6-1.16,1-1.68s.79-.81.56-1.48c0-.09.11-.27.21-.37a13.84,13.84,0,0,0,1.12-1.18A15.55,15.55,0,0,0,33.75,45c.21-.38.44-.75.65-1.14.11-.19.15-.54.29-.58A1.72,1.72,0,0,0,35.76,42c.12-.36.31-.44.59-.59a2.51,2.51,0,0,0,.8-.79c.6-.84,1-1.87,2-2.38.34-.17.57-.58.84-.9.42-.5.84-1,1.23-1.52s.8-1.21,1.22-1.79c.16-.22.38-.52.6-.54a2.54,2.54,0,0,0,1.74-1.34,9.53,9.53,0,0,1,2.28-2.5.8.8,0,0,0,.31-.58c-.06-.59.3-.74.74-.74a1.94,1.94,0,0,0,1.66-1.17l-.75,0V27a8.21,8.21,0,0,0,1.11,0c.4-.06,1-.08,1.15-.34.76-1,1.93-1.26,3-1.78A19.62,19.62,0,0,0,57,23.08c.84-.61,1.62-1.31,2.41-2s1.31-1.28,2-1.86A14.27,14.27,0,0,1,63.13,18a7.44,7.44,0,0,1,1-.46l-.4-.85c.38,0,.73-.15,1,0,.81.42,1.42.07,2.11-.32a13.77,13.77,0,0,1,2.77-1.25c1.41-.4,2.87-.62,4.3-.94,1.73-.38,3.29-1.32,5.14-1.37a17.6,17.6,0,0,0,3.1-.78,25.92,25.92,0,0,0,4.14-1.62,6.52,6.52,0,0,1,1-.38c1.08-.23,2.16-.44,3.25-.62,1.36-.22,2.73-.4,4.1-.6l1-.17a7.69,7.69,0,0,1,3.72-.2,8.65,8.65,0,0,0,4.46-.24,6.59,6.59,0,0,1,3.76.09c.91.34,1.75.75,2.74.23.18-.1.56,0,.79.16,1.69,1,3.54.78,5.38.76.89,0,1.79.11,2.69.17a.39.39,0,0,1,.19.12c.71.77,1.7.7,2.6.84.46.08,1-.12,1.41,0,.74.15,1.45.48,2.19.64,1.55.34,2.88,1.24,4.51,1.45A19,19,0,0,1,133.7,14c.81.29,1.65.5,2.48.71a6.54,6.54,0,0,1,1.64.36c1.47.86,2.89,1.82,4.3,2.78.66.44,1.26.95,1.88,1.44a2.52,2.52,0,0,0,.43.32,7.08,7.08,0,0,1,3.23,3.08,12.1,12.1,0,0,0,1.67,2.16c.53.55,1.28.89,1.78,1.46a11.16,11.16,0,0,1,1.63,2.4c.39.83.76,1.6,1.71,1.81,1.21.27,1.7,1.2,2.16,2.19h-.76a.83.83,0,0,1-.21,1.23.91.91,0,0,0-.28.73.74.74,0,0,0,.58.4c.65,0,.59.31.36.72.79.12,1.14-.16,1-.73C157.07,34.26,156.83,33.48,156.6,32.7Z"/><path d="M153.92,138.38c1.33-.67,2.54-1.26,3.73-1.89a27.43,27.43,0,0,1,7.36-2.68,29,29,0,0,1,4.34-.59,21.15,21.15,0,0,1,4.43.09,41.1,41.1,0,0,1,7.56,1.7c1.13.39,2.34.54,3.49.89a11.24,11.24,0,0,1,2.17,1,9.43,9.43,0,0,1,3.91,3.25,5.34,5.34,0,0,1,.93,2.71c0,2,.26,3.94.35,5.92,0,.82-.11,1.66-.16,2.49,0,.21,0,.41,0,.61.06,1.24.12,2.47.17,3.7a.67.67,0,0,1-.13.43c-.73.58-.79,1.5-1.16,2.26a.77.77,0,0,0,0,.64.71.71,0,0,0,.61.19,12.13,12.13,0,0,1,4.12,0,53,53,0,0,1,7.18,1.55c.4.11.8.18,1.21.26a3.7,3.7,0,0,1,2.64,1.54,1.73,1.73,0,0,0,.7.45,3.15,3.15,0,0,1,1.68,1.89,11,11,0,0,0,.8,1.66,2.64,2.64,0,0,1,.11,2.65,2.74,2.74,0,0,0-.13.74l.94.24-.56-.89c.5,0,.88.74.78,1.4-.05.35.07.77-.07,1.06a4.1,4.1,0,0,0-.22,2.56c.11.79-.44,1.53-.2,2.39.1.36-.2.83-.31,1.25s-.31,1.1-.41,1.66a3.22,3.22,0,0,1-.87,2c-.23.19-.55.42-.35.88,0,.11-.3.41-.5.58a2.66,2.66,0,0,1-.64.25c.79.26.61.64.39,1-.4.71-.79,1.43-1.28,2.33-.14-1-.59-.95-1.2-.73a8.15,8.15,0,0,1-1.57.23,10,10,0,0,1,1.53.74c.22.14.46.63.37.75-.63,1-1.34,1.9-2,2.82a15.43,15.43,0,0,1-1.38,1.63c-.33.32-.83.47-1.2.76s-.9.78-1.35,1.18c-.07.06-.15.16-.24.18a3.55,3.55,0,0,0-2.5,1.64.43.43,0,0,1-.26.15c-1.63.3-3.23.9-4.93.62-.1,0-.23,0-.3-.06-.81-.75-1.45-.24-2.1.26a1.18,1.18,0,0,1-.51.32c-1.58.1-3.17.5-4.71-.28-.27-.13-.65,0-1-.08a16.72,16.72,0,0,0-4.79-.56c-1.46,0-2.92-.38-4.39-.52a25.22,25.22,0,0,0-3-.09c-.13,0-.35.4-.35.62a4.94,4.94,0,0,0,.23,1,7.11,7.11,0,0,1-1.62,6.27c-.77,1-1.7,1.79-2.43,2.77a7.7,7.7,0,0,1-2.65,1.93,13.17,13.17,0,0,1-1.37.76c-.24.1-.56,0-.9,0-.19,1.29-1.2,1.63-2.35,1.78-.13,0-.29,0-.38.05a6.18,6.18,0,0,1-2.91,1.07,15.13,15.13,0,0,1-3.62.13c-2.12-.16-4.22-.62-6.34-.64a30.82,30.82,0,0,1-5.45-.6,5.23,5.23,0,0,1-2.54-1.14,14.08,14.08,0,0,0-2-1.28,5,5,0,0,1-.76-.5c-1.08-1-2-.89-2.71.37-.44.75-1,1.41-1.54,2.11-.33.47-.67.93-1,1.41-.91,1.45-2.34,1.92-3.91,2.27a17,17,0,0,1-4.54.74c-.51,0-1-.07-1.53-.05a21.24,21.24,0,0,1-2.75.12c-1.4-.14-2.78-.44-4.16-.71-.54-.1-1.06-.35-1.6-.42a1.58,1.58,0,0,1-1.4-1.1,4.25,4.25,0,0,1-3-1.26L106,210.12c-1-.82-2-1.61-3-2.45a.59.59,0,0,0-.93.06,5.57,5.57,0,0,1-.51.46c-1.36,1.06-3,1.66-4.23,3a13.93,13.93,0,0,1-2.84,1.69c-.47.29-.87.71-1.33,1a28.36,28.36,0,0,1-4.85,3.19,17.86,17.86,0,0,1-5.2.85c-1.52.14-3.06-.06-4.57.08a37.75,37.75,0,0,1-7.21-.4,20.33,20.33,0,0,1-3.14-.71,1.21,1.21,0,0,1-.42-.3c-.13-.12-.23-.37-.36-.39-1.88-.26-3.11-1.74-4.72-2.52a7.12,7.12,0,0,1-2.57-1.86,7.47,7.47,0,0,0-1.91-1.7c-1.37-.92-1.73-2.59-2.85-3.7a11.11,11.11,0,0,1-1.44-2,19.53,19.53,0,0,1-1.29-2.32c-.25-.53-.35-1.12-1.07-1-.11-1.16-.18-2.27-.33-3.37-.09-.59-.43-.68-.83-.19-.26.31-.5.64-.77.95-.51.59-1,1.18-1.55,1.76-1,1.1-2,2.25-3.11,3.27-.41.38-1.14.42-1.67.71s-.91.7-1.39,1a12,12,0,0,1-1.41.77c-1.19.56-2.4,1.11-3.6,1.65a5.63,5.63,0,0,1-.94.35c-1.07.27-2.14.51-3.22.77a2.9,2.9,0,0,1-2.22,0c-.41-.21-1,0-1.51-.15a12,12,0,0,1-1.4-.45c-.83-.27-1.67-.48-2.48-.79A12,12,0,0,1,21.81,206c-.83-.66-2-.9-2.55-2-.22-.44-1-.61-1.46-.93a5.85,5.85,0,0,1-1.72-1.27c-.91-1.12-2.07-2-2.45-3.53-.07-.26-.45-.43-.57-.7A11.33,11.33,0,0,1,12,194.78c-.14-.94-.52-1.27-1.5-1.21a2.41,2.41,0,0,0,.58-2.15c0-.63.06-1.28,0-1.91-.07-.95-.21-1.9-.3-2.76,0-.51.05-.95.06-1.4s0-1,0-1.52-.13-.92-.19-1.38a2.27,2.27,0,0,1,0-.58,17.84,17.84,0,0,0,.29-1.78c0-.19.09-.73-.53-.53-.21.06-.53-.23-1-.46.35-.16.57-.35.71-.31,1,.29,1.46-.1,1.5-1.13a15.41,15.41,0,0,1,1.18-4.91c.22-.57.37-1.16.56-1.74a21.05,21.05,0,0,1,2.64-5.2c.56-.84,1-1.75,1.61-2.75.83,0,1.16-.94,1.8-1.47,1.5-1.24,2.95-2.53,4.42-3.8a6.56,6.56,0,0,0,.62-.67c.07-.08.08-.21.16-.26.85-.56,1.72-1.09,2.57-1.67s1.78-.74,2.31-1.64c0-.08.15-.13.23-.19,1.66-1.15,3.39-2.22,5-3.48a28.45,28.45,0,0,1,5.93-3.58,20.86,20.86,0,0,1,2.76-.86c.19.08.38.23.55.21,1.11-.17,2.21-.37,3.31-.58a8.76,8.76,0,0,0,2.45-.55,6.07,6.07,0,0,0,1.52-1.69c.61-.78,1.17-1.59,1.75-2.4L54.54,138l1.17-1.71-.59-1,.17-.19c.27.29.67-.31.93.21a1.19,1.19,0,0,0,.37-.18c1.06-1,2.14-2,3.16-3.13,1.3-1.37,2.56-2.79,3.81-4.21a.85.85,0,0,0,.16-.47c.72-.46,1.33-.81,1.9-1.21s1.38-1.14,2.13-1.6a36.34,36.34,0,0,1,3.65-1.93,25.12,25.12,0,0,1,3-1c1.54-.47,3.09-.92,4.63-1.37a.92.92,0,0,1,.46,0c1.22.34,2.54.3,3.65,1a.79.79,0,0,0,.5.16c1.49-.24,2.19.92,3.13,1.71.61.51,1.42.77,2,1.28,1,.88,1.93,1.9,2.93,2.8s1,2,1.45,3,.7.95,1.48.17c1.27-1.27,2-2.94,3.39-4.12a28.1,28.1,0,0,0,2.25-2.69c1-1.05,2-2,3-3,.1-.11.29-.21.31-.33.19-1.18,1.19-1.46,2.05-1.9a14,14,0,0,0,1.77-1,5.55,5.55,0,0,0,.82-1,9.35,9.35,0,0,0,1.35-.57c1.27-.73,2.51-1.51,3.77-2.25.33-.19.71-.3,1.06-.46,2-.89,4.14-.94,6.15-1.62.16,0,.27-.23.41-.36.64,0,1.4,0,2.16,0a4,4,0,0,1,1,.11c1.09.28,2.16.6,3.24.89.82.21,1.64.44,2.48.6,1,.2,2.12.36,3.19.52a13.91,13.91,0,0,1,5.16,1.92,11.47,11.47,0,0,0,1.08.48l.49-.61c.08.08.14.12.14.15-.05.34-.29.83-.14,1a11.7,11.7,0,0,0,1.66,1.48c1,.83,2.09,1.62,3.14,2.43.36.29.73.56,1.08.86a4.7,4.7,0,0,1,.61.65,8,8,0,0,0,.7.92c.85.8,1.69,1.63,2.62,2.35a3.54,3.54,0,0,1,1.4,2.78,3,3,0,0,0,.59,1.52,7.31,7.31,0,0,1,1.49,4.32,26.39,26.39,0,0,0,.44,2.9c0,.35,0,.72.08,1.07A8.34,8.34,0,0,0,153.92,138.38Zm-48.51,51.69c.26,0,.8-.24,1.1,0a2.9,2.9,0,0,1,1.34,1.39c.3,1.1,1.53,1.61,1.56,2.91a4.3,4.3,0,0,1,0,1.6c-.34,1-.72,1.91-1.11,2.86a6.05,6.05,0,0,1-.62,1.31c-.77,1.09-1.6,2.13-2.4,3.2-.48.63-.34,1,.4,1.22a3.65,3.65,0,0,1,1.3.51c1,.9,2,1.89,3,2.81s1.89,1.66,2.84,2.47a1.83,1.83,0,0,0,.6.28c.37.11.74.19,1.11.29a8.72,8.72,0,0,0,1.84.52c1.87.11,3.72.21,5.47-.87a21.23,21.23,0,0,0,4.73-3.57c.87-1,1.78-1.89,2.64-2.86.16-.18.31-.58.21-.73-.34-.54-.09-1.48-1-1.66-.07,0-.12-.16-.18-.24-.63-.87-1.27-1.72-1.87-2.6-1-1.39-1.93-2.77-2.79-4.21a6.3,6.3,0,0,1-.49-1.92c0-.14.1-.44.18-.45.65-.08,1.47-.38,1.93-.1,1.17.74,2.65.69,3.68,2a24.89,24.89,0,0,1,3.31,4.27,1.25,1.25,0,0,0,1.44.75,1.45,1.45,0,0,1,.81.08,3.07,3.07,0,0,1,1.34,2.53,3.27,3.27,0,0,0,1.91,2.89c1.22.58,2.39,1.27,3.59,1.88a5.68,5.68,0,0,0,1.68.65c2.38.34,4.77.64,7.16.88a7.68,7.68,0,0,0,2.19-.15c1.91-.36,3.34-1.74,5.09-2.46a20.41,20.41,0,0,0,2.46-1.36,4.24,4.24,0,0,0,.82-.56c.87-.84,1.75-1.67,2.57-2.56a16.49,16.49,0,0,0,1.87-2.3,11.75,11.75,0,0,0,.91-2.19c.26-.68.08-1-.66-1a10.77,10.77,0,0,1-5-1.41c-.67-.38-1.44-.66-1.65-1.58-.05-.24-.46-.49-.75-.57a1.81,1.81,0,0,1-1.22-1.46,10.46,10.46,0,0,1,0-4.59,2.41,2.41,0,0,1,.4-.82c.31-.48.67-.55,1.15-.15s1.27.86,1.89,1.32a2.64,2.64,0,0,1,.73.76c.27.49.34,1.14.71,1.51a1.71,1.71,0,0,1,.55,1.28c0,.88.25,1.13,1.16,1.2,1.5.11,3,.19,4.51.3.69.05,1.37.15,2.06.2a11.14,11.14,0,0,1,2.53.17,14.3,14.3,0,0,0,4.61.2,4.25,4.25,0,0,1,1.06.11c.53.12,1.06.32,1.59.45s1.2.26,1.79.41a8.2,8.2,0,0,0,3.69.27,20.36,20.36,0,0,1,4.12-.35,8,8,0,0,0,3.15-.37c.25-.1.55-.09.81-.17a2.94,2.94,0,0,0,1.08-.42c1.31-1.11,2.57-2.28,3.87-3.4.41-.36,1-.52,1.33-.93.67-.89,1.17-1.92,1.84-2.82a21.34,21.34,0,0,1,1.66-1.78,1.77,1.77,0,0,0,.47-.63c.34-1,.6-2.1.94-3.13s-.09-2.13.8-2.94a.22.22,0,0,0,0-.08,5,5,0,0,1,.22-2.4,13.46,13.46,0,0,0-.72-7.4,8.32,8.32,0,0,0-.65-1.46c-.85-1.28-2.48-1.18-3.62-2.13l-.08-.36a4.09,4.09,0,0,1-.46.25c-.23.11-.49.33-.67.28-.51-.15-1-.46-1.46-.62a1.29,1.29,0,0,0-.91,0,5.87,5.87,0,0,1-3.16.69,1.19,1.19,0,0,0-1,.36,1.61,1.61,0,0,1-1.58.73c-.16,0-.35-.09-.46,0-.54.34-1.06.72-1.6,1.07-1.5,1-3,1.93-4.5,2.85a27.11,27.11,0,0,1-3.42,1.88,26,26,0,0,1-3.79,1.28,21.28,21.28,0,0,1-4.35.95,42.64,42.64,0,0,1-6.08-.23c-2-.18-4-.5-5.93-.83-2.12-.35-3.82-1.66-5.58-2.74a23.28,23.28,0,0,1-3.9-3.49,3.84,3.84,0,0,1-.79-1.48,1,1,0,0,1,.29-.81,1.86,1.86,0,0,1,2.33,0,9.8,9.8,0,0,0,1,.76c.73.42,1.62.48,2.21,1.27.37.51,1.15.7,1.55,1.19a6.1,6.1,0,0,0,3.25,1.69,26.51,26.51,0,0,0,8.84.53,21.68,21.68,0,0,0,3.39-.88,6.59,6.59,0,0,0,2-.81,9.49,9.49,0,0,1,2.17-1.23,14.81,14.81,0,0,0,2.14-1.36l-.17-.11a2.88,2.88,0,0,1,.3-.72c.49-.62,1-1.21,1.53-1.82.75-.92,1.47-1.87,2.24-2.77s1.37-1.51,2.05-2.27a.86.86,0,0,0,.13-.36,17.93,17.93,0,0,0,.51-2.88,47.75,47.75,0,0,0-.2-5.07,37.91,37.91,0,0,0-.63-3.79c-.21-1.1-.42-2.2-.72-3.27a3.07,3.07,0,0,0-.73-1.05c-.87-1-2.1-1.15-3.29-1.4a12.17,12.17,0,0,1-2-.49c-1.47-.58-2.89-1.35-4.56-1l-.9.15c-1.57.2-3.16.29-4.69.62a35.89,35.89,0,0,0-4,1.33,3.16,3.16,0,0,0-.5.34c-.29.17-.57.34-.87.49-1.5.73-3.07,1.36-4.49,2.22a25.06,25.06,0,0,1-2.39,1.83,7.86,7.86,0,0,0-1.5,1.3c-1.19,1-2.33,2.14-3.61,3.06-.87.63-1.55,1.78-2.91,1.5-.94-.2-1.88-.41-2.82-.65-.13,0-.24-.25-.32-.39a1.84,1.84,0,0,1,.53-2.42c1-1,2.07-2,3.13-3,.86-.79.86-.92.25-1.87a2.47,2.47,0,0,1-.28-1.15c-.05-.74,0-1.49,0-2.23-.16-1.48-.39-2.95-.59-4.43-.12-.88-.23-1.77-.38-2.66,0-.15-.21-.27-.32-.41a5.24,5.24,0,0,1-1-1.51,7.24,7.24,0,0,0-2.27-3.8c-1.77-1.56-3.52-3.15-5.28-4.72a4.73,4.73,0,0,0-.71-.45,18,18,0,0,1-2.63-1.54,7.5,7.5,0,0,0-3.89-2,23.49,23.49,0,0,1-2.81-.69c-.39-.1-.79-.23-1.19-.31a9.67,9.67,0,0,1-1.8-.31,3.69,3.69,0,0,0-2.18-.1c-.87.18-1.78.18-2.67.34a8.6,8.6,0,0,0-2.44.64c-1.56.82-3,1.81-4.55,2.72a27.33,27.33,0,0,0-3,1.82c-1.22,1-2.3,2.13-3.44,3.2-.2.2-.42.52-.64.53-1,.06-1.44.79-2,1.46-.28.36-.64.66-1,1-.75.84-1.48,1.7-2.24,2.54a10.34,10.34,0,0,1-1.53,1.57A8,8,0,0,0,98.08,134a3.13,3.13,0,0,1-.2.49,13.55,13.55,0,0,0-2.57,4.62,6.88,6.88,0,0,1-2.46,3.27,7.87,7.87,0,0,0-2.09,2.5c-.67,1.3-1.45,1.78-2.74.89-.38-.26-.41-.47-.25-.89,1-2.66,2-5.34,3-8a2.26,2.26,0,0,1,.17-.35l1.57-2.54a3.55,3.55,0,0,1-2.7-2.18c-.31-.64-.36-1.52-1.22-1.87-.16-.06-.16-.51-.26-.76a4.33,4.33,0,0,0-.66-1.51,7.74,7.74,0,0,0-2.6-2c-.75-.24-1.29-.72-2-1a2.94,2.94,0,0,0-1.61,0,21.63,21.63,0,0,0-8,3.26c-1,.75-2,1.56-3,2.38s-1.85,1.59-2.76,2.4c-1.39,1.22-2.75,2.45-4.15,3.65-.64.55-1.36,1-2,1.58-.85.81-1.62,1.72-2.45,2.56-1.56,1.58-3.13,3.13-4.68,4.72-.06.06,0,.41.08.44a5.24,5.24,0,0,0,1.8.63c2.46,0,4.48,1.2,6.46,2.44a2.39,2.39,0,0,1,1,1.73,7.67,7.67,0,0,0,1,3.26,2.76,2.76,0,0,1,.3,2.27,4.74,4.74,0,0,0-.36,1.46c0,1-.37,1.51-1.39,1.66-.3,0-.6.14-1,.22-.91-.61-.92-.61-.51-1.69.33-.87.69-1.71,0-2.61a13.23,13.23,0,0,1-.79-1.49c-.42-.8-.71-1.76-1.94-1.61-.1,0-.22-.21-.33-.33l.1-.13.53.09A2.08,2.08,0,0,0,57.7,149c-.79-.09-1.58-.11-2.35-.25a15.89,15.89,0,0,0-6.48.25c-.52.12-1.1,0-1.6.18A7.5,7.5,0,0,0,43.94,151a1.28,1.28,0,0,1-.41.18,9.56,9.56,0,0,0-1.2.45c-.58.33-1.11.74-1.67,1.1l-1.86,1.21c-.55.37-1.11.72-1.62,1.13a9.21,9.21,0,0,0-.91,1,2.17,2.17,0,0,1-.45.41c-.25.16-.54.25-.79.41-.64.41-1.27.83-1.89,1.27-1.11.77-2.27,1.48-3.32,2.34-1.42,1.16-2.79,2.4-4.12,3.67a16.78,16.78,0,0,0-2.3,2.68,35.17,35.17,0,0,0-2,3.74c-.1.2,0,.5,0,.78a4.19,4.19,0,0,0-1.63,2.29c-.22.5-.27,1.09-.49,1.59a3.28,3.28,0,0,0-.51,2c.06.33-.22.71-.34,1.08a7.44,7.44,0,0,0-.38,1.3c-.09.59-.08,1.2-.12,1.8a16.08,16.08,0,0,1-.11,1.84,3.85,3.85,0,0,0,.39,2.94,2.76,2.76,0,0,0-.39.73c-.07.43,0,.87-.06,1.31a6.41,6.41,0,0,0-.1,1.89c.4,1.42-.25,2.88.35,4.3.29.7.3,1.51,1.08,1.93a.87.87,0,0,1,.33.4,19.88,19.88,0,0,0,1.06,2c.43.62,1.07,1.08,1.48,1.71s1.56.62,1.81,1.54c0,0,0,0,.07,0,.91.32,2,.39,2.55,1.34,0,.06.19.06.29.1.32.15.64.29.95.45.93.48,1.77,1.61,2.93.39.05-.05.15,0,.23-.06.85-.16,1.72-.3,2.56-.51.31-.08.82-.33.81-.5,0-.72.48-.7.89-.66a2.62,2.62,0,0,0,2.12-.7,1.37,1.37,0,0,1,.55-.18c.45-.12.9-.22,1.34-.35.27-.08.52-.21.78-.31a5.35,5.35,0,0,0,1.18-.45,13.72,13.72,0,0,0,1.65-1.4c.69-.65,1.59-1.14,1.7-2.25,0-.15.26-.32.44-.39a6,6,0,0,0,2.41-1.91c.35-.4.68-.82,1-1.21.57-.62,1.15-1.23,1.72-1.86a.65.65,0,0,0,.15-.35c0-.76.08-1.51.09-2.27a24.77,24.77,0,0,1,0-2.59,1.47,1.47,0,0,1,.75-1,3.74,3.74,0,0,1,1.73-.07c.89.14,1.76.41,2.63.63a.83.83,0,0,1,.32.2,3.66,3.66,0,0,1,1.12,3.54,6.34,6.34,0,0,0,.12,1.42,4.54,4.54,0,0,1,0,1.64,1.81,1.81,0,0,0,.13,1.68,1.48,1.48,0,0,1,.16.59c.11.86.18,1.72.29,2.58a12,12,0,0,0,.37,2.17A15.41,15.41,0,0,0,59,202c.75,1.42,1.27,3,2.85,3.85.13.06.19.29.27.44a6.31,6.31,0,0,0,.64,1.24,11.5,11.5,0,0,0,1.38,1.32,26.3,26.3,0,0,0,2.64,2.22c1.27.86,2.69,1.49,4,2.35a5.46,5.46,0,0,0,3.36.88c2-.08,4-.17,6-.28a5.27,5.27,0,0,0,1.43-.22,30.15,30.15,0,0,0,3.1-1.13,17.58,17.58,0,0,0,1.93-1.19l1.34-.88.84-.55c.19-.13.38-.26.56-.4,1.1-.86,2.53-1.23,3.44-2.37a2.42,2.42,0,0,1,.76-.51,11.21,11.21,0,0,0,2.15-1.28c1.28-1.24,2.49-2.57,3.65-3.94a22.35,22.35,0,0,0,3.66-5.68c.53-1.28,1.07-2.56,1.61-3.84C104.82,191.45,105.08,190.86,105.41,190.07Z"/></g></g></svg>