<svg xmlns="http://www.w3.org/2000/svg" viewBox="0 0 157.9 418.06"><title>Mouse</title><g id="Layer_2" data-name="Layer 2"><g id="Layer_1-2" data-name="Layer 1"><path d="M120.87,382.9c0-.84-.05-1.69,0-2.54.13-1.89.41-3.79.46-5.68.15-6.79.13-13.58.38-20.36.13-3.26.78-6.49,1.1-9.75.39-4,.67-8.08,1-12.12.17-1.89.38-3.78.67-5.66.84-5.37,1.6-10.76,2.64-16.09,1.14-5.82,2.48-11.61,3.9-17.36,1.15-4.62,2.48-9.21,3.9-13.76.62-2,1.93-3.84,2.45-5.88,1.73-6.7,3.06-13.51,4.88-20.17,1.15-4.19,3.14-8.15,4.35-12.33a96.56,96.56,0,0,0,1.87-10.07c0-.25.07-.66-.06-.75-1.62-1.07-1.06-2.73-.9-4.07.51-4.45-.79-8.47-2.33-12.51a32.8,32.8,0,0,1-1.56-5.41c-.13-.69.42-1.51.7-2.41l-1.32-.7.74-1.55a15.71,15.71,0,0,1-1.23-2.54,10,10,0,0,0-6.56-6.87c-6.48-2.44-13-4.75-19.7-6.58-3.66-1-7.63-.81-11.44-1.33-4.08-.55-8.14-1.27-12.19-2a4.6,4.6,0,0,1-1.62-.85c-1.73-1.2-2.4-1-2.76,1.14-.43,2.48-.64,5-.93,7.51-.44,3.76-1.08,7.51-1.27,11.29-.27,5.5-.49,11-.25,16.53.27,6.25.76,12.45-.89,18.61-.86,3.24-3.07,5.24-5.56,7.1a12.73,12.73,0,0,1-1.26.75c-.14,5.25.6,10.63-5.33,13.33-1.75-.94-1.88-2.44-1.91-3.85-.08-3.09.08-6.18-.06-9.27a5.41,5.41,0,0,0-1.08-3.29c-2.16-2.3-2.43-5-2.57-7.92-.29-5.91-.81-11.81-1-17.72-.1-3.61.3-7.24.37-10.86.06-3-.15-6,0-8.92a52.81,52.81,0,0,1,.84-7.73A30.85,30.85,0,0,1,71.5,180c1-1.64,2.92-3.28,2.17-6-.59-2.12-.32-4.49-.33-6.75a41.76,41.76,0,0,1,.27-5.6,86.18,86.18,0,0,1,1.68-9.87c.84-3.32,2.1-6.54,3.27-9.77s2.47-6.53,3.75-9.77c2.1-5.33,4.55-10.53,6.27-16,2.26-7.11,3.29-14.54,2-22a45.07,45.07,0,0,0-7.53-17.71c-1.49-2.2-2.76-4.55-4.1-6.85-2.39-4.13-6.33-4.9-10.62-4.92a1.79,1.79,0,0,0-2,2,15.49,15.49,0,0,1-4.6,10.63c-1.44,1.51-2.15,3.73-3.62,5.19-1.8,1.78-4.21,2.93-6.06,4.66-3.91,3.68-8.11,1.91-12.3,1a1.48,1.48,0,0,1-.81-.42C36.21,84.5,33,81.36,34.23,76.41a3.94,3.94,0,0,0,.08-.77c0-.09-.07-.18-.11-.28-1.7.34-3.39.75-5.1,1a10.55,10.55,0,0,1-10.94-5.57c-.34-.68.1-1.76.18-2.65.68.33,1.66.46,2,1,2,3.09,4.66,3.85,8,2.68,3.63-1.28,7.59-2,10.77-4.06,4.1-2.59,7.7-6.09,8.66-11.35a15.29,15.29,0,0,1,.73-2.16c4.13,3.4,4.35,5.73,1.75,10.1a20.51,20.51,0,0,1-10.64,9.21c-2.21.81-3.51,5.23-2.38,7.27,2.22,4,5.69,5.21,10.45,3.48,6.06-2.19,10-6.54,12.62-12.31.61-1.35,1.55-2.57,2.11-3.94,1.27-3.17,2.35-6.42,3.62-9.6a19,19,0,0,1,5.65-7.24c1.27,1.2,1.42,2.32.56,3.66-1.26,2-2.46,3.95-3.69,5.93l.38.68a43.51,43.51,0,0,0,7.11.22,62.44,62.44,0,0,0,10.69-2.22c1.84-.58,3.39-2.15,5-3.39a15,15,0,0,0,2.43-2.54,9.64,9.64,0,0,0,.9-2.2c1.74-1.77,2.58-4.29,2.1-7.62a5.41,5.41,0,0,1,1.66.46,10.41,10.41,0,0,1,2,1.87c1,1.2,2,2.2,3.69,2a1.23,1.23,0,0,1,.73.24c3.17,2.41,6.8,1.65,10.21,1.18a17.64,17.64,0,0,0,10.74-5.29c3.37-3.56,3.69-7.59,2.66-12a6.91,6.91,0,0,0-.68-2,12.79,12.79,0,0,0-2.13-2.76,17.62,17.62,0,0,0-2.95-1.79c-1.05,1.74-2.12,3.35-3,5a5.77,5.77,0,0,1-8.53,1.56,9.11,9.11,0,0,1,1.28-1.54,19.77,19.77,0,0,0,7.92-15c0-.92.14-1.84.11-2.76a9.17,9.17,0,0,0-10.28-8.47c-3,.43-6,.61-8.87,1.23a16.48,16.48,0,0,0-10.23,6.25,4.85,4.85,0,0,1-5,1.83l.75-3.46a26.53,26.53,0,0,0-15.2-5.76,28.88,28.88,0,0,0-10.51,2,27.54,27.54,0,0,0-8.09,4.64c-3.21,2.61-4.36,6.43-4.47,10.53,0,1.9-.1,3.8-.22,5.7A1.72,1.72,0,0,1,46,28.52a3.24,3.24,0,0,1-1.07-1.46c-.79-2.38-1.61-4.74-1.15-7.37C45,12.58,47.82,6.52,54.67,3.15A28.89,28.89,0,0,1,71,.19c4.4.5,8.69,1.4,12.36,4a42.45,42.45,0,0,1,4.23,3.94,10.86,10.86,0,0,1,.82.95C91.51,4,96.71,3.18,101.69,2c1.65-.4,3.32-.71,5-1,5.54-1.06,9.62,1.6,13.29,5.26.44.44.79,1,1.23,1.39,4,3.82,4.07,8.58,3.27,13.55-.14.85-.34,1.7-.54,2.66.76.36,1.43.72,2.13,1,2.69,1.09,4.3,4.33,5,7s.45,5.2.57,7.83c.16,3.23-.34,5.81-3,7.75a12.18,12.18,0,0,1-2,.92c-1.22.6-2.71,1-3.59,1.9-2.43,2.59-5.49,3.23-8.76,3.39-1.63.08-3.28-.09-4.92-.13a11.9,11.9,0,0,1-8.72-3.93,7.66,7.66,0,0,0-1-.68c-1.18,4.6-2.68,8.59-6.82,11.52s-8.34,3.48-13,4.4c2.43,3.23,4.78,6.31,7.07,9.43,3.28,4.46,6.77,8.79,9.66,13.49,1.74,2.83,2.59,6.23,3.7,9.42a41.79,41.79,0,0,1,1.45,5.65,31.85,31.85,0,0,1,.27,3.67c.15,1.86.43,3.71.46,5.56a40.11,40.11,0,0,1-.36,5.14c-.05.37-.55.69-.83,1s-.76.8-.69.9c1.31,1.88-.93,2.79-1.11,4.24a2.13,2.13,0,0,0,0,.59,54.56,54.56,0,0,0-2.38,6,14.09,14.09,0,0,1-3.36,6.21A21.47,21.47,0,0,0,91,140.37c-.68,1.21-1.29,2.47-1.85,3.73-.74,1.64-1.43,3.31-2.09,5-.83,2.08-1.62,4.19-2.42,6.29-1.81,4.74-1.82,9.66-1.45,14.62.09,1.27.21,2.55.33,4a5.27,5.27,0,0,1,4.9,4.21c.54,2.62,2.13,2.41,3.92,2.6,3.64.38,7.27.92,10.91,1.28,4.34.44,8.8.3,13,1.24a177.16,177.16,0,0,1,19.42,5.6,20.6,20.6,0,0,1,10,8c2.49,3.57,5.32,6.94,7.48,10.69a28.82,28.82,0,0,1,2.9,8.41c.84,4,1.31,8,1.75,12.08a38.94,38.94,0,0,1-.14,5.39c-.13,3.43-.09,6.87-.41,10.28-.47,4.8-1.08,9.58-1.87,14.33a51.43,51.43,0,0,1-2.18,8.16c-1.87,5.48-3.88,10.91-5.91,16.33-2.52,6.73-5.25,13.38-7.6,20.17-.93,2.67-1.09,5.61-1.6,8.43-.61,3.42-1.36,6.83-1.79,10.28-.51,4.12-.68,8.29-1.13,12.42-.49,4.44-1,8.88-1.72,13.3-.91,5.94-1.79,11.91-3,17.78s-2.8,11.36-4.41,17a10.48,10.48,0,0,1-3.93,5.55c-2.42,1.79-3.59,4.35-4.52,7.17a17,17,0,0,1-3.1,5.23c-4.93,5.95-10.64,10.83-18,13.78A44.77,44.77,0,0,1,87.58,416c-2.76.5-5.42,1.62-8.19,1.93a35,35,0,0,1-7.56-.38,37.08,37.08,0,0,1-4.07-1.09c-1.81-.42-3.64-.8-5.47-1.13-2-.36-4.1-.52-6.1-1a23.66,23.66,0,0,1-6.33-2.09A67.86,67.86,0,0,1,42,406.55a49.52,49.52,0,0,1-5.79-5.12A61.3,61.3,0,0,1,32,395.71c-.88-1.21-1.73-2.43-2.68-3.59-1.31-1.6-2.78-3.09-4-4.74a49.92,49.92,0,0,1-4.84-7A25.69,25.69,0,0,1,18,372.85c-1.19-7.55-2.1-15.15-3.09-22.74A13.09,13.09,0,0,1,15,348c.17-5,.49-10,.48-15,0-4.81-.15-9.64-.64-14.42a144.65,144.65,0,0,0-2.34-14.9c-.75-3.52-2.08-6.92-3.15-10.37-.67-2.17-1.32-4.34-2.06-6.48-.48-1.4-1.15-2.73-1.69-4.11a16.85,16.85,0,0,1-.72-2.32c-.56-2.53-1-5.09-1.65-7.61-.57-2.33-1.51-4.6-1.85-7C1,262.88,1,259.91.82,257c-.2-2.74-.59-5.47-.7-8.21s.05-5.52.08-8.27c0-.61,0-1.22,0-1.83a65.66,65.66,0,0,1,.85-17.14c.88-4.74,1.52-9.54,2.65-14.22a41.66,41.66,0,0,1,3.47-9.53,20.28,20.28,0,0,1,6.88-8c3.12-2,6.24-4,9.44-5.84,2.42-1.41,5-2.56,7.44-3.93,2.7-1.53,5.62-1.77,8.63-1.93,2.14-.11,4.24-.84,6.38-.9,3.16-.09,6.46-.38,9.45.4a66,66,0,0,0,10.29,1.65c.78.07,1.48.93,2.22,1.43-1.67,2.79-4.07,1.81-5.93,1.56a63.86,63.86,0,0,0-16,0c-3.5.41-7,.52-10.48,1.19-3.22.61-6.67,1.22-9.39,2.86a20.63,20.63,0,0,0-7.8,7.69c-1.16,2.16-2.51,4.21-3.77,6.31-1.89,3.17-2.1,6.73-2.35,10.27a108.09,108.09,0,0,0-.54,11.07A81,81,0,0,0,13,232.47a47.07,47.07,0,0,0,1.68,5.71c1.46,4.87,2.85,9.76,4.39,14.6,1.42,4.46,3.33,8.79,4.44,13.32,1.84,7.55,3.39,15.19,4.75,22.85,1.43,8.09,2.71,16.23,3.64,24.39.67,6,.73,12,.94,18,.12,3.48,0,7,0,10.47-.07,5.05-.14,10.1-.28,15.15-.08,2.67-.51,5.34-.44,8,.14,5.29.6,10.58.78,15.87.11,3.36.33,6.67,1.9,9.72A19.81,19.81,0,0,0,37.17,395c2.33,2.56,4.62,5.16,7.83,6.83s6.11,4.1,9.37,5.76a41.9,41.9,0,0,0,9,3.25,41.83,41.83,0,0,0,10.49,1.53,76.93,76.93,0,0,0,16.21-1.63,37.19,37.19,0,0,0,15.53-8c1-.9,2.31-1.53,3.41-2.37,4.12-3.09,6.57-7.38,8.62-12a25.52,25.52,0,0,1,2.63-4,17.22,17.22,0,0,1,1.16-1.4Zm-93.62-1.81.47-.22c-.11-2.09-.35-4.18-.29-6.26.14-5,.52-9.91.62-14.87.07-3.1-.28-6.22-.3-9.33,0-1.65.35-3.31.39-5,.06-3.11,0-6.22,0-9.33a14.86,14.86,0,0,0-.18-2c-.26-1.9-.63-3.8-.81-5.71-.33-3.46-.53-6.93-.84-10.39-.07-.68-.51-1.32-.59-2-.52-4.11-1-8.22-1.45-12.34-.08-.66,0-1.32-.06-2a23.27,23.27,0,0,0-.2-3.35c-.54-2.78-1.29-5.51-1.81-8.29-.81-4.37-1.39-8.79-2.3-13.14-.78-3.74-1.81-7.44-2.87-11.11-1.79-6.24-3.78-12.43-5.53-18.69-1.46-5.26-2.77-10.57-4-15.89-.56-2.4-.83-4.87-1.26-7.49-.25.27-.48.4-.49.55-.3,2.9-.73,5.79-.8,8.7-.07,3.06.32,6.14.32,9.21,0,4.42-.06,8.84-.29,13.26-.27,5.22.79,10.25,2.08,15.21,1,3.75,2.48,7.37,3.78,11s2.85,7.58,4.07,11.44a117.72,117.72,0,0,1,3.47,12.44A128.23,128.23,0,0,1,20.88,322c.46,6.64.11,13.32.32,20,.17,5.59.51,11.18,1,16.75a81.28,81.28,0,0,0,4.17,20.81A10.29,10.29,0,0,0,27.25,381.09ZM77.94,175.25l1.86-1.34.67.21c0-1.52,0-2.91,0-4.3-.07-2-.53-4.06-.23-6C81,159,81.74,154.16,84,149.65q5.82-11.46,11-23.25a49.27,49.27,0,0,0,3.66-11.85,51.43,51.43,0,0,0,0-11.83c-.16-2.06-1.18-4-1.8-6.08-.57,3.81-.57,7.47-1,11.08a37.31,37.31,0,0,1-1.77,8.1c-1.37,3.94-3.16,7.73-4.71,11.61-1.07,2.67-2,5.38-3.06,8.07-2.53,6.13-5.48,12.08-6.95,18.65A76.16,76.16,0,0,0,77.94,175.25ZM71.26,195l-.61.13c0,2.56-.06,5.11.06,7.66,0,.37.85,1,1.31,1a6.17,6.17,0,0,0,5.25-2.14,1.6,1.6,0,0,1,1.17-.49c.2,0,.61.75.51.94-.66,1.21-1.17,2.86-2.23,3.41-1.7.89-3.79,1-5.88,1.53-.13,1.12-.31,2.5-.45,3.87a10.73,10.73,0,0,0,0,1.7c.13,2.62,1.45,3.61,4.13,3.07.75-.16,1.47-.47,2.23-.65.6-.14,1.23-.18,1.86-.27l.34.51c-.94,1.09-1.69,2.77-2.86,3.15-1.66.54-3.63.14-5.39.14V225c3.42.14,7.69-1.37,9.54-3.15V196.8C77.05,197.64,73.81,198,71.26,195Zm11-8.77c-3.69,2.45-6.3.48-9.11-1.16-.57,1.93-1.06,3.57-1.55,5.21l.83-.52c.39.7,1.17,1.45,1.09,2.08-.28,2.22,1,2.72,2.72,2.87s3.9.25,4.67-1.52C81.74,191.21,81.76,188.93,82.25,186.18Zm-1.13,38.68-.65-.2c-2.55,3-5.94,3.71-9.54,3.67-.57,2.94,0,5.06,1.71,5,2.65-.1,5.26-1.19,7.88-1.87.11,0,.22-.25.23-.39C80.88,229,81,226.93,81.12,224.86Zm60.24,57.34c3-5,10.1-29.94,9.41-32.19C147.28,260.4,142.26,270.51,141.36,282.2Zm-70.5-46.51a17.68,17.68,0,0,0,.39,2.23,28.88,28.88,0,0,0,1.84,4.77c.71,1.26,2.28,1.09,3.5.24,2.17-1.52,2.7-3.66,2.74-6.31C76.32,238.71,73.64,237.64,70.86,235.69Zm11.66-53.35a6.62,6.62,0,0,0,.28-2.2,3,3,0,0,0-1.14-1.94c-2.24-1.17-3-.86-4.27,1.3-.18.3-.63.49-.7.79a4.39,4.39,0,0,0-.26,2.3c.43,1,1.35,1.36,2.55.81A26.69,26.69,0,0,1,82.52,182.34Z"/><path d="M108.93,303.48c2.68-2.34,5.12-5.09,8.12-6.91s5-5.37,8.78-6c.59,1.61-2.74,5.46-5.1,6.29l.34.45L116,301.16c.86,1.38.87,2.47-.83,3.19-.26.11-.23,1.14-.18,1.73.13,1.41.47,2.82.5,4.23,0,.53-.58,1.08-1,1.77.44,1.84,0,2.21-2.06,1.82-.26,0-1,.82-1,1,.89,2,0,4.45,1.41,6.35a1.68,1.68,0,0,1,.36,1.16,2.54,2.54,0,0,1-.82,1.54,1.67,1.67,0,0,1-1.52-.48c-.86-1.06-1.55-2.27-2.42-3.58-1.46,1.54,0,2.67.25,3.85.14.84,1.09,2,.82,2.34a20.23,20.23,0,0,1-3.32,2.8l-1.84-1.93a53.06,53.06,0,0,1,1.84,5.4c.43,1.85,2,3.58.91,6l-1.72-2.06a4.63,4.63,0,0,0,0,1.35c.22.57.75,1.07.82,1.64s-.11,1.66-.43,1.76a3.51,3.51,0,0,1-2-.33c-.27-.1-.41-.55-.84-1.15-.07,2.19,0,3.85,1.61,5.26a10.81,10.81,0,0,1,2,3.09,1.3,1.3,0,0,1-.51,1.22,2.25,2.25,0,0,1-1.47-.3,18.37,18.37,0,0,1-2-1.35,267.1,267.1,0,0,1-3.44,37.58l-.75,0a9.68,9.68,0,0,1-.5-2.54c.18-2.55.61-5.08.76-7.63s0-4.9.14-7.34a28.3,28.3,0,0,1,.74-6.67c1.4-4.57.94-9.18,1-13.8.08-3.95.38-7.9.48-11.85,0-1.84-.19-3.7-.22-5.55-.05-3.2,0-6.4-.07-9.6-.21-6.26,3.07-10.81,7.11-15a2.61,2.61,0,0,0,.43-.94c.11-.33.18-.68.27-1Z"/><path d="M53.25,337.73c-.65-.67-1.3-1-1.36-1.47a3.45,3.45,0,0,1,.53-1.84c.17-.33.91-.52.9-.76s-.42-.74-.72-1.06-.59-.3-.74-.54c-.37-.55-1-1.22-.87-1.72s1-.7,1.59-1a9.53,9.53,0,0,1,1.09-.43c-1.14-1.86-2.16-3.66.14-5.49-.79-.85-1.56-1.59-2.22-2.41a4.33,4.33,0,0,1-.44-1.3,5.15,5.15,0,0,1,1.43.16,7.75,7.75,0,0,1,1.37.94l.57-.33a7.59,7.59,0,0,0-1.07-2,29.26,29.26,0,0,0-2.58-1.92,2.59,2.59,0,0,1-.83-1.09c-1.43-4.17-2.85-8.34-4.16-12.54-.16-.51.34-1.23.56-1.94-.86-1.52-3.35-2.46-2.23-5-1.64-2.64-3.26-5.24-4.87-7.85-.6-1-.65-2.13.43-2.47a3,3,0,0,1,2.57.87,22,22,0,0,1,2.3,3.74c3.51,6,7.35,11.9,10.43,18.13a24.69,24.69,0,0,1,2.35,14.87,1.86,1.86,0,0,0,0,.62c.83,4-1,7.7-1.13,11.6-.13,4.61-.47,9.23-.93,13.83-.31,3.1-1,6.15-1.51,9.24-.9,5.74-1.76,11.48-2.65,17.23-.07.44-.21.88-.32,1.32l-.52.16c-.26-.64-.8-1.3-.75-1.9.47-5.12,1-10.24,1.59-15.35.23-2.1.62-4.19.78-6.29.07-.86-.4-1.76-.42-2.65a6.13,6.13,0,0,1,.39-3.06c.95-1.54,1.25-2.71-.17-4.15-.44-.44-.23-1.54-.28-2.34,0-.16.33-.44.29-.5C50.42,339.25,51.77,338.45,53.25,337.73Zm-2.93-31.87.63-.44-3.05-3.57-.49.41Z"/></g></g></svg>