<svg xmlns="http://www.w3.org/2000/svg" viewBox="0 0 139.43 232.12"><title>padlock</title><g id="Layer_2" data-name="Layer 2"><g id="Layer_1-2" data-name="Layer 1"><path d="M139.33,150v8.85l-.16,0a2.88,2.88,0,0,1,.26.87c0,2.22-.13,4.43-.13,6.65,0,2.64.14,5.29.12,7.93s-.08,5.28-.25,7.92c-.13,2-.47,4-.69,6a19.52,19.52,0,0,1-.23,2.88c-.32,1.24,0,2.47-.15,3.69s-.26,2.43-.48,3.62c-.07.36-.45.66-.69,1a1.48,1.48,0,0,0-.4.84l.36-.32c.2.95.4,1.87.61,2.8,0,.17.17.37.11.5a7.1,7.1,0,0,1-.66,1.21c-.11.14-.42.13-.54.28-.75,1-1.41,2-2.24,2.86-.46.5-.69,1.6-1.82,1.09-.08,0-.3.16-.4.3-.46.62-.87,1.27-1.35,1.87-.08.1-.43,0-.74,0l.27.66-4,2.05,0,0a21.1,21.1,0,0,1-1.84,1.17,25.49,25.49,0,0,1-2.5,1.13c-.35.14-.78.08-1.12.22a11.27,11.27,0,0,0-1,.65l-2.92,1.48c-2.27,1.2-4.52,2.44-6.81,3.6-1.15.58-2.38,1-3.56,1.53-1.77.78-3.51,1.63-5.3,2.37-.5.21-1.13.07-1.66.23-1,.32-2,.78-3,1.1-.82.25-1.71.31-2.54.57-1.28.39-2.52.88-3.69,1.3-.47.09-.85.18-1.24.23-1.16.18-2.34.24-3.47.52-1.61.4-3.18,1-4.78,1.44a7.78,7.78,0,0,1-1.65.33c-1.88.13-3.77.17-5.65.31-1.1.09-2.2.39-3.3.42-1.46,0-2.92-.11-4.38-.12-1.25,0-2.49.06-3.74.06-1.9,0-3.81-.07-5.71-.1a5.66,5.66,0,0,1-1.3,0c-2.71-.67-5.4-1.44-8.12-2.07s-5.29-1-7.91-1.67a45.85,45.85,0,0,1-4.53-1.45c-2.87-1-5.74-2.05-8.6-3.12-2.43-.91-4.86-1.84-7.26-2.83s-4.76-2.1-7.16-3.13a26.74,26.74,0,0,1-3.22-1.3A24.83,24.83,0,0,1,5.3,214.1a4.28,4.28,0,0,0-.88-.6,3.35,3.35,0,0,1-2-2.73c-.31-1.91-.56-3.82-.72-5.74s-.11-3.74-.29-5.59c-.22-2.26-.58-4.5-.85-6.76,0-.39,0-.8,0-1.2-.12-2.95-.34-5.89-.34-8.84,0-2.09.41-4.17.46-6.27,0-1.86-.19-3.73-.23-5.6,0-2,0-4.06,0-6.1,0-1.75.07-3.5,0-5.25a1.17,1.17,0,0,0-.31-.61c0-1.77,0-3.33,0-4.88S0,150.67,0,149c0-2.21,0-4.42,0-6.63,0-.37.07-.73.08-1.1.13-3.45.19-6.89.39-10.34.16-2.7.47-5.4.72-8.13l-.9-.28c1.54-.91,1-2.34,1-3.59.13-2.22.36-4.44.36-6.66,0-2-.26-4.06-.36-6.09a13.19,13.19,0,0,1,.21-1.36c.1-1.35.19-2.7.23-4,0-.2-.24-.41-.17-.3.15-1,.23-1.62.36-2.29a11.65,11.65,0,0,0,.41-1.62c.06-1.36,0-2.73,0-4.09a2.57,2.57,0,0,1,0-.61C3.17,88.94,4,86,4.79,83a26.75,26.75,0,0,0,1-4,5.16,5.16,0,0,1,2.31-3.67c2-1.51,4.07-3,6.13-4.43a1.85,1.85,0,0,1,.94-.24c1,0,2,0,2.62-1.16.14-.28,1.07-.17,1.64-.23.12,0,.27.07.38,0,.51-.19,1-.42,1.52-.63-.34-.71,0-1.93-1.55-2.05.23-.15.5-.46.7-.43,1.11.21,1-.8.87-1.13a2.22,2.22,0,0,1,0-1.9c.33-1.17.28-2.44.51-3.64.4-2-.17-4.11.74-6.07.71-1.55,1.29-3.15,1.9-4.75a11.43,11.43,0,0,0,.36-1.57l-.95.08c.29-.32.41-.58.61-.66,1.2-.49,1.42-1.12.79-2.37a.54.54,0,0,1,0-.35c.37-1.19.78-2.36,1.13-3.56.09-.27,0-.61.06-.89s.31-.76.43-1.14.48-1.09.35-1.53c-.27-1,.44-1.54.72-2.29a11.74,11.74,0,0,0,.31-1.31c.34-.48.69-1,1.06-1.51.78-1.07,1.59-2.11,2.35-3.19,1.3-1.85,2.57-3.72,3.84-5.59a3.83,3.83,0,0,0,.34-.9c.75.11,1.15-.41,1.61-1.09a14,14,0,0,1,2.24-2.5c2.28-2.08,4.62-4.1,6.94-6.14.05,0,.13-.11.14-.18.51-2.43,2.83-3.2,4.36-4.67a5.89,5.89,0,0,1,1.53-.74L52.05,6c2,0,3.47-1.23,5.08-2.24a27.81,27.81,0,0,1,3.7-1.62C61.9,1.63,62.92,1,64,.65A8.19,8.19,0,0,1,68.85.19a9.46,9.46,0,0,1,4,1.46,1.15,1.15,0,0,0,1,.13c1.34-.89,2.83.08,4.2-.4.27-.1.75.29,1.1.5,1.67,1,3.44.54,5.2.45,1-.05,2.06.09,3.19.15,0,1.09.83,1,1.67,1.19A6.33,6.33,0,0,1,93.1,6c.82,1,2.26,1.44,3.42,2.13l.2-.29-.17-.52a3.15,3.15,0,0,1,.73.23c1.2.75,2.41,1.49,3.58,2.3.66.46,1.2,1.09,1.85,1.58a19.86,19.86,0,0,1,3.43,2.58c1.51,1.84,3.78,3.2,3.78,6.14,0,1.15,1,2.3,1.54,3.46l1.68,3.56c.63,1.31,1.31,2.6,1.88,3.93a9.63,9.63,0,0,1,.28,1.65q.56,2.61,1.16,5.21a.94.94,0,0,0,.25.55c1.61,1.09,1.2,2.81,1.32,4.32.21,2.55,0,5.15.47,7.66a20.49,20.49,0,0,1-.1,6.9,12.8,12.8,0,0,0,.42,3.53,10,10,0,0,1,.37,3.34,2.22,2.22,0,0,0,1.12,2.57,21,21,0,0,0,2.7,1.74c.92.46,2,.66,2.91,1.08,1.3.56,1.82,1.76,2.39,3,.68,1.43,1.54,2.77,2.32,4.14,1.2,2.15,2.54,4.24,3.57,6.47.51,1.12.42,2.52.67,3.78.15.72.48,1.41.6,2.14a13.9,13.9,0,0,1,0,1.83c.08,1.17.16,2.35.28,3.52.05.43.23.84.29,1.27.34,2.4.68,4.79,1,7.2.15,1.21.23,2.43.34,3.65s.23,2.44.27,3.66c.06,2,0,4.09.11,6.13a35,35,0,0,0,.74,3.43c.07.36-.15.76-.16,1.15-.05,2.21-.11,4.42-.09,6.63,0,3,.11,6.07.26,9.1s.44,6.21.67,9.31c.07.92.17,1.83.19,2.75a4.8,4.8,0,0,1-.27,1.15ZM5,136.4a2.59,2.59,0,0,0-.27.83c0,.65.14,1.3.11,1.94-.12,2.21-.37,4.41-.42,6.61-.06,2.55,0,5.1.08,7.64a3.52,3.52,0,0,0,.23,1,4.34,4.34,0,0,0-.36,1.31c.12,1.59.3,3.18.47,4.77a3.57,3.57,0,0,1,.09,1.16c-.27.89-.59,1.72.57,1.9a10.47,10.47,0,0,0-.55,1.9,11.88,11.88,0,0,0,0,3.42c.6,2.81-.46,5.63.24,8.41,0,.12-.11.28-.14.43a26.78,26.78,0,0,0-.76,3.62c-.13,1.62,0,3.26-.06,4.89a32.46,32.46,0,0,0-.27,3.52c.14,1.93.58,3.84.75,5.77s.13,3.69.19,5.54c.05,1.57.07,3.16.19,4.73.1,1.14-.2,2.51,1.36,3a2.52,2.52,0,0,1,.44.31,35.61,35.61,0,0,0,4,2.65c1.31.64,2.82.82,4.19,1.34,1.56.58,3.05,1.34,4.58,2s3.28,1.37,4.95,2c1.52.59,3.07,1.12,4.61,1.66,2.5.89,5,1.76,7.5,2.66.36.13.66.43,1,.54.64.2,1.31.31,2,.48.13,0,.24.18.36.19a37.18,37.18,0,0,1,4.09.14,29.42,29.42,0,0,1,3.5,1c3.11.87,6.23,1.74,9.35,2.57a3.46,3.46,0,0,0,1.59.13,8.56,8.56,0,0,1,3-.48,60.56,60.56,0,0,0,7.5.35c1.94,0,3.88-.24,5.82-.36,1.22-.08,2.45-.22,3.67-.2s2.61.2,3.91.31c4,.32,7.55-1.11,11.18-2.34.18-.07.43.06.65.1l3.8-1.18a27.87,27.87,0,0,0,6.53-3.14c1.35-.85,2.75-1.64,4.15-2.4,1.83-1,3.71-1.91,5.53-2.92,1.63-.9,3.15-1.92,5.11-2.15,2.42-.28,4.41-1.73,6.55-2.8a13.23,13.23,0,0,0,5.3-4.86c.72-1.12,1.36-2.29,1.92-3.25.51,0,1,.12,1.08,0a1.38,1.38,0,0,0,.17-.94c-.14-1.88-.43-3.76-.46-5.65-.06-3.32,0-6.65,0-10,0-2.84-.06-5.68-.07-8.52,0-.78.11-1.56.13-2.33,0-1.19,0-2.38,0-3.56a2.83,2.83,0,0,0,0-1.12c0-.55.1-1.12.09-1.67,0-2-.16-4-.19-6,0-2.94.07-5.88,0-8.81s-.44-6.08-.64-9.12c-.12-1.93-.15-3.87-.25-5.81a49.09,49.09,0,0,1-.31-6.51c.21-2.47-.09-4.93.31-7.42a44.27,44.27,0,0,0,.07-7c0-1.33,0-2.67-.11-4-.09-2-.25-3.9-.35-5.86-.06-1.19,0-2.4-.11-3.59-.16-1.54-.51-3.06-.67-4.6-.21-2.07-.38-4.15-.47-6.23s-.09-4.27-.15-6.41c0-.45-.1-.89-.18-1.64l-3.39,2.49c-.15.24-.51.22-.79.36-1.54.78-3,1.67-4.6,2.39a11.79,11.79,0,0,1-2.71.73,5.36,5.36,0,0,0-3.53,2c-.1,0-.29-.22-.39-.18-1.32.58-2.67,1.11-3.93,1.82-1.82,1-3.49,2.34-5.38,3.19a41.87,41.87,0,0,1-6.5,2.13,23.54,23.54,0,0,1-4.2.53c-.65,0-1.32-.14-2-.15a4.86,4.86,0,0,0-4,1.37c-.8.83-2.43.93-3.71,1.23-1.6.37-3.21.65-4.83.9-2,.3-4,.49-5.93.81-1,.16-2.05.48-3.08.73-.23.17-.53,0-.82.07-1.47.13-3,.36-4.43.44a65.17,65.17,0,0,1-8.49.23,95.25,95.25,0,0,1-10.45-1.61c-3.45-.67-7-1.08-10.26-2.53a69.21,69.21,0,0,0-7-2.14c-1.74-.55-3.44-1.21-5.17-1.81s-3.22-1.09-4.83-1.65c-.46-.16-.9-.36-1.35-.55-.9-.38-1.78-.83-2.73-.14,0,0-.08,0-.15-.09l.34-.57c-.54-.29-1.05-.78-1.53-.75-1.1,0-1.46-.6-2-1.36-.2-.3-1-.23-1.54-.26-.17,0-.34.35-.53.37-1.38.11-2.78.27-3.7-1.15a.89.89,0,0,0-.34-.3,6.61,6.61,0,0,0-.74-.28,2.83,2.83,0,0,0,0,.77,17.51,17.51,0,0,1,.84,3.09,32.09,32.09,0,0,1-.27,4.14c-.11,1.59-.25,3.18-.32,4.77-.08,2-.11,4.07-.15,6.1,0,.82,0,1.64,0,2.46-.12,1.62-.28,3.25-.47,4.87-.09.69-.35,1.35-.44,2a4.88,4.88,0,0,0,.07,1.26c0,.22.19.44.18.65-.13,1.73-.33,3.46-.43,5.18-.12,2-.17,4-.22,6,0,.74.09,1.48.07,2.22S5.05,135.5,5,136.4ZM119.32,69.82a11.48,11.48,0,0,1,.17,2.22c-.29,1.94-.79,3.87-1,5.82-.15,1.44-1.34,2-2.1,2.84a5.55,5.55,0,0,1-1.4,1.09,12.33,12.33,0,0,0-2.68,1.48,3.69,3.69,0,0,1-2.67,1.19c-1.29.05-2.58.2-3.87.26a2.89,2.89,0,0,1-.92-.32,12.15,12.15,0,0,0-2.15-.74c-.95-.16-1.79-.85-1.64-1.78.22-1.45-.68-1.78-1.74-2.15s-2-.73-2-2Q97.21,72.32,97,67a1.09,1.09,0,0,0-.51-.81,23.14,23.14,0,0,0-2.92-1c-1.46-.36-2.94-.63-4.4-1a44.55,44.55,0,0,0-9.93-1.48,23,23,0,0,0-2.75.2c-1.35.18-2.7.44-4,.62-.88.12-1.77.13-2.65.23-1.14.13-2.28.42-3.42.45a34.62,34.62,0,0,0-9.43,1.52c-.73.22-1.42.58-2.16.76-2.3.6-4.6,1.17-6.91,1.68-1.12.25-2.09,1.4-3.39.57-.07,0-.43.19-.42.29a.91.91,0,0,0,.27.61,2.33,2.33,0,0,0,.82.23c-1.61.64-1.82,1.12-1.33,2.77a.59.59,0,0,1,0,.37c-.46,1.25-1,2.48-1.38,3.77a11.3,11.3,0,0,0,0,2.18c-.11,1.65-.24,3.3-.41,4.95a4.64,4.64,0,0,1-.4,1.41,4,4,0,0,1-.83,1.26,14,14,0,0,1-2.74,2.22c-.92.48-2.11.41-3.09.81-1.35.55-1.53.66-2.79.2l-.15,0a24.69,24.69,0,0,1-3.93-1.6,9.49,9.49,0,0,1-2.78-2.65,51.16,51.16,0,0,1-3.13-5.49A7,7,0,0,1,21.66,78a8.14,8.14,0,0,0-.1-1.41,9.22,9.22,0,0,0-1-1.55c-.5.24-1.2.56-1.89.91-1.66.84-3.38,1.6-5,2.59A18.07,18.07,0,0,0,10.76,81,2.2,2.2,0,0,0,10,82.26c-.1,1.14,0,2.3,0,3.59l.48.29-.27.2c.28.41.46,1,.84,1.19,1.61.68,3.27,1.21,4.91,1.8a3.75,3.75,0,0,0,1.52,1.31c2.24.81,4.52,1.53,6.79,2.25,1.46.47,2.92,1,4.41,1.31,1.32.3,2.73.28,4,.66,1.95.57,3.82,1.41,5.75,2a12.83,12.83,0,0,0,2.41.33c.56,0,1.12.27,1.68.26,1.59,0,3.17-.14,4.76-.24.75,0,1.61-.4,2.23-.16,2.35.93,4.76.7,7.18.73,1.54,0,3.08.11,4.61.26,1.18.12,2.34.41,3.51.57a9.11,9.11,0,0,0,2.69.18q4.4-.82,8.73-1.91c3.15-.79,6.14-2.17,9.46-2.3,1.39-.06,2.78-.31,4.17-.5s3.06-.15,4.21-1a4.86,4.86,0,0,0,1.46.38,41.33,41.33,0,0,0,4.85-.69c2.25-.49,4.48-1.11,6.69-1.76a41.28,41.28,0,0,0,4.83-1.7c1.58-.7,3.09-1.56,4.6-2.41,1.07-.61,2.09-1.32,3.28-2.09,1.83-.1,3.18-1.72,5-2.39l-.62-.69,4.46-2.38s-.14-.22-.28-.48c-.47-.89-.94-1.78-1.4-2.68a9.18,9.18,0,0,0-.44-1,7.35,7.35,0,0,0-2.68-2.54C122.37,71.9,121,70.88,119.32,69.82ZM49.23,15.64a6.94,6.94,0,0,0-1.95.92C45.6,18.23,44,20,42.41,21.74c-1,1.06-2,2.11-2.89,3.22-.56.66-.94,1.46-1.44,2.17a36.83,36.83,0,0,0-2.34,3.27c-.89,1.63-1.54,3.39-2.38,5.05A2.44,2.44,0,0,0,33,37.72,2.51,2.51,0,0,1,33.1,39c-.32,1.78-.7,3.54-1.05,5.31-.14.66,0,1.51-.44,1.93C30,48,29.76,50.34,29.07,52.46a28.36,28.36,0,0,0-.52,3.5c-.41,2.21-1.43,4.32-1,6.66A4,4,0,0,1,27.66,64c-.15,1-.53,2.08-.58,3.13-.1,2.11-.12,4.23,0,6.34a7.91,7.91,0,0,1-.78,4c-.69,1.37-.39,2.53.8,2.8.61.76,1.1,1.29,1.52,1.89,1.2,1.7,2.47,3.3,4.75,3.58.73.09,1.51.48,2.16.3A9.87,9.87,0,0,0,38,84.64c.09,0,.07-.39,0-.57-.11-.37-.27-.71-.43-1.11l-.56.3c-.14-.27-.37-.5-.39-.75a25.57,25.57,0,0,1-.18-4c.11-1.36.66-2.68.81-4,.29-2.63.47-5.28.64-7.92.08-1.22,0-2.46,0-3.69a2.63,2.63,0,0,0,.61-1.24c.14-1,.23-2,.29-3,0-.5-.12-1-.06-1.51.11-1-.73-2.3,1-2.75.13,0,.24-.33.29-.52.22-1,.44-2,.63-3,.28-1.47.49-2.95.81-4.41.25-1.13.6-2.24.94-3.35.1-.33.31-.62.42-1,.74-2.12,1.29-4.34,2.23-6.37,1.19-2.6,2.69-5.05,4.09-7.62l-.27-.1c.64-.62,2.07-.6,1.11-1.78a11.57,11.57,0,0,0,1.64-.89c.44-.32.72-.88,1.16-1.19,1.79-1.27,3.59-2.51,5.43-3.7a13.22,13.22,0,0,1,2.42-1.18c1-.36,2-.59,3-.91,1.23-.4,2.43-.93,3.68-1.24a12.24,12.24,0,0,1,2.58-.12c1.25,0,2.51,0,3.77,0a24.36,24.36,0,0,1,3.82.38,16.19,16.19,0,0,1,3.32,1.11,13.86,13.86,0,0,1,2.32,1.49,11.22,11.22,0,0,1,2.74,2.24c.71,1,1.16,2.11,2.5,2.54a5.75,5.75,0,0,1,2.21,1.3c1.63,1.54,3.21,3.15,4.7,4.83a31.74,31.74,0,0,1,3.89,4.95,9.11,9.11,0,0,1,1.35,5.24c-.1,1.66,1,3.35,1.23,5.07.4,3.06.53,6.14.77,9.22.11,1.38.21,2.77.35,4.15.08.86.23,1.72.35,2.58l-.09,0v3.47h0l.07,1.47a2.44,2.44,0,0,1,0,.85c-.1,2.4-.21,4.8-.26,7.21a9.38,9.38,0,0,0,.21,2.81,11.77,11.77,0,0,0,1.37,2.32,1.12,1.12,0,0,0,1.84.41,1.4,1.4,0,0,1,.54-.25c2.67-.42,4.32-2.5,6.38-3.91a2.63,2.63,0,0,0,.6-.89c.27-.45.51-.92.8-1.46l.41.79.38-.09c-.11-.47-.23-.94-.32-1.41a2.12,2.12,0,0,1,0-.71c.09-.55.45-1.18.29-1.64a5.56,5.56,0,0,1-.26-3.78,8.94,8.94,0,0,0-.25-5.91,5.38,5.38,0,0,1-.26-1.19c-.17-2.13.75-4.24,0-6.37,0-.13.05-.3.06-.46,0-.6.06-1.2,0-1.8-.06-1.4-.16-2.8-.22-4.19-.09-1.76.16-3.61-.32-5.25-.63-2.14-1.6-4.15-2-6.39a31.24,31.24,0,0,0-1.77-5.14c-.45-1.13-1-2.2-1.6-3.28a18.51,18.51,0,0,0-1.77-3.29,18.45,18.45,0,0,0-3.25-3.05,8.28,8.28,0,0,1-2.62-3.51,7.17,7.17,0,0,0-4.47-4,15.5,15.5,0,0,1-4.71-3,10.15,10.15,0,0,0-3.37-1.72C86.36,8.13,84,7.62,81.63,7c-1.72-.43-3.43-.91-5.17-1.26a7,7,0,0,0-2.09,0c-.81.08-1.76.58-2.4.31a8.06,8.06,0,0,0-4.71-.16c-1.3.21-2.62.33-3.91.59-.66.14-1.26.59-1.93.71-1.87.32-3.48,1-4.25,2.66H56c-.37,0-.8-.12-1,0a4.4,4.4,0,0,0-1.71,1.45c-.38.82-.61,1.58-1.6,1.87a2.69,2.69,0,0,0-1,.82C50.08,14.62,48.84,14.62,49.23,15.64Zm7,16.13c-.89.93-1.93,1.91-2.84,3a21.85,21.85,0,0,0-1.9,2.83c-.8,1.36-1.6,2.72-2.27,4.15a39,39,0,0,0-1.43,3.83,24.33,24.33,0,0,0-1.12,3.65c-.19,1.11.05,2.29-.08,3.42a11,11,0,0,1-.79,2.52c-.12.31-.64.5-.69.79-.34,2.3-.63,4.6-.92,6.9a1.89,1.89,0,0,0,0,.48l2.16-.22a3.93,3.93,0,0,0,.67-.19c1.61-.49,3.2-1,4.83-1.46,2.63-.69,5.28-1.38,7.94-2A26.75,26.75,0,0,1,64.15,59c1,0,2.07.18,3.11.23.21,0,.43-.22.37-.19l2.54-.12a25.76,25.76,0,0,1,2.91-.07c2.79.24,5.58.49,8.35.88,2,.27,3.93.72,5.88,1.18s3.68.93,5.5,1.49a15.88,15.88,0,0,1,3.24,1.33c.42.24.52,1,.77,1.54a4.64,4.64,0,0,0,.05-1.89c-.18-1.81-.35-3.62-.56-5.42-.1-.83-.31-1.64-.46-2.46-.29-1.62-.58-3.24-.86-4.87-.19-1-.27-2.09-.56-3.09-.56-1.91-1.29-3.77-1.84-5.68-.22-.76,0-1.67-.25-2.37a15.69,15.69,0,0,0-3.25-5.22c-1.1-1.11-2.1-2.34-3.27-3.37-.69-.59-1.69-.8-2.44-1.34A23.13,23.13,0,0,1,80,26.78c-1-1.1-1.38-3-3.38-3-.13,0-.24-.19-.38-.24-.56-.23-1.22-.73-1.67-.59-1.84.57-3.83-.06-5.63,1.09-1.56,1-3.49,1.4-5.2,2.19-2.36,1.11-5,1.73-6.75,3.92A8.52,8.52,0,0,0,56.22,31.77Z"/></g></g></svg>