<svg xmlns="http://www.w3.org/2000/svg" viewBox="0 0 345 331.49"><defs><style>.cls-1{fill:#fff;}.cls-2,.cls-3{fill:none;stroke:#000;stroke-miterlimit:10;}.cls-2{stroke-width:10px;}.cls-3{stroke-width:6.93px;}</style></defs><title>Safe</title><g id="Layer_2" data-name="Layer 2"><g id="Layer_2-2" data-name="Layer 2"><path class="cls-1" d="M95.1,266.06,64.5,328h-38l30-62,.14-.83a61.67,61.67,0,0,0,10.14.83Z"/><path class="cls-1" d="M278.51,266.06l25,62h-42l-23-62h40Z"/><path class="cls-1" d="M221.49,133a29,29,0,1,1-20-8A28.91,28.91,0,0,1,221.49,133Z"/><path class="cls-1" d="M278.51,266.06H66.78A61.73,61.73,0,0,1,5,204.28V66.78A61.78,61.78,0,0,1,66.78,5H278.22A61.78,61.78,0,0,1,340,66.78v137.5A61.78,61.78,0,0,1,278.51,266.06Zm10-82.47V88.36a42.78,42.78,0,0,0-42.79-42.78H99.29A42.78,42.78,0,0,0,56.5,88.36v95.23a42.78,42.78,0,0,0,42.79,42.78H245.71A42.78,42.78,0,0,0,288.5,183.59Z"/><path class="cls-2" d="M95.1,266.06H66.78A61.73,61.73,0,0,1,5,204.28V66.78A61.78,61.78,0,0,1,66.78,5H278.22A61.78,61.78,0,0,1,340,66.78v137.5a61.78,61.78,0,0,1-61.49,61.78h-40"/><path class="cls-3" d="M245.71,226.37H99.29A42.78,42.78,0,0,1,56.5,183.59V88.36A42.78,42.78,0,0,1,99.29,45.58H245.71A42.78,42.78,0,0,1,288.5,88.36v95.23A42.78,42.78,0,0,1,245.71,226.37Z"/><polyline class="cls-3" points="56.5 266.06 26.5 328.03 64.5 328.03 95.1 266.06 238.54 266.06 261.5 328.03 303.5 328.03 278.51 266.06 278.5 266.03"/><path class="cls-3" d="M230.5,154a29,29,0,1,1-9-21A28.88,28.88,0,0,1,230.5,154Z"/><line class="cls-3" x1="201.5" y1="113.03" x2="201.5" y2="125.03"/><line class="cls-3" x1="241.5" y1="154.03" x2="230.5" y2="154.03"/><line class="cls-3" x1="201.5" y1="193.03" x2="201.5" y2="183.03"/><line class="cls-3" x1="161.5" y1="154.03" x2="172.5" y2="154.03"/><polyline class="cls-3" points="221.48 133.03 221.49 133.02 228.99 125.52"/><line class="cls-3" x1="223.02" y1="173.47" x2="231.54" y2="181.99"/><line class="cls-3" x1="179.17" y1="135.53" x2="171.58" y2="127.95"/><line class="cls-3" x1="181.03" y1="174.57" x2="172.54" y2="183.07"/></g></g></svg>