<svg xmlns="http://www.w3.org/2000/svg" viewBox="0 0 202.77 193.78"><title>Shield</title><g id="Layer_2" data-name="Layer 2"><g id="Layer_1-2" data-name="Layer 1"><path d="M56.68,138.19c1.94,1.25,1.92,3.18,1.92,4.93a11.39,11.39,0,0,1-1.14,5.2,2.5,2.5,0,0,1-.68,1,11.7,11.7,0,0,1-4.32,2c-1.23.2-2.42.58-3.63.87a4.68,4.68,0,0,1-.9.14c-2.08.07-4.16,0-6.21.23a9.36,9.36,0,0,1-3.71-.43,50.82,50.82,0,0,1-5.3-1.8,12.13,12.13,0,0,1-2.6-1.78c-1.37-1.08-2.75-2.15-4-3.33a8.74,8.74,0,0,1-1.32-2,6.25,6.25,0,0,1-.68-1.37,5.79,5.79,0,0,1,0-1.35,2.5,2.5,0,0,0-1-.07,22.21,22.21,0,0,0-3.94,1.4c-2.11,1.11-4.29,2.16-5.81,4.16-1.37,1.8-2.95,3.46-4.24,5.32a15.37,15.37,0,0,0-1.31,3.29,14.24,14.24,0,0,1-1.44,3.49C5,160,5.22,162,5.53,164a56.57,56.57,0,0,0,1.76,7.6,18.27,18.27,0,0,0,2.13,4c.26.41.93.54,1.33.89a10.38,10.38,0,0,1,1.08,1.17c.48.26.92.48,1.33.73.7.43,1.41.84,2.07,1.33a1.9,1.9,0,0,1,.68.93c.14.59.4.69,1,.72a5.59,5.59,0,0,1,1.91.57c1.8.8,3.56,1.67,5.37,2.45a2.65,2.65,0,0,0,1.4.15c2.92-.41,5.89-.49,8.71-1.54a40.18,40.18,0,0,1,4.57-1.4,9.36,9.36,0,0,0,4.58-3.17,55,55,0,0,0,4-5.33c.83-1.18,1.55-2.45,2.33-3.67a1.18,1.18,0,0,1,2.07.28A15.91,15.91,0,0,1,53.24,174a6.59,6.59,0,0,1-.88,3.4,31.06,31.06,0,0,1-2.86,4.72,17.68,17.68,0,0,1-7.06,5.63c-4,1.83-8.18,2.34-12.41,2.84-2.34.28-4.7.33-7.06.46a2.69,2.69,0,0,1-1.1-.14c-3.09-1.22-6.42-2-9-4.17A39.62,39.62,0,0,1,7.75,182a29.29,29.29,0,0,1-3.15-5.23,22.28,22.28,0,0,1-2-4.52c-.89-3.22-1.51-6.52-2.29-9.78s.21-6.34,1.09-9.39a30.57,30.57,0,0,1,1.77-4,2,2,0,0,0,.18-.58c.24-2.32,1.7-4,3.08-5.69,1.25-1.51,2.69-2.88,4.07-4.29.8-.82,1.61-1.65,2.49-2.4.33-.27.89-.26,1.28-.48A35.47,35.47,0,0,1,22,132.49c0-.8,0-1.58,0-2.35-.19-3.51.89-6.78,2-10a21.07,21.07,0,0,1,1.64-2.58,19.77,19.77,0,0,1,4.16-5.06,84.92,84.92,0,0,1,7.26-6.13,22.47,22.47,0,0,1,4.06-2c-.47-1.09-1.07-2.39-1.59-3.72-.82-2.07-1.59-4.16-2.39-6.24-.89-2.29-1.81-4.56-2.69-6.86C33.28,84.44,32,81.33,31,78.15a24.51,24.51,0,0,1-.6-4.5c-.2-1.57-.4-3.14-.62-4.71-.06-.43-.16-.86-.24-1.29-.42-2.25-.87-4.5-1.25-6.76-.31-1.84-.55-3.69-.78-5.54-.17-1.46-.31-2.93-.4-4.4a17.4,17.4,0,0,1,.12-2,6.13,6.13,0,0,0,0-1.21,26.22,26.22,0,0,0-.84-4.18A5.75,5.75,0,0,1,25.8,41,28.84,28.84,0,0,0,26,35.4a17.6,17.6,0,0,1,.09-3.26A8.5,8.5,0,0,1,30.34,25c1.61-1,3-2.35,4.57-3.49.89-.66,1.87-1.19,2.79-1.8s2-1.44,3-2a37.45,37.45,0,0,1,3.38-1.62c2.06-.93,4.18-1.72,6.17-2.78s4.23-1.57,6.29-2.51c2.3-1.06,4.59-2.16,6.93-3.12,1.29-.52,2.7-.76,4-1.19a14.17,14.17,0,0,0,1.76-.86,8.85,8.85,0,0,0,1.48-.22,27.64,27.64,0,0,1,6.58-1.32,37.49,37.49,0,0,0,5.52-1,1.35,1.35,0,0,0,.74-.64c.05-.1-.29-.42-.33-.79L84.6,2.78c2.16-.14,4.31-.12,6.4-.45,1.4-.22,2.85.29,4.2-.44.27-.15.81.2,1.33.35L96.25.06,96.48,0c.14.42.28.85.44,1.26A1,1,0,0,0,98.25,2c1.08-.23,2.22-.2,3.3-.43a2,2,0,0,0,1.31-.9c.45-.94,1-.45,1.59-.49l.08.28-1,.24v1l4.84.43c1.73.16,3.44.37,5.17.48,2.06.12,4.12.13,6.19.25a26.42,26.42,0,0,1,3.44.38c2.31.41,4.63.84,6.9,1.39,2,.5,4,1.2,6,1.76,1.58.44,3.22.73,4.79,1.23,2.38.77,4.71,1.7,7.07,2.51a24.83,24.83,0,0,1,2.79.75c2.59,1.27,5.12,2.68,7.69,4,.94.48,1.94.84,2.89,1.31,2,1,4,2.15,6.12,3.09,1.22.55,1.26,1.65,1.37,2.59a52,52,0,0,1,.33,6c0,1.6-.3,3.21-.17,4.8.19,2.24.64,4.45,1,6.68a39.32,39.32,0,0,1,.07,8.47c-.1,1.8,0,3.6,0,5.4s-.3,3.46-.31,5.19c0,2.87-1.11,5.6-.75,8.55.23,1.92-.33,3.93-.52,5.9-.11,1.19-.17,2.39-.29,3.58a20,20,0,0,1-.39,2.69c-.46,1.89-1,3.76-1.51,5.64a1.59,1.59,0,0,1-.07.2c-.6,1.63-1.23,3.26-1.78,4.91-.29.86-.31,1.81-.63,2.66s-.95,1.9-1.4,2.86c-.34.73-.23,1.25.71,1.36a12,12,0,0,1,1.9.35c1.29.36,2.56.76,3.82,1.16a5.88,5.88,0,0,1,1.58.6c1.87,1.22,3.69,2.51,5.52,3.77.2.13.44.39.6.35,1.17-.27,1.75.75,2.37,1.27,2.28,2,4.44,4.07,6.54,6.23a7.77,7.77,0,0,1,2.35,4.13c.07.48.46.91.58,1.39.49,2,1.29,4,1.28,5.94,0,1.64.6,3.43-.44,5-1.28,2-1.79,4.43-3.54,6.15a17,17,0,0,1-1.77,1.53,21.42,21.42,0,0,1-2.7,1.84c-1.86,1-3.63,2.15-5.84,2.39a9.21,9.21,0,0,1-6-1.23c-.95-.59-2.3-1.06-2.65-2.41a5.24,5.24,0,0,1-.21-1.09c0-.73.38-.78.95-.51s1.22.53,1.83.8c1.89.85,3.7.28,5.48-.36a16.26,16.26,0,0,0,4.22-2.76,12.31,12.31,0,0,0,3-3.39,12.59,12.59,0,0,0,1.74-8.58,9.91,9.91,0,0,0-4.52-6.71A43.29,43.29,0,0,0,171,108c-1.51-.6-2.9-1.64-4.56-1.92-2.36-.4-4.76-.63-6.91-.91-1.74,3.72-3.3,7.17-5,10.57-.78,1.58-1.88,3-2.62,4.59-1.33,2.88-3.43,5.23-5.12,7.85-1.2,1.86-2.3,3.78-3.56,5.6-1.1,1.6-2.33,3.12-3.55,4.63-1.7,2.12-3.37,4.27-5.19,6.28s-3.61,3.52-5.34,5.35c-2.78,2.94-5.46,6-8.23,8.93-1.18,1.26-2.49,2.41-3.74,3.6a13.45,13.45,0,0,1-1,1,18.5,18.5,0,0,1-2.44,1.75,8.8,8.8,0,0,0-3.22,2.8,3.76,3.76,0,0,1-3.13,1.64c-.93.05-1.83.4-2.75.5a3,3,0,0,1-1.24-.29c-.59-.23-1.17-.5-1.75-.76-.12-.06-.3-.1-.34-.2-.53-1.14-1.7-1.39-2.65-2-2-1.25-4.09-2.51-6-3.89-2.85-2-5.61-4.14-8.42-6.2-2.18-1.59-4.41-3.12-6.56-4.75a22.39,22.39,0,0,1-2-2c-1.89-1.82-3.83-3.6-5.66-5.48-1.68-1.71-3.32-3.46-4.85-5.3-2.26-2.73-4.38-5.58-6.62-8.33-.75-.91-1.77-1.59-2.52-2.5-1.21-1.47-2.33-3-3.42-4.6A32.78,32.78,0,0,1,49,118.47c-.83-1.89-2.26-3.29-3.19-5-.23-.42-.45-.85-.72-1.25-.73-1.08-1.05-1.25-2.16-.54-1.74,1.11-3.41,2.34-5,3.6a26.24,26.24,0,0,0-3.59,3.13,46.92,46.92,0,0,0-3.23,4.4c-.39.55-.66,1.2-1.09,1.71a9,9,0,0,0-1.92,5.26,42.2,42.2,0,0,0,.28,5.74,12.78,12.78,0,0,0,1.46,5.11c.6,1.21,1.15,2.53,2.53,3a12.06,12.06,0,0,0,3.41.87,50.1,50.1,0,0,0,11.9-1,16.79,16.79,0,0,0,4.74-1.6A22.61,22.61,0,0,0,55.92,139,9.14,9.14,0,0,0,56.68,138.19ZM112,65.74c-.1.76-.14,1.31-.25,1.84-.48,2.29,1,4.56,0,6.86,0,0,0,.06,0,.1,0,1.1.09,2.22,0,3.32-.19,2.64-.46,5.28-.67,7.92-.08,1-.08,2.1-.12,3.15a26.77,26.77,0,0,0-.17,5.2,39.1,39.1,0,0,1,.15,7.25c-.07,2.32-.41,4.63-.47,7-.06,2.14.11,4.28.17,6.41,0,1.37.14,2.73.13,4.1,0,3.13,0,6.26-.08,9.4,0,1.67-.14,3.34-.08,5,0,1.38.38,2.76.44,4.15.12,2.34.13,4.68.17,7,0,2.63.12,5.26.09,7.89,0,1.11-.31,2.21-.4,3.31-.07.9,0,1.81,0,2.55l2.25-.34a1.05,1.05,0,0,0,.48-.16c.71-.58,1.4-1.16,2.09-1.76,1-.88,2-1.75,3-2.65.39-.35.72-.77,1.14-1.23l.38.17a6.07,6.07,0,0,1,.55-1.31,12.78,12.78,0,0,1,1.27-1.28c.17-.16.38-.46.52-.44.87.14,1.12-.46,1.42-1a2.52,2.52,0,0,1,.46-.52c.77-.75,1.6-1.44,2.28-2.25s1-1.93,2.33-1.92c-.22-.67-.42-1.24.5-1.26.1,0,.26-.2.28-.32a1.85,1.85,0,0,1,1.65-1.62,2.07,2.07,0,0,1,.2-.66c.43-.53.93-1,1.34-1.55.68-1,1.31-1.94,2-2.9a7.3,7.3,0,0,0,.9-1.21c.6-1.43,1.88-2.39,2.42-3.93.4-1.18,1.64-2,2.44-3.11.32-.41.4-1,.69-1.43a22,22,0,0,1,1.45-1.77,17.22,17.22,0,0,0,3.1-5.79h.72a5.42,5.42,0,0,1,.33-.92c.91-1.6,1.84-3.19,2.75-4.78a3.54,3.54,0,0,0,.17-.58,7.62,7.62,0,0,1,.44-1.06c.21-.35.67-.64.7-1,.19-2,1.63-3.45,2.28-5.26.58-1.61,1.54-3.08,2.14-4.69.54-1.45.76-3,1.21-4.51.86-2.83,1.79-5.63,2.66-8.46.38-1.21.72-2.45,1-3.68a26.28,26.28,0,0,0,.6-2.77c0-.15-.38-.42-.63-.55s-.35.08-.26.06a18.76,18.76,0,0,0-2.67-2c-1.69-.86-3.48-1.51-5.22-2.29-2.32-1-4.6-2.18-7-3.16-1.57-.65-3.21-1.11-4.83-1.65a29.79,29.79,0,0,0-5.31-1.7c-3.81-.52-7.36-2.14-11.24-2.34-1.94-.1-3.84-.82-5.78-1A61.49,61.49,0,0,0,112,65.74ZM63,126.2a25,25,0,0,1,2.71,3c.83,1.24,2.58,2,2.24,3.92,0,.17.32.41.5.61s.45.51.64.79c.77,1.05,1.55,2.1,2.28,3.18s1.58,1.59,2.28,2.49c1.35,1.75,2.91,3.34,4.42,4.95,1.23,1.33,2.48,2.65,3.8,3.88a35.65,35.65,0,0,0,3.91,3.25c1.65,1.14,3.51,2,5.14,3.15,1.42,1,2.43,2.59,4.18,3.2.18.06.44.23.51.18a.91.91,0,0,0,.3-.58c0-2.7-.07-5.4-.11-8.1h-.22l-.56.86-.35-.09a11.83,11.83,0,0,1,.19-1.33c.23-.85.88-1.78.7-2.51A11.61,11.61,0,0,1,95,143.7c0-.23-.19-.48-.28-.7l.45-.42a4.2,4.2,0,0,1-.48-1.34c0-.7.57-1.6.3-2.05-.83-1.37.6-2.67-.17-4.09-.48-.87-.12-2.17-.24-3.27-.24-2.43-.62-4.85-.81-7.29-.25-3.31-.38-6.63-.53-10-.05-1,0-2.11,0-3.17a22.08,22.08,0,0,0-.1-4,45.44,45.44,0,0,1-.7-8.56c0-.6-.09-1.2-.06-1.8,0-.83.22-1.66.21-2.48,0-1.31-.16-2.61-.2-3.92-.07-2.11-.1-4.21-.15-6.32,0-.8,0-1.6-.06-2.39-.08-1.86-.18-3.72-.27-5.69.44-.25.59-.69,0-1.28a.85.85,0,0,1-.25-.58c.25-2,.61-3.9.77-5.86a16.25,16.25,0,0,0-.21-2.93H90.82a6.33,6.33,0,0,0-1.93-.07c-2.83.87-5.61,1.88-8.43,2.78-3,1-6.08,1.8-9.08,2.8-2.33.78-4.6,1.71-6.88,2.62-1.93.76-3.87,1.51-5.71,2.43-2.27,1.14-4.47,2.41-6.64,3.72-2.63,1.58-5.2,3.25-7.78,4.9-.55.36-1,1-1.6,1.13a6,6,0,0,1-2.1-.24q1.88,4.38,3.74,8.76c1.19,2.79,2.28,5.62,3.6,8.34.5,1,.47,2.44,1.85,2.93a.49.49,0,0,1,.1.45c-.49.87.16,1.4.56,2a19.37,19.37,0,0,1,2.21,3.45,25.43,25.43,0,0,0,3.18,5.19c1,1.47,2,2.91,3,4.36a12.56,12.56,0,0,0,1.75,2.3,4.39,4.39,0,0,1,1.86,3.09c0,.05.09.09.19.18ZM74.81,65.35l2.09-.42c2.63-.51,5.27-1,7.91-1.53,3.09-.57,6.18-1.11,9.27-1.65A1.38,1.38,0,0,1,95.9,63c.12.53.43,1,.53,1.54a25.59,25.59,0,0,1,.5,3.48c.07,1.26,0,2.53-.07,3.8s0,2.63-.1,3.94c-.12,1.73-.45,3.45-.47,5.18,0,3.35.07,6.7.18,10,.09,2.39.3,4.78.44,7.16.1,1.87.19,3.74.26,5.6.06,1.53.1,3.05.11,4.58,0,.78-.12,1.56-.08,2.34.08,2.22.23,4.43.34,6.65.14,2.87.22,5.74.44,8.6.07,1,.64,1.9.7,2.86.18,2.68.3,5.38.28,8.06,0,3.22-.38,6.43-.31,9.64.1,4.22.49,8.44.73,12.66,0,.63-.12,1.26-.09,1.89a1,1,0,0,0,.45.72c1.65.84,3.31,1.65,5,2.4.23.1.68-.13,1-.31.48-.33.9-.76,1.36-1.12.89-.69,1.83-1.36,1.83-2.64,0-3.55,0-7.11-.11-10.66,0-1.84-.22-3.67-.27-5.51-.08-3.33-.09-6.66-.16-10,0-2,0-4-.22-5.92-.17-1.79-.62-3.56-.81-5.35-.15-1.41-.09-2.85-.11-4.27,0-2.49-.09-5-.1-7.47,0-1.36.07-2.72.05-4.08,0-1.54-.15-3.08-.17-4.62,0-2.24,0-4.48,0-6.72,0-1.73-.13-3.46-.14-5.18,0-2.45,0-4.9.06-7.34,0-2.72,0-5.44.08-8.15,0-1.16.06-2.32,0-3.47s-.32-2.52-.25-3.77c.1-1.89.42-3.76.67-5.82a16.67,16.67,0,0,1,2.38-.25c.63,0,1.25.37,1.89.42,1.48.11,3-.15,4.43.25a13.82,13.82,0,0,0,4.6.44,31.13,31.13,0,0,1,4.92-.08c2.71.3,5.39.81,8.07,1.3,1.79.33,3.57.77,5.34,1.2s3.44.88,5.15,1.33l1.05.27c.68.34,1.29.92,2,1.25,1.66.77,3.57.79,5.13,2,.92.71,2.27.83,3.32,1.41,1.57.88,3.05,1.93,4.58,2.89.26.16.79.34.85.26.67-.91,1.91-1.47,1.8-2.9a5.48,5.48,0,0,1,.1-2.18,9.9,9.9,0,0,0,.5-4.73c-.05-.34.08-.86-.1-1A12.25,12.25,0,0,0,161,62a46.2,46.2,0,0,0-5.74-2.26c-2.52-.72-5.12-1.15-7.68-1.74-1.31-.31-2.61-.69-3.89-1.1-1.52-.48-3-1.16-4.52-1.52-2.59-.59-5.22-1-7.84-1.47-1.76-.31-3.54-.57-5.31-.85-1.48-.23-2.95-.51-4.43-.68a37.45,37.45,0,0,0-5.27-.43c-1.63,0-3.37-.61-4.9.51a.52.52,0,0,1-.39,0c-1.4-.42-2.79-.88-4.21-1.26a1.08,1.08,0,0,1-1-1.22c0-1,0-2-.08-3-.15-2.39-.38-4.78-.48-7.18-.08-2.11,0-4.23,0-6.35-.09-2.88-.46-5.77-.35-8.64.14-3.55.51-7.09,0-10.64a8.71,8.71,0,0,1,0-1.91c.1-1.15.29-2.29.37-3.44a1.16,1.16,0,0,0-1.16-1.31,30.2,30.2,0,0,0-3.56-.16c-1.93.06-3.87.25-5.8.32-1.29,0-1.49.25-1.35,1.54a28,28,0,0,1,.17,2.9c0,5,0,10.1.06,15.15,0,3.72,0,7.44.06,11.17,0,2,.31,3.94.22,5.9-.1,2.36-.43,4.71-.75,7a1.4,1.4,0,0,1-.92.83c-1.45.35-2.93.52-4.37.86-2.78.65-5.56,1.31-8.3,2.08-2.46.69-4.9,1.45-7.3,2.32-1.94.7-3.79,1.62-5.7,2.41C64,60.9,61.44,61.91,58.89,63c-2.06.87-4,2.2-6.15,2.61-1.93.38-2.91,2.31-4.86,2.37-.05,0-.07.2-.14.25a6.23,6.23,0,0,1-.71.41,9.32,9.32,0,0,0-1,.43c-1.25.74-2.46,1.55-3.73,2.26s-2.46,1.26-3.89,2l-.21-.41-1.29.6c1,.12.13.71.28,1,.29.64.79,1.35.7,2-.22,1.59.63,2.8,1.1,4.14.28.8,1.09,1.41.84,2.42,0,.19.23.46.38.72a15.09,15.09,0,0,1,2-2.73,20.33,20.33,0,0,1,3.42-2.15c1.37-.77,2.8-1.44,4.17-2.22,3-1.68,5.9-3.49,8.93-5.09,2.25-1.18,4.62-2.16,7-3.14,2.14-.89,4.21-2,6.6-2.16A9.06,9.06,0,0,0,74.81,65.35ZM30.51,29.78c.48,1.65,1.06,3.3,1.43,5a34.25,34.25,0,0,1,.29,3.54c.31,2.82.67,5.64,1,8.47.14,1.31.16,2.63.3,4s.37,2.83.55,4.24c.33,2.45.62,4.9,1,7.34.2,1.31.55,2.6.81,3.9.2,1,.34,2.11.59,3.15.12.5.45.43.85.13,2.49-1.86,4.91-3.84,7.54-5.47,2.85-1.76,5.9-3.19,8.88-4.73,1.77-.93,3.58-1.8,5.37-2.7a27.41,27.41,0,0,1,3-1.5c1.61-.58,3.28-1,4.92-1.47,2.48-.76,4.93-1.56,7.42-2.29,3.38-1,6.77-2,10.19-2.83a28.33,28.33,0,0,1,4.4-.4c0-1.44,0-3,0-4.53,0-1.3.19-2.6.11-3.88-.11-1.87-.34-3.74-.61-5.6a55.5,55.5,0,0,1-.71-9.46c0-1.55.09-3.1.16-4.64,0-1.19.13-2.37.18-3.55,0-.2-.12-.39-.14-.6a3.06,3.06,0,0,1,0-.8c.25-2,.54-4,.75-6,0-.25-.42-.79-.61-.77a16.07,16.07,0,0,0-2.26.43c-.24.13-.55-.1-.84-.08-1.13.1-2.27.24-3.38.44-2.16.38-4.31.77-6.44,1.25-1.11.26-2.15.76-3.25,1.1-1.8.55-3.63,1-5.42,1.57-2,.62-4,1.27-6,2-1.34.47-2.67,1-4,1.57-2,.89-4,1.82-5.93,2.75s-4,1.89-6,2.85a12.82,12.82,0,0,0-1.09.72c-1.85,1.15-3.74,2.24-5.52,3.48-.5.34-.68,1.13-1,1.76-.09-1-.65-.81-1.24-.45a7.82,7.82,0,0,1-1.27.85C33.22,28.94,31.86,29.34,30.51,29.78Zm80.33,17.44c.74.05,1.35.13,2,.14,1.91,0,3.84-.11,5.72.12,3.67.46,7.31,1.08,11,1.74,2.8.51,5.58,1.15,8.35,1.8,1.9.44,3.75,1,5.64,1.5,2.57.65,5.14,1.34,7.74,1.84,2,.37,3.79,1.45,5.88,1.27a.51.51,0,0,1,.29.1,7.83,7.83,0,0,0,2,1.19c1.11.26,2,1.69,3.13.78l1.32,1.11c.2-2.6.49-4.86.49-7.12,0-1.21.5-2.6-.61-3.53.3-.34.74-.61.76-.91.09-1.31.07-2.63.07-3.94,0-1.57,0-3.15-.05-4.72,0-1.8-.12-3.6-.09-5.39,0-2.17.18-4.34.22-6.51,0-.94-.1-1.88-.16-2.83-.49-.43-1-.95-1.57-1.37a34.7,34.7,0,0,0-3.5-2.43c-1.58-.88-3.27-1.53-4.88-2.36s-3.09-1.81-5-2a14.67,14.67,0,0,1-3.07-1c-1.26-.42-2.52-.83-3.79-1.22-2.5-.78-5-1.53-7.49-2.31a14.42,14.42,0,0,0-2.84-.91c-.83-.08-1.64-.93-2.55-.21-.05,0-.28-.16-.44-.21a14.19,14.19,0,0,0-1.65-.5c-1-.19-2.06-.32-3.08-.49-.77-.13-1.53-.34-2.3-.42-2.48-.23-5-.42-7.44-.6-1.3-.1-2.6-.15-3.76-.22a22.78,22.78,0,0,1-.08,5,32,32,0,0,0-.35,3.86c-.19,1.51-.25,3-.36,4.56a24.84,24.84,0,0,0-.21,3.74c.24,2.91.68,5.79,1,8.69.12,1.18.06,2.38.09,3.57a42,42,0,0,0,.18,5,5.37,5.37,0,0,1,0,3A13.89,13.89,0,0,0,110.84,47.22Z"/><path d="M165.42,172.59c-1.87,1.79-3.32,3.83-5.77,4.64a1.18,1.18,0,0,0-.43.26,11.31,11.31,0,0,1-4,1.92,52.22,52.22,0,0,1-10.37,2.31,64.5,64.5,0,0,1-12.27,0,64.46,64.46,0,0,1-10.68-1.66,30.18,30.18,0,0,1-7-2.78,6.59,6.59,0,0,1-2.25-2.87,4.25,4.25,0,0,1,.1-2.22,11,11,0,0,1,.49-1.67c.29-.83,1-1.12,1.68-.59a27.13,27.13,0,0,0,6.5,3.73,22.13,22.13,0,0,0,2.74.54c1.08.27,2.13.69,3.21.95a25,25,0,0,0,3.73.7,66.54,66.54,0,0,0,7.33.29,31.74,31.74,0,0,0,4.77-.89c.9-.17,1.81-.28,2.71-.41.07,0,.15,0,.21,0l4.86-1.52c.39-.12.82-.16,1.2-.3.89-.32,1.78-.66,2.65-1,1.26-.54,2.52-1.11,3.77-1.67a3.45,3.45,0,0,0,.45-.27c-1-.68-2-1.29-2.93-1.93a16.71,16.71,0,0,1-5.33-5.87,15.46,15.46,0,0,1-2.05-11c.28-2.39.68-4.76,1-7.14,0,0,.1-.07.22-.16,1.11,1.38,2.34,2.55,2.19,4.67a9.28,9.28,0,0,0,.82,5.06c.5.92,1.14,1.75,1.7,2.64.26.42.48.87.73,1.3.08.15.16.34.29.41,1.76,1,2.32,3.05,3.8,4.29a10.41,10.41,0,0,0,2.44,2,14.83,14.83,0,0,0,4.18.87,35.1,35.1,0,0,0,4.7,0,20.44,20.44,0,0,0,6.5-1.1c2-.79,3.95-1.74,5.92-2.62l.18-.1c1.44-1.16,3-2.24,4.3-3.5,2.2-2,4.23-4.22,4.48-7.47.19-2.58.62-5.15.71-7.74a27.08,27.08,0,0,0-.6-4.43c-.16-1.15-.35-2.31-.41-3.46A1.6,1.6,0,0,1,193,133c1-.31,1.91-.81,3,.05a17.07,17.07,0,0,0,3.5,1.82c.64.3,1.36.43,2,.68a1.87,1.87,0,0,1,1.14,2.19c-1,2.8-.88,5.77-1.45,8.64-.49,2.42-.82,4.88-1.42,7.27a18.89,18.89,0,0,1-1.62,3.73,27.89,27.89,0,0,1-2.22,4,6.08,6.08,0,0,1-2.45,2,10.8,10.8,0,0,0-2.91,2.19c-2.13,1.79-4.13,3.72-7,4.31a34.24,34.24,0,0,0-3.16,1.33c-2.51.79-4.91,2-7.65,1.95-1.25,0-2.51.25-3.75.15A27.22,27.22,0,0,1,165.42,172.59Z"/><path d="M100.89,181c-2.18-.25-3.87-.46-5.57-.62A3.2,3.2,0,0,0,92.69,182c-.4.94-.57,1.94-1.88,2.32-.57.17-.83,1.34-1.3,2A10,10,0,0,1,85.58,190c-.4.19-.68.63-1,.9a13.15,13.15,0,0,1-6.71,2.88,23.58,23.58,0,0,1-6-.38,13.51,13.51,0,0,1-6.38-3C63,188.2,61.3,185.7,62,182.19c.09-.47-.26-1-.15-1.49a26,26,0,0,1,1-3.09c0-.12.49-.23.6-.15a2,2,0,0,1,.75.86,12.45,12.45,0,0,1,.13,1.52,9.26,9.26,0,0,0,.42,1.18,2.48,2.48,0,0,1,.18.84,3.5,3.5,0,0,0,2.5,3.74,26.66,26.66,0,0,0,4.6,1.65,18.75,18.75,0,0,0,4.73-.07c1.92-.17,3.4-1.38,4.94-2.38a33.2,33.2,0,0,0,3-2.13,9,9,0,0,0,3-4.14,1.2,1.2,0,0,0-.64-1.64c-1-.46-2.08-.89-3.09-1.39-.54-.27-1.23-.56-1.47-1-.67-1.37-2.17-1.76-3-2.84s-1.59-2-2.31-3c-.28-.41.73-1.57,1.29-1.47a4.24,4.24,0,0,1,1.35.42c2,1.12,4,2.36,6.14,3.39,1.3.65,2.75,1,4.12,1.51a16.53,16.53,0,0,1,2.13,1A13.1,13.1,0,0,0,98,174.72a3.26,3.26,0,0,0,1.49-.35,4.39,4.39,0,0,1,2.65-.42,18.06,18.06,0,0,0,4.34-.46,2.27,2.27,0,0,1,1,0,3.32,3.32,0,0,1,1.42,3c-.16.66-.17,1.35-.32,2a1.06,1.06,0,0,1-.5.7,21,21,0,0,1-2.79.87C103.69,180.5,102.06,180.77,100.89,181Z"/><path d="M23.21,31.13c.32.34.79.66.75.84a4.11,4.11,0,0,1-.73,1.13c-.16-.18-.46-.37-.44-.54A8.17,8.17,0,0,1,23.21,31.13Z"/></g></g></svg>