<svg xmlns="http://www.w3.org/2000/svg" viewBox="0 0 154.29 201.74"><title>StopWatch</title><g id="Layer_2" data-name="Layer 2"><g id="Layer_1-2" data-name="Layer 1"><path d="M15.66,89.75c0-.35-.14-.81,0-1s.65-.16,1-.23a2.85,2.85,0,0,0,1-.28,4.94,4.94,0,0,0,1.82-2c.15-.37.61-.59.87-.92s.5-.76.77-1.12a6.48,6.48,0,0,1,1-1.19c.5-.4.7-.71.64-1.1.5-.49.91-.87,1.31-1.27a3.74,3.74,0,0,0,.46-.59c.26-.43.49-.88.75-1.31.16-.27.36-.51.53-.78s.45-.75.69-1.12a1.6,1.6,0,0,1,.44-.52c.58-.35,1.15-.6,1.16-1.48,0-.19.88-.39,1.36-.55.16-.06.38.07.51,0,1-.53,2-1.1,3.06-1.66l.4-.21c1.3-.61,2.58-1.24,3.89-1.83A8.17,8.17,0,0,0,39,69.89c1.15-.91,2.63-.55,3.85-1.17.68-.34,1.44-.53,2.13-.86.37-.17.65-.56,1-.74a7.64,7.64,0,0,1,1.57-.53c1.28-.28,2.56-.54,3.85-.78.4-.08.83,0,1.23-.12A3.4,3.4,0,0,0,54,65.26c.34-.26.78-.85.69-1.13a1.38,1.38,0,0,0-1.43-1c-1.34.11-2.68.21-4,.4s-2.74.5-4.11.73a2.79,2.79,0,0,1-.91,0c-.91-.14-1.82-.26-2.71-.48A14.18,14.18,0,0,1,39.18,63c-2.34-1-4.68-2-7-3.08-.83-.39-1.58-1-2.38-1.42-.21-.12-.5-.11-.71-.23s-.58-.29-.65-.51a2.81,2.81,0,0,0-1.67-1.6,3.23,3.23,0,0,1-.84-.73c-.93-1-1.85-2-2.77-3,0,0-.09-.06-.12-.09A7.06,7.06,0,0,0,21,51.28c.7-.38.52-.62,0-1.07-1.08-1-2-2.15-3-3.25s-2-2.2-3-3.3a7.5,7.5,0,0,0-.93-.94c-.27-1.64-.88-2.3-2.11-2.08L12.33,39a.18.18,0,0,0,0-.14c-1-1.15-1-2.82-2-4a7.93,7.93,0,0,1-.78-2.08A2.71,2.71,0,0,0,8.22,31.2a1.53,1.53,0,0,1-.72-1.59A4.64,4.64,0,0,0,7.27,28a5.73,5.73,0,0,0-.47-1.21A1.64,1.64,0,0,0,6.18,26c-.16-.08-.5.26-.86.47L4.08,25.11,5.44,25a3.7,3.7,0,0,0,.23-.63c.09-.55-.28-.88-.83-.8a6.39,6.39,0,0,1-1,.11c-.2,0-.52-.07-.57-.19s-.07-.6.06-.69c.49-.37.92-.72.87-1.41,0-.08.18-.16.33-.29-1-1.08-.72-2.49-.91-3.78a10.41,10.41,0,0,1,0-1.67,1.15,1.15,0,0,0-.07-.45c-.26-.64-.53-1.27-.78-1.91a.5.5,0,0,1,0-.36,1.79,1.79,0,0,1,2.39-.22c.15.17.27.43.46.49.6.21.69.53.4,1.06a.61.61,0,0,0,0,.54,12,12,0,0,1,1.51,3.27,27.81,27.81,0,0,0,1.49,3.3,1,1,0,0,0,.77.41c.11,0,.26-.41.42-.61.32-.4.64-.81,1-1.18s.71-.48.91-.81c.41-.67,1-.76,1.91-.49A8,8,0,0,0,13.3,17a7.09,7.09,0,0,1-1.36-3.71,17.84,17.84,0,0,1,.11-3.64c0-.23-.05-.46,0-.69s.07-.57.19-.61a1,1,0,0,1,.75.09c.74.46,1.47,1,2.16,1.5a7.45,7.45,0,0,1,.85,1l.45-.78.66,1-.32,0a7.67,7.67,0,0,0-.45.79,1.94,1.94,0,0,0-.08.6c0,.34-.15.76,0,1,1,1.9,1.31,4.08,2.52,5.88.07.1.19.17.27.27a2.17,2.17,0,0,1,.69,1.88,5.31,5.31,0,0,0,.49,2.16c.13.43.33.83.5,1.25.63-.35-.12,1.17.76.48-.16.36-.38.63-.31.77.43,1,.92,2,1.41,2.93.16.31.36.61.54.91s.3.51.45.76a8.94,8.94,0,0,0,1,1.72,8.28,8.28,0,0,0,2.14,1.69,14.64,14.64,0,0,1,4,2.93c.49.5.78,1.17,1.24,1.7a10.33,10.33,0,0,0,.88.64c.73.82,1.45,1.65,2.21,2.45.09.1.42,0,.64,0s.44,0,.53.06a.62.62,0,0,1,0,.56c-.47.64-.14,1,.37,1.4,1,.78,2,1.61,3,2.37a5.65,5.65,0,0,0,1,.42c.57.28,1.12.58,1.67.88l.52.31.07-.63.17,0c.12.48.67.62.78,1.16a.66.66,0,0,0,1.14.19,5,5,0,0,1,.69-.76c0,.31,0,.63,0,1,0,.14-.14.28-.15.42-.12,1.11,2,2.82,3,2.5a5.58,5.58,0,0,1,.81-.12l0-.71c2.29.78,2.26-1.55,3.38-2.47l-.73-.87c.76-.14,1.45-.25,2.12-.41a1.24,1.24,0,0,0,.59-.35c.44-.45.88-.91,1.28-1.39a4.54,4.54,0,0,1,2.94-1.63,11.18,11.18,0,0,1,2.57.41c1.31.15,2.59.53,3.95,0,.62-.24,1.46.1,2.2.17s1.17.14,1.76.18.67-.16.5-.67c0-.14.09-.34.15-.51.18.07.46.09.52.21.31.66.8.54,1.37.48a7.11,7.11,0,0,1,2.35,0,12.47,12.47,0,0,0,3,0,3.22,3.22,0,0,1,.82,0,4.16,4.16,0,0,0,3.15-.29,1.84,1.84,0,0,1,.39-.05l-.34.65,3.58.49a2.38,2.38,0,0,1,.6.13,15.9,15.9,0,0,0,5.7,1.21c1.1,0,2.19.32,3.29.4a2.57,2.57,0,0,0,1.16-.3,5.12,5.12,0,0,1,4.65-.06c.5.26,1.16.32,1.55.69a6.92,6.92,0,0,1,1.41,1.89c.46.87.82,1,1.67.55a27.61,27.61,0,0,0,5.46-4.07,2.88,2.88,0,0,0,1.21-2.7,2.26,2.26,0,0,1,.38-1.22,12.43,12.43,0,0,1,1.18-2.07,11.29,11.29,0,0,1,1.34-1.11,6.3,6.3,0,0,0,1.72-2.49,13.16,13.16,0,0,1,1.11-1.91c.59-1.09,1.21-2.18,1.72-3.31.75-1.66,1.32-3.41,2.15-5A11,11,0,0,0,122.68,22s0-.07,0-.07c1.17-.39.89-1.76,1.68-2.46.48-.43.62-1.22,1-1.82a6.75,6.75,0,0,1,.73-1,10.77,10.77,0,0,0,.9-1c.41-.62.76-1.29,1.19-2.05-1-.56-.54-1.61-.49-2.64.69-.14,1.44,1,2.23.08,0,0,0-.07,0-.11-.5-.82-.44-1,.49-1.24.18,0,.43-.11.5-.24.28-.51.43-1.1,1.09-1.3.07,0,.1-.23.1-.36s-.09-.3,0-.35c.73-.72.93-1.88,1.91-2.38.17-.09.43,0,.69,0V4.41l.49.09L135,4.32c.19-.17.37-.35.57-.51,1.27-1,2.57-1.95,3.82-3a2.83,2.83,0,0,1,2.62-.75,3.17,3.17,0,0,0,1.15,0c1.32-.17,2.18.77,3.1,1.42.45.32.58,1.1.82,1.69a2.93,2.93,0,0,1,.12.7l-1,.27a8.68,8.68,0,0,0,.59,1.08c.42.57.82.42,1.23-.07s.77-.73,1.14-1.11a1,1,0,0,1,1.45-.1,15.16,15.16,0,0,1,3.48,3.8c.41.51-.16.92-.55,1.25a8.81,8.81,0,0,0-1.26,1.09c-1.2,1.46-2.33,3-3.51,4.47-.36.46-.83.85-1.16,1.33a8.73,8.73,0,0,0-.63,1.43c-.06.14,0,.37-.1.43-.63.41-.4.92-.14,1.46l-.77.3c.31.6,0,.95-.39,1.37S145,22,144.57,22.49c-1.36,1.51-2.77,3-4.16,4.47a3.05,3.05,0,0,0-.38.49c-.53.83-1.05,1.66-1.53,2.43,1-.35.65.68.72,1.08.12.71-.56.52-.9.61l-.8-1c-.53,1.12-1,2.06-1.44,3-.7,1.45-1.43,2.89-2.11,4.35a3,3,0,0,0-.11,1c-.68.5-1,2.12-.51,2.64l.25-.54a3.86,3.86,0,0,1,.17.58c0,.3.07.6.11,1l-1-.07c0,.08-.13.23-.09.3.48,1.05-.07,2-.23,3a15.63,15.63,0,0,1-.45,2.38,12.66,12.66,0,0,1-1.55,3.18c-.14.2,0,.6,0,.85-.32.83-.69,1.65-1.07,2.45-.13.28-.4.48-.53.76-.85,1.92-2.71,2.85-4.13,4.21a14.52,14.52,0,0,1-4.69,2.92,15.26,15.26,0,0,0-1.59,1,5.74,5.74,0,0,1-2.72.78,16.54,16.54,0,0,0-3.19.74c-1.11.26-2.23.49-3.35.73-.12,0-.25,0-.38,0-.6,0-1.19.07-1.78.12a3.73,3.73,0,0,0-.55.11c.51.49.83,1.08,1.61.87a.54.54,0,0,1,.31,0c1,.48,2,1,3.06,1.44.46.21.93.39,1.38.59s1,.5,1.56.75a19.07,19.07,0,0,0,3.65,1.69,10,10,0,0,1,1.57.75,28.18,28.18,0,0,1,4,2.36,31.85,31.85,0,0,1,4.41,3.57,26.08,26.08,0,0,1,2.42,2.62c.56.64,1,1.38,1.58,2a7.18,7.18,0,0,0,1.33.9l.52-.3c.25,1,.47,1.88.74,2.76,0,.13.31.19.54.31l.79-1.82c.44.35.79.74.43,1.4a1.32,1.32,0,0,0,0,.53c0,.25.28.63-.28.64,0,.29,0,.66.11.84.46.56,1.06,1,1.52,1.57a6.37,6.37,0,0,1,.72,1.31c.23.48.38,1,.64,1.45.13.23.5.33.63.57.27.5.41,1.07.69,1.57a5.35,5.35,0,0,0,.84,1.07,4.54,4.54,0,0,0,.74.51c-.45.43-.75.84-.18,1a11.57,11.57,0,0,0,.69,2,6.86,6.86,0,0,1,.84,3.15.83.83,0,0,0,0,.15c.54,1.5,1.1,3,1.6,4.5a5.85,5.85,0,0,1,.28,1.81c0,.86,0,.93.85,1a3.17,3.17,0,0,0-.15,1.08c.07.33.4.59.57.9a3.11,3.11,0,0,1,.52,1.11,1.94,1.94,0,0,1-.31,1.16c-.26.43-.3.62.12,1s.94,1,.34,1.66c-.05,0-.11.16-.09.2.49,1-.35,2.15.57,3.05.11.11-.19.57-.15.84.23,1.62-.17,3.34.58,4.84.48,1,.09,1.91.38,2.84.05.16-.13.38-.16.58s-.11.55,0,.63c.57.47.27,1,.25,1.55-.07,1.28,0,2.56,0,3.83a4.61,4.61,0,0,1-.17,1c-.19.74-.39,1.48-.63,2.2-.38,1.12-.73,2.26-1.21,3.33-.88,1.92-1.93,3.76-2.18,5.9a.7.7,0,0,1-.09.29,20,20,0,0,0-2.91,6.06c-.2.84-.44,1.66-.71,2.48-.06.21-.3.35-.44.53s-.47.46-.46.69c0,1.13-.83,1.79-1.34,2.62a8.58,8.58,0,0,0-1.67,4,19.52,19.52,0,0,1,2.6,1.9,27.49,27.49,0,0,1,2.83,3.42,17.48,17.48,0,0,1,2,3.52,45.61,45.61,0,0,1,1.65,5.37,1.67,1.67,0,0,1-.4,1.2,18.1,18.1,0,0,1-1.77,1.94,12.09,12.09,0,0,1-1.11.76,4.63,4.63,0,0,0-.94.88c-.49.74-1.31,1.23-1.51,2.21a1.36,1.36,0,0,1-.85.8c-.67.21-.8.54-.33,1.34-.77-.55-1.16-.47-1.55.16a3.12,3.12,0,0,1-1.15.84c-1,.6-2.06,1.23-3.14,1.73a6.15,6.15,0,0,1-1.68.25c-.17,0-.46,0-.48.11-.23.83-1.09.89-1.58,1.39a2.16,2.16,0,0,0-.51,1,3.22,3.22,0,0,1-1.68,1.83c-.17.1-.49.19-.5.31-.09.94-.83.86-1.46,1.05a4.48,4.48,0,0,0-1.07.7c-.27.19-.52.41-.67.53-1-1.09-1.92-2.08-2.78-3.15a16.45,16.45,0,0,1-2.44-3.51,9.75,9.75,0,0,0-1-1.32c-.37-.55-.74-1.11-1.06-1.69-.43-.77-.63-.79-1.3-.29a18.23,18.23,0,0,1-2.38,1.54c-2,1-3.93,2-5.89,2.95a14,14,0,0,1-1.26.68,9.57,9.57,0,0,1-2.83.81,10.46,10.46,0,0,0-4.07,1.25c-1.51.66-2.91,1.57-4.36,2.36a8.11,8.11,0,0,1-.88.45c-1.28.5-2.6.93-3.85,1.49a23,23,0,0,1-7,1.5c-1.36.16-2.72.35-4.09.45-1.18.08-2.36,0-3.54.1a7.48,7.48,0,0,0-2.32.4c-1.69.72-3.4.41-5.12.31a.29.29,0,0,1-.14-.05c-1.22-1-2.75-.65-4.12-1a34.27,34.27,0,0,1-3.56-1.14c-1-.33-1.91-.73-2.86-1.11-.31-.12-.59-.33-.9-.43-.83-.26-1.67-.46-2.5-.71a8.82,8.82,0,0,1-3-1c-.92-.76-2.06-.75-3-1.36a21.54,21.54,0,0,0-3.53-1.43,9.87,9.87,0,0,1-1.7-1c-.59-.4-1.11-.91-1.71-1.3A8.26,8.26,0,0,0,39,190.5a1.93,1.93,0,0,0-1.29-1.31,4.17,4.17,0,0,1-1.05-.74c-.34-.3-.58-.46-1-.1s-1.29.64-1.86,1.07c-.88.66-1.68,1.42-2.51,2.13-1.1,1-2.19,1.93-3.32,2.85a2.29,2.29,0,0,0-.94,1.73c-.56-.59-1-.29-1.43.1A22.59,22.59,0,0,1,23.06,198a1.06,1.06,0,0,1-.9-.06c-1-.59-1.89-1.25-2.82-1.89-.12-.08-.3-.22-.3-.34,0-1.23-1.25-1.73-1.58-2.77-.23-.72-.67-.61-1-.07a2.81,2.81,0,0,0-.25.67l-.26-.3a7.87,7.87,0,0,1-.7-1.91,3.32,3.32,0,0,0-1.34-2c-.2-.21-.58-.24-1-.38l.77-.22c-1.4-2.28-2.71-4.49-4.13-6.65a21.66,21.66,0,0,0-2.06-2.35.59.59,0,0,0-.33-.17c-.9-.08-1.32-.8-1.89-1.35a9,9,0,0,0-1.52-1c-.91-.6-2-1-2.55-2a1.26,1.26,0,0,1-.15-.91c.33-.77.12-1.12-.7-1.16-.06,0-.12-.08-.35-.25a14.08,14.08,0,0,1,1.54-1c.91-.43,1.16-.77,1-1.7l1,.07c0-1.06.43-1.73,1.53-1.82a.49.49,0,0,0,.3-.23,7.65,7.65,0,0,1,3.22-2.55,9.24,9.24,0,0,1,4.21-1.66c.09,0,.18-.08.26-.12-.14-.86-.84-.87-1.43-1-.84-.16-1.18-.7-.66-1.35s.23-1.06-.05-1.6-.44-1.07-.69-1.6a13.66,13.66,0,0,1-.91-1.84,7.55,7.55,0,0,0-1.62-2.72A20.41,20.41,0,0,1,6.24,151a14.25,14.25,0,0,1-1.37-2.8c-.15-.45-.88-.75-1.41-1s-.43-.87-.39-1.33c0-.14.43-.25.82-.45-.14-.36-.35-.91-.57-1.46a9.66,9.66,0,0,0-.72-1.68,7.18,7.18,0,0,0-1.2-1.14c.08,0,.41-.09.5-.26a1.17,1.17,0,0,0-.1-.74c-.22-.69-.15-1.47-.88-2a.9.9,0,0,1,.17-1.36c.13-.08.12-.48.06-.7a6.12,6.12,0,0,0-.37-.91l.89-1.38L.24,133l1.18-.58-.57-.69,1.4-1c-.51-.25-.85-.52-.35-1,.83-.83.87-1.27.17-2.41l1.1-1.2c.35-.4.14-1.11-.55-1.39a23.65,23.65,0,0,1,1.27-2.14,4.73,4.73,0,0,0,.84-2.79,12.25,12.25,0,0,1,.72-3.58,40.74,40.74,0,0,0,2.07-8.79,56.08,56.08,0,0,1,1.13-6c.35-1.57.78-3.14,1.28-4.67A16.89,16.89,0,0,1,11,94.85a3.27,3.27,0,0,1,1.08-1.41,3.51,3.51,0,0,0,1-1.55,2.13,2.13,0,0,1,1.83-1.41c.33,0,.63-.36,1-.55Zm100.23-9.48a1.49,1.49,0,0,0-.37,0c-.72.15-1.43.35-2.16.45a4.1,4.1,0,0,1-1.44,0c-1.32-.27-2.62-.62-3.94-.94a1.06,1.06,0,0,0-.31,0c-2.11.25-4.1-.53-6.15-.8-.94-.12-1.84-.49-2.78-.65s-2.07-.11-3.06-.33a48.35,48.35,0,0,0-8.22-1.2c-1.85-.09-3.62-.52-4.7-2.33-.26-.43-.75-.57-1.29-.08a4.25,4.25,0,0,0-.12-.79,3.53,3.53,0,0,0-.43-.87c-.26-.35-.65-.63-.87-1-.64-1.12-1-1.28-2.26-.9-.44.12-.93.4-1.33.31-2-.43-3.93.38-5.9.31a11.65,11.65,0,0,0-2.36.22c-1.77.32-3.54.68-5.29,1.08a10.43,10.43,0,0,0-1.62.71,3.62,3.62,0,0,0-.93,0,14.25,14.25,0,0,0-1.65.51c-.31.1-.61.25-.92.36l-2.37.8c-.26.09-.61.15-.74.34a.94.94,0,0,1-1.16.46,1.36,1.36,0,0,0-.76.11c-1.4.5-2.79,1-4.19,1.54s-2.52.87-3.77,1.31c-.85.3-1.7.59-2.52.94a12.45,12.45,0,0,1-4.48,1.51,6,6,0,0,0-5.33,3.39,5,5,0,0,1-.8,1c-.19.2-.55.31-.64.54s.23.44.27.53a10.67,10.67,0,0,0-.84,1c-.3.44-.43,1.18-.81,1.32-.73.28-1,.93-1.6,1.3-1,.66-1.07,1.8-1.77,2.58-.16.18-.35.48-.31.67.26,1-.35.93-.94.8a3.53,3.53,0,0,1-.66.82,30.67,30.67,0,0,1-2.62,1.61,8.61,8.61,0,0,0-2.89,2.4c-.24.33-.55.62-.76,1a10.94,10.94,0,0,0-1.74,3.13,16.49,16.49,0,0,1-2.74,5.82,16.58,16.58,0,0,0-.9,1.53,29.07,29.07,0,0,0-2.37,8.46,11.79,11.79,0,0,0,0,5.9,8,8,0,0,1,.16,3.8c-.17,1.26-.21,2.53-.31,3.8l.89.22a2.66,2.66,0,0,0-.39.44c-.09.19-.24.49-.17.6.33.47.07.79-.13,1.19a16.43,16.43,0,0,0-.8,2.05c-.05.14.12.35.19.52l-.17,0a4.55,4.55,0,0,0-.35,1.67,11.14,11.14,0,0,0,1,2.51,1.32,1.32,0,0,0,.78.61c.94.2,1.23.41,1.17,1.37a12.14,12.14,0,0,0,.45,4.11,10.33,10.33,0,0,0,1.82,3.72A12.84,12.84,0,0,1,16,154c.8,1.8,1.47,3.66,2.18,5.5a11.64,11.64,0,0,1,.67,2.15,3.8,3.8,0,0,0,1,1.68c.63.84,1.14,1.76,1.73,2.63.12.17.37.25.56.38a1.78,1.78,0,0,1,.49.34c.59.78,1,1.84,2.37,1.3a1.56,1.56,0,0,0-.3,2.07,21.4,21.4,0,0,0,2.1,2.81,35.75,35.75,0,0,0,3.87,3.62,8.43,8.43,0,0,1,2,2,4.78,4.78,0,0,0,2.45,2.2c.14,0,.23.26.35.4a4,4,0,0,0,.63.67c1.5.94,3,1.85,4.5,2.8.54.34,1,.8,1.54,1.14.31.21.82.2,1,.45,1,1.22,2.59,1.13,3.81,1.88,1,.62,2.4.41,3.37,1.26a1,1,0,0,0,.37.1c2.06.38,4.14.69,6.18,1.16,1.3.3,2.53.86,3.81,1.26.62.2,1.27.31,1.9.49a4.42,4.42,0,0,1,1.28.45c.79.53,1.52,1.15,2.28,1.73a1.29,1.29,0,0,0,.36.14,13.76,13.76,0,0,0,5.27.43,22.57,22.57,0,0,1,4.11,0,8.7,8.7,0,0,0,3.7-.34c1.12-.35,2.21-.76,3.34-1.09a12.64,12.64,0,0,1,3-.7c1.19-.05,2.28.2,3.34-.82a11.43,11.43,0,0,1,3.29-1.77c.93-.41,2-.59,2.9-1a3.32,3.32,0,0,1,1.74-.42,1.45,1.45,0,0,0,.64-.24c1-.48,2.11-1,3.15-1.47s1.84-.92,2.76-1.37c.18-.09.4-.23.55-.19.68.17,1.11-.22,1.61-.57,1.08-.77,2.21-1.5,3.32-2.23s2.52-1.62,3.75-2.47a12.41,12.41,0,0,0,1.13-1.16c1.49-1.37,3-2.72,4.5-4.08a1.16,1.16,0,0,0,.26-.28,20.27,20.27,0,0,1,2.68-3.16c.41-.5.89-.93,1.31-1.42,1.08-1.26,2.17-2.51,3.21-3.81a11.26,11.26,0,0,0,1.3-2,12.34,12.34,0,0,1,2.35-3.76,6.74,6.74,0,0,0,2.23-3.5,4.32,4.32,0,0,1,.37-1.38c.43-.69,1.09-1.24,1.5-1.95,1-1.68,2.19-3.24,2.47-5.27a8.2,8.2,0,0,1,.95-2.1c.13-.26.29-.51.4-.77s.09-.61.26-.79a1.87,1.87,0,0,0,.37-2c.38-.32.9-.55,1.05-.92a23.14,23.14,0,0,1,1.44-3.93,3.89,3.89,0,0,0,.41-1.06c.36-1.46.67-2.94,1-4.41a1.12,1.12,0,0,0-.48-1.41c-.51-.3-.46-.66-.29-1.18a5.07,5.07,0,0,0,.24-1.86c0-.53-.1-1,.51-1.18a.65.65,0,0,0,.3-.46c0-.1-.21-.26-.36-.33-.59-.26-.84-.75-.39-1.23.65-.71.34-1.1-.24-1.51.62-1,0-3.65-1-4.62.67-.27.69-.57.18-1.1-.26-.28-.22-.85-.32-1.3l.84-.1a24.42,24.42,0,0,0-.84-3.86,21.46,21.46,0,0,1-.9-4.16,5.4,5.4,0,0,0-.9-2.47l-.79.46a2.09,2.09,0,0,1,.1-.62c.29-.55.43-1.06-.18-1.5a.42.42,0,0,1-.11-.28,12.93,12.93,0,0,0-1-3.6c-.28-.73-.46-.75-1-.26-.17.16-.49.16-.73.23a6.17,6.17,0,0,1,.28-.86c0-.11.26-.15.38-.24s.3-.22.45-.33c-.13-.17-.24-.45-.4-.49-.44-.12-.55-.37-.58-.78a3.13,3.13,0,0,0-1.12-2.6.89.89,0,0,1-.3-.44.7.7,0,0,0-.72-.53c-1-.08-1.87-1.36-1.37-2.06.67-.94.15-1.66-.29-2.36-.13-.21-.66-.16-1-.23-.07.84-.68.36-1.24.59.13-.45.23-.72.28-1a1.51,1.51,0,0,0,0-.78,1.71,1.71,0,0,0-1.77-.84.74.74,0,0,1-.54-.21c-.56-.6-1.09-1.22-1.7-1.9h1.71l-.46-.66,1-.3v-.65a10.53,10.53,0,0,1-1.49,0c-.58-.08-1.15-.33-1.55.36-.05.07-.24.06-.37.07a3.77,3.77,0,0,1-2.43-.47,10,10,0,0,0-1.85-.75c-1.21-.43-2.44-.8-3.64-1.25C115.64,81.2,115.35,80.84,115.89,80.27ZM62.39,47.91l-.09-.35a11.38,11.38,0,0,0-1.55.55c-.71.36-1.36.82-2,1.24a7,7,0,0,0-1.37,11,2,2,0,0,1,.39.89,9.83,9.83,0,0,1,.15,1.07c.08.5.26,1,.82,1s1.23-.14,1.36-.44c.36-.79.9-.61,1.46-.53a13.35,13.35,0,0,1,1.68.26,7.24,7.24,0,0,0,5.19-.49A3.09,3.09,0,0,1,69.57,62c1.08,0,2.15,0,3.23-.06s2.29-.18,3.43-.22c1.39-.05,2.77,0,4.15-.07,1.73-.07,3.46-.28,5.19-.32,1.16,0,2.33.18,3.5.23a.88.88,0,0,0,.69-.31,20.85,20.85,0,0,0,.95-2,.84.84,0,0,0-.08-.5c-.27-.71-.62-1.39-.82-2.12a2.05,2.05,0,0,1,.12-1.27c.56-1.23,1.21-2.42,1.84-3.63s.35-1.62-.83-1.83c-1.72-.31-3.44-.59-5.16-.89s-3.32-.59-5-.84c-.53-.08-1.07,0-1.61-.07-1.3-.08-2.59-.2-3.89-.25-.74,0-1.49.09-2.23,0-1.78-.14-3.57-.36-5.35-.5a13.7,13.7,0,0,0-1.81.07c-.56,0-1.12,0-1.68.11S63,47.78,62.39,47.91Zm66.2-21.14c-.78.05-.93.63-1,1.27a1.25,1.25,0,0,1-.2.65c-.84.91-.76,2.39-1.93,3.09-.06,0,0,.19-.09.29-.2.56-.38,1.13-.63,1.67s-.65,1.15-1,1.74c-.43.84-.79,1.71-1.25,2.53-.7,1.25-1.44,2.48-2.19,3.69a10.81,10.81,0,0,1-1.62,2.39,7.41,7.41,0,0,0-1.93,2.42,19.64,19.64,0,0,1-1.08,2.21,9.51,9.51,0,0,1-3.7,3.07c-.41.23-1,.36-1.19.7a5.86,5.86,0,0,1-3.1,2c-1.24.52-2.61.7-3.87,1.19a19,19,0,0,1-7,1.06c-.36,0-.71-.31-1.07-.45s-.6-.3-.83-.22-.37.42-.52.67a1.82,1.82,0,0,0-.17.56,6.27,6.27,0,0,0-.1,1.14,2.45,2.45,0,0,0,.27.87c.09.18.25.42.42.47,1.35.35,2.7.73,4.08,1a18.7,18.7,0,0,0,6.59.13c1-.19,2.11-.3,3.14-.56.37-.09.66-.49,1-.74l1.64.32c-.44-.93-1.38-1-1.68-1.91a2.29,2.29,0,0,1,.06-2.07c.38-.53.82-1.38,1.82-1.09.15,0,.34-.08.51-.14a1.39,1.39,0,0,1,1.61.93,2.25,2.25,0,0,0,.56.85,13.54,13.54,0,0,1,1.39,1.21,1.9,1.9,0,0,0,3,.2c.57-.69,1.09-1.43,1.73-2.27L119.12,55a16.55,16.55,0,0,0-1.28-1.11,1.82,1.82,0,0,1-.76-2.22,2.82,2.82,0,0,1,1.77-1.17.48.48,0,0,1,.28.1c1,.71,2,1.4,2.89,2.16a.89.89,0,0,0,1.55-.46,2.61,2.61,0,0,1,.64-1,1.51,1.51,0,0,0,.32-2.13,2.53,2.53,0,0,0,.55-.24c.11-.07.22-.25.19-.35a.45.45,0,0,0-.31-.29,10.66,10.66,0,0,1-1.51-.33,23.13,23.13,0,0,1-2.18-1.07.56.56,0,0,1-.24-.3,2.29,2.29,0,0,1,1.23-2.69,7.08,7.08,0,0,1,1.89.07,2.35,2.35,0,0,1,.73.21c.84.39,1.66.81,2.51,1.17.17.07.62-.07.63-.15.14-.88.94-1.7.36-2.46.1-.55.18-.91.24-1.27.12-.83.22-1.67.36-2.5.1-.62.28-1.23.38-1.85,0-.17-.11-.51-.2-.52-.91-.11-1.3-.91-1.93-1.39a3,3,0,0,1-.41-2.82c.05-.06.13-.08.19-.13l1.67-1.39,2.33-.29c.08-.52,0-1.18.26-1.42a7.49,7.49,0,0,0,2.38-3.48l.45.39,1.07-1.61-2.69-.75c-.16,1.32-1.12.6-1.76.82l.26-1C129.83,23.42,128.44,25.3,128.59,26.77ZM139.75,178l.16.63c.63-.37,1.32-.83.92-1.55a7.27,7.27,0,0,1-.57-2c0-.13-.42-.33-.49-.28-.59.41-.69,0-.71-.43a5.56,5.56,0,0,0-1.79-3.49c-.33-.38-.61-.81-.94-1.2s-.41-.69-1-.4c-.41.21-.76-.19-.57-.64a1.12,1.12,0,0,0-.22-1.34c-.05,0-.14,0-.22,0v.62l-.19.11-.27-.63h-.25c-.09.15-.18.32-.28.46l-2,2.64c-.23.31-.47.61-.71.91-1,1.22-1.95,2.46-3,3.66a3.35,3.35,0,0,1-.88.54c.07-.61,1.06-1,0-1.55-1,.81-1,.81-.18,1.92-.33.43-.64.85-1,1.27a29.73,29.73,0,0,1-2.15,2.71c-1.45,1.46-3,2.82-4.51,4.22-.37.35-.29,1.07.16,1.09.8.05.87.47.78,1.09a5.89,5.89,0,0,0,0,.73l.77-.06c1,0,1.3,1,1.81,1.54s1,1.69,1.62,2.5a.93.93,0,0,0,.84.23,7.6,7.6,0,0,0,1.23-.9c.46-.36.91-.74,1.38-1.08.68-.48,1.53-.7,2-1.54a.84.84,0,0,1,1.11-.45c.35.12.52,0,.67-.39A5.23,5.23,0,0,1,132.4,185c1.62-1.51,3.16-3.08,4.63-4.75.49-.55.81-1.86,2.07-1.11Zm-127-.87a5.28,5.28,0,0,0,.59,1.16c.53.62,1.14,1.17,1.71,1.76a5.17,5.17,0,0,1,1,1.07c.82,1.59,1.53,3.24,2.37,4.83a19.56,19.56,0,0,0,1.31,1.76,6.6,6.6,0,0,1,.54,1.06c.16.37.31.75.47,1.15l.59-.74,1.1,2.49a1.4,1.4,0,0,0,1.54-1c.12-.35.84-.37.63-1,0,0,.17-.16.25-.15.72.16,1.07-.41,1.57-.72a3.32,3.32,0,0,0,1.7-2.24s.09,0,.17-.07l.33.5c.62-.39,1.21-.74,1.79-1.13a.85.85,0,0,0,0-1.41c-.51-.44-1.19-.55-1.68-1.12a10.63,10.63,0,0,0-2.33-1.65,2.62,2.62,0,0,0-.62-.19,15.45,15.45,0,0,0-1.6-3.07,17.63,17.63,0,0,0-1.28-1.32c-.9-1.12-1.68-2.37-2.67-3.4a39.53,39.53,0,0,1-3.51-4,1.65,1.65,0,0,0-2.78.26c-.37,1.06-1.48.9-2.11,1.56a6.09,6.09,0,0,1-2.07.87,4.9,4.9,0,0,1,.56.64.54.54,0,0,1,0,.48c-.32.39-.69.74-1.19,1.25,0-.36.09-.56.11-.76a3.37,3.37,0,0,0,0-.71c0-.05-.28-.13-.31-.1-.2.22-.52.5-.49.71a1.93,1.93,0,0,0,.53,1,6,6,0,0,0,.92.63c.67.5,1.31,1.05,2,1.51C12.06,177.16,12.43,177.09,12.71,177.12ZM22.45,44.18l.06-.2c-.21-.1-.42-.18-.62-.3s-.4-.19-.39-.28c.07-1.21-.7-2.43,0-3.65a9.42,9.42,0,0,0,.29-1c.16-.41.17-.93.82-1,.41-.06.61-.81.38-1.15s-.51-.81-.79-1.2-.79-1-1.28-1.66l-.08-.51c-.18.14-.35.29-.52.45s-.1.19-.17.21c-1.3.24-1.92,1.47-3,2.1-.83.5-1.06.57-1.63-.2a3.65,3.65,0,0,0-.63-.61l-.19.17c.35.8.68,1.61,1.05,2.41.27.59.6,1.11,1.42.73.12-.06.35.09.44.12-.07.66-.37,1.39-.13,1.75a31.22,31.22,0,0,0,2.67,3.2c1.07,1.18,2.23,2.29,3.28,3.49a30.68,30.68,0,0,0,5.14,4.72,3.74,3.74,0,0,0,.85.32c.05-.17.07-.19.07-.21a1.36,1.36,0,0,1-.1-.37c-.05-1.12-1-2.47.81-3.1,0,0,.05,0,.05-.06.35-.85,1.21-1.14,1.86-1.64.46-.35.43-.62.08-1-.53-.56-1-1.14-1.53-1.73A1.64,1.64,0,0,0,29,43.26a1.37,1.37,0,0,1-1.45-.44,1.72,1.72,0,0,0,.19-.17c.18-.24.46-.47.5-.74s-.27-.65-.41-.64a1.22,1.22,0,0,0-.82.4c-.59.83-1.14,1.69-1.66,2.56-.27.46-.45.86-1.14.76a11.38,11.38,0,0,0-2,.12l-.44-.69Zm10.7,10.25A12.38,12.38,0,0,1,36.07,56c.86.83,2,.68,2.91,1.23.41.26,1.18.16,1.38.48.37.61.94.73,1.47,1a18.18,18.18,0,0,1,1.78.85,5.53,5.53,0,0,0,3,.38.48.48,0,0,0,.15-.21,8.94,8.94,0,0,0,4.6-.25c.11,0,.19-.34.18-.52,0-.66-.15-1.33-.12-2s-.13-.66-.69-.65c-1.45,0-3,.31-4.26-.66a2.2,2.2,0,0,0-.66-.17,1.53,1.53,0,0,1-.58-.19c-1-.82-2-1.74-3.49-.87l.08-.85c-.76.34-1-.14-1.49-.55a8.69,8.69,0,0,0-2.13-1.2c-.4-.2-.94-.51-1.25-.38a10.53,10.53,0,0,0-2,1.26c-.15.11-.22.33-.37.47C34.2,53.53,33.75,53.91,33.15,54.43Zm-15-26a11.85,11.85,0,0,1-1.28-1.87c-.46-1.1-.58-2.37-1.67-3.14-.09-.06-.08-.27-.12-.41-1.48.72-1.52.85-.45,1.85a1.81,1.81,0,0,1-1,.17c-1.28-.45-1-.13-1.52.73-.07.12-.11.26-.22.51-.38-.68-.84-1-1.32-.71A8.83,8.83,0,0,0,10.88,27c.57,1.27,1.2,2.5,1.78,3.76.34.72.65,1.46,1,2.19l.3-.11-.22-.72A7.88,7.88,0,0,1,18.14,28.39Zm125.31-21c-.14-.28-.22-.69-.46-.85a.87.87,0,0,0-.87.06c-.85.78-1.65,1.61-2.42,2.47a2.44,2.44,0,0,0,.25,3.58c.67.66,1.44,1.34,1.31,2.47,0,0,.08.06.21.15.14-.3.29-.57.41-.86.26-.66.5-1.34.78-2a7.28,7.28,0,0,1,.44-.69,28.42,28.42,0,0,1,1.43-2.67c.27-.39.3-.7.06-.94A6.29,6.29,0,0,0,143.45,7.43ZM137,16c-.88.21-.8-.48-1.05-.89a4.26,4.26,0,0,0-1.42,3.43h-.24l-.27-.82-1.51,1.62c1,.78.79-.34,1.32-.64l.48.86c.11.18.19.42.36.52.62.36,1.27.68,2,1.07,1.07-.62,1.4-2,2.13-3.17.86.62,1.18-.58,1.87-.63.14,0,.22-.74.34-1.24-.38,0-.56,0-.68.05a1.64,1.64,0,0,1-2.42-.48c-.15-.2-.46-.29-.61-.49-.34-.43-.67-.81-1.23-.64ZM101.2,51a1.26,1.26,0,0,0-2.14-.19c-.17.19-.52.48-.65.42-.8-.34-1.06.28-1.43.71-.12.14-.27.43-.22.49a.78.78,0,0,0,.56.29c1.16-.12,2.45.07,3.16-1.24C100.59,51.25,100.92,51.16,101.2,51Z"/><path d="M90.85,152.6c-1.24-.2-2.24-.37-3.26-.51-.51-.07-1-.07-1.56-.12l-3.36-.35c-1.49-.15-3-.29-4.47-.47-1.73-.21-3.45-.46-5.17-.66-1.33-.15-2.66-.25-4-.35-.48,0-1,0-1.45,0a2.19,2.19,0,0,1-.77,0c-1.58-.64-3.25-.26-4.87-.34-2.41-.12-4.84-.07-7.26-.09,0,0-.12,0-.15,0-1.07.76-2.29-.16-3.44.33A6,6,0,0,1,49,150c-2.39,0-4.79,0-7.19,0-2.64,0-5.29-.15-7.93-.12a22.55,22.55,0,0,0-3.2.49c-.19-.62-.82-.34-1.3-.33-.68,0-1.35.15-2.15.25.05-.43.06-.73.12-1a5.3,5.3,0,0,0-.61-4,4.57,4.57,0,0,1-.29-1.36,11.31,11.31,0,0,1-.37-2.27,19.74,19.74,0,0,1,.44-2.72c.09-.57.19-1.15.3-1.82l-.75.2-.08-.13c.34-.26.81-.46,1-.8a4.52,4.52,0,0,0,.18-1.44l-.67.08-.17-.25A1.64,1.64,0,0,0,27.86,133a14.63,14.63,0,0,1,.5-3.31,25.08,25.08,0,0,0,.27-3.67c0-.37-.34-.74-.48-1.13-.06-.18-.08-.52,0-.58.62-.42.5-1,.5-1.6s.13-1.18.17-1.77a4.14,4.14,0,0,0-.07-.72,18.81,18.81,0,0,0,1.14-2.13c.17-.42-.13-1,.44-1.33.05,0,.08-.2.06-.29a5.49,5.49,0,0,1,.26-2.92,10,10,0,0,0,.15-2.23c-.79,0-1-.33-.42-1,.1-.11-.08-.46-.14-.75.38-.24.39-.48.2-1s.15-1.22.33-1.83c.26-.88.56-1.76.9-2.62a.76.76,0,0,1,.55-.43c1,.06,2-.18,2.91.52.21.17.65.09,1,0a10,10,0,0,1,1.91-.35c1.21,0,2.41.27,3.62.36,1,.07,2.1,0,3.16.06.76,0,1.53.13,2.3.11.93,0,1.84-.2,2.1-1.46.38,1.26,1.22,1,2.08.9a4.85,4.85,0,0,1,1.06.12c1.61.11,3.22.22,4.83.29.45,0,.91-.17,1.36-.13,2.31.19,4.62.44,6.94.64,2,.18,4,.34,6,.45a3.83,3.83,0,0,0,1.11-.21,22.17,22.17,0,0,0,2.24.3c1.43,0,2.86,0,4.29,0,1.58,0,3.16.24,4.75.28s3.33,0,5-.09c1.91-.09,3.82-.32,5.73-.41.86-.05,1.72.1,2.58.13,1.41.06,2.83,0,4.24.16.94.07,1.88.28,3,.46a2.41,2.41,0,0,1,.74-.1,54.81,54.81,0,0,0,8.68.58,11.54,11.54,0,0,1,5.76,1.25,10.82,10.82,0,0,1,2.17,1.91.63.63,0,0,1,.19.56c-.45,1.05.44,2,.26,3,0,.07.06.16,0,.22a11.85,11.85,0,0,0-.23,3.36,14.34,14.34,0,0,0,.08,2.45c.16,1.72.41,3.44.51,5.17,0,.8-.27,1.61-.31,2.43-.06,1.25,0,2.51,0,3.76,0,.66-.19,1.32-.23,2-.13,2.35-.28,4.71-.33,7.07,0,2,0,3.9.06,5.85a12.39,12.39,0,0,0,.43,2.48,5.46,5.46,0,0,1-.25,3.61,4.37,4.37,0,0,0-.36,1.42c-.05.7-.36.87-1,.76s-1.1-.25-.91.75c.12.62-.63.75-1.12.82a22.74,22.74,0,0,1-3,.34c-.7,0-1.41-.17-2.12-.18-.92,0-1.85.11-2.78.11s-1.87-.05-2.81-.09c-.69,0-1.39-.1-2.08-.08a9.17,9.17,0,0,1-2.6-.2,15.57,15.57,0,0,0-3.4-.48c-.67,0-1.22.18-1.95-.32s-1.92-.43-2.89-.66-1.83-.48-2.73-.78C91.63,152.68,91.14,152.36,90.85,152.6Zm29.05-42.94-.13-.13c-.12.08-.3.12-.35.23-.28.54-.76.55-1.26.53l-4.38-.19c-.48,0-1-.12-1.43-.14-1.18,0-2.36-.07-3.54-.1-.41,0-.83,0-1.24,0-1.51-.13-3-.33-4.53-.39-2.47-.11-5-.11-7.43-.19-.79,0-1.57-.23-2.36-.25s-1.86.06-2.79,0-1.58-.18-2.37-.19c-1.38,0-2.77.05-4.15,0-2-.05-4.09-.18-6.14-.23-2.91-.06-5.83-.08-8.75-.12-.79,0-1.59,0-2.38,0a21.11,21.11,0,0,1-2.29.1,57.77,57.77,0,0,0-6.85-.34c-1.38,0-2.77,0-4.15,0a1.41,1.41,0,0,0-1.37.49c-.38.51-1,.3-1.28-.27a.9.9,0,0,0-.6-.34,4.76,4.76,0,0,0-1,0,6.82,6.82,0,0,0-3.46.51c-.49.3-.74.13-1.13-.16a2.61,2.61,0,0,0-1.36-.51c-2.3-.09-4.61-.09-6.92-.16-.71,0-1,.16-1,.89a4.7,4.7,0,0,0,.24.87,3.66,3.66,0,0,1,.16.8c0,.51,0,1,0,1.53,0,.18,0,.36,0,.53-.08.55-.2,1.09-.27,1.65a7.85,7.85,0,0,1-.22,1.9,3.07,3.07,0,0,0,.13,2.94c-.28.35-.65.63-.75,1a10,10,0,0,0-.37,2.18c-.16,2.45-.29,4.9-.41,7.35,0,.46,0,.92.06,1.38a13.19,13.19,0,0,0,0,1.89c.11.57.22,1-.38,1.39-.16.09-.24.4-.25.62,0,.83,0,1.66,0,2.49a.91.91,0,0,0-1,1.11,2.21,2.21,0,0,1-.13,1c-.42,1.06-.33,1.52.57,2.14a.77.77,0,0,1-.12.33c-.88,1-.24,2.09-.15,3.14,0,.1.28.25.42.24a8.89,8.89,0,0,0,2.2-.23,1.31,1.31,0,0,1,1.13,0c.66.32,1.53.17,1.73-.31a1.77,1.77,0,0,1,2.22-1.17l-.33,1a6.28,6.28,0,0,0,1.05.13,16.7,16.7,0,0,0,2.12-.19c1.47-.26,3,.21,4.44-.55.07,0,.2,0,.3,0,.69,0,1.39.11,2.08.09,1.33-.06,2.66-.18,4-.26l3.87-.18h.23c1.53.19,3.06.53,4.59,0,.08,0,.19.07.29.07,1,.1,2,.82,3,.21a.37.37,0,0,1,.23,0c1.4.3,2.79.65,4.2.88a7.83,7.83,0,0,0,1.88-.21,10.81,10.81,0,0,0,1.36.29,21,21,0,0,0,3.44.26c1.55-.07,3,.66,4.58.38a7.49,7.49,0,0,1,2.21.1c1,.12,1.92.37,2.89.47a46.38,46.38,0,0,1,8,1.25.9.9,0,0,0,.6,0c.47-.27.74,0,1.09.25a4.82,4.82,0,0,0,1.32.56c.43.11.89.06,1.32.17a21.69,21.69,0,0,0,3.11.84c.78.08,1.56.87,2.3.17a6.5,6.5,0,0,0,1.19.47c.82.14,1.65.21,2.48.3a17,17,0,0,0,3.19.07,18.88,18.88,0,0,1,2.71-.08c.79,0,1.56.27,2.35.36.2,0,.58-.13.6-.26a4.17,4.17,0,0,0,.16-1.67c-.27-1.28-1-2.44-.8-3.87.14-1-.14-2.11,0-3.16a28,28,0,0,1,.35-3.73c.19-.86.8-1.83.16-2.79,0,0,.05-.13.07-.21.23-.81.45-1.62.69-2.43.28-1-.11-2.09.68-3,.07-.07,0-.29-.05-.44a7.31,7.31,0,0,1-.1-2.27,11.35,11.35,0,0,0,.44-4.18c-.1-1,.21-2,.1-3a3.19,3.19,0,0,1,.76-2.13c.69-1.09.5-2.3.67-3.46a.08.08,0,0,0,0-.06c-.74-.66-.23-1.55-.58-2.37l1.31.17.09-.25-.65-.29a2.06,2.06,0,0,1-.67-.38c-.06-.07.16-.39.26-.59S119.83,109.78,119.9,109.66Z"/><path d="M45,173.91c-.34-.72-.64-1.39-1-2a2.16,2.16,0,0,1,.9-2.71c.14-.06.2-.29.33-.5l.64.35,0-.15c.39-.07.77-.17,1.16-.22a5.9,5.9,0,0,1,.84,0l3.51.14c.2,0,.43.12.6.06,1.76-.58,3.5,0,5.25,0a3,3,0,0,0,.79-.24c.53.67,1.12.36,1.67-.08.27-.22.43-.36.78-.08s.62.11,1.15.18c.17.32.59.47,1.25.19.28-.12.72.19,1.09.22.94.08,1.89.12,2.83.18.65,0,1.3.13,1.94.11a9.5,9.5,0,0,0,1.49-.23c.5.49,9.5,1.39,10.67,1A2.66,2.66,0,0,0,83,171.46a24.57,24.57,0,0,1,3.49,1.15c.8.29,1.56.67,2.36.94a3.48,3.48,0,0,0,1,0,2.8,2.8,0,0,1,.12.89.73.73,0,0,1-.45.51c-1,.09-2.07.17-3.1.16-.84,0-1.67-.13-2.5-.2-.21,0-.43-.12-.61-.06a7.06,7.06,0,0,1-3,0c-.89-.13-1.82-.07-2.73-.13s-1.91-.13-2.86-.23c-1.82-.18-3.63-.42-5.45-.56-2-.17-4.05-.28-6.08-.37-1.53-.07-3.06-.05-4.59-.12-1.12-.06-2.23-.23-3.35-.29-1.81-.1-3.62-.14-5.44-.21-1,0-2.11-.08-3.17-.09a1.2,1.2,0,0,0-.58.26C45.66,173.41,45.29,173.7,45,173.91Z"/><path d="M64.23,87.09l1.52-.17a6,6,0,0,0,.72,0c.3,0,.6-.11,1-.18s1-.44,1.6-.64c1.17-.4,2.35-.78,3.53-1.17a1.17,1.17,0,0,1,.44-.13c1.55,0,3.1.14,4.65.14,1.72,0,3.43-.14,5.14-.16,1.19,0,2.38.09,3.58.11.86,0,1.73,0,2.59,0a10.08,10.08,0,0,1,1.7.43,1.41,1.41,0,0,0,.43.13,3.29,3.29,0,0,1,3,2c.36.63.67,1.28,1,1.92a15,15,0,0,1-1.36,1.64c-.24.22-.69.22-1,.31-.07,0-.16,0-.23,0a6.9,6.9,0,0,1-3.29-.1,37.15,37.15,0,0,0-5.17,0c-2.43,0-4.87-.14-7.3-.1-1.72,0-3.42-.14-5.14-.18s-3.26-.35-4.89-.5a3.23,3.23,0,0,1-2.55-2C63.9,88.19,64.18,87.55,64.23,87.09Z"/><path d="M41.44,96.9c.89-.94.89-1.22.24-2.72l.74.35.73-2c.68.72,1.16.33,1.62-.11q1.09-1.07,2.16-2.16c.71-.73,1.4-1.49,2.1-2.24.1-.11.3-.26.28-.35-.22-.88.48-1,1-1.35l.46.4A11.28,11.28,0,0,1,52.24,85a15.78,15.78,0,0,1,2.29-1.44.51.51,0,0,1,.45,0,18.05,18.05,0,0,1,2.14,1.74c.85.87.07,1.71-.14,2.61-.38,1.58-1.64,2.42-2.6,3.51a14.15,14.15,0,0,1-2.09,1.55c-.76.56-1.5,1.14-2.24,1.71,0,0,0,0,0,.05,0,1-.91,1.14-1.57,1.51-.17.1-.26.35-.39.52,0,0,0,.06,0,.08a11,11,0,0,1-2.63,2.12,2.72,2.72,0,0,1-2.65-1A9.48,9.48,0,0,0,41.44,96.9Z"/><path d="M115.17,97.57c.67.41,1.08.89.8,1.73-.21.64-1,1.13-1.6.76-1.71-1.12-3.4-2.29-5.1-3.43a3.5,3.5,0,0,0-.71-.32c-.4-.57-.81-1.2-1.26-1.8a6.48,6.48,0,0,0-1.16-1.38,7.82,7.82,0,0,1-1.59-2,2.56,2.56,0,0,1,.13-2.09,1.2,1.2,0,0,1,1.61.06.63.63,0,0,0,.28.1c1.3.22,1.55.44,1.83,1.62.59-.3.7.27,1,.54a7.93,7.93,0,0,0,.86.67,18.43,18.43,0,0,0,1.93,1.28c1.25.63,1.68,1.92,2.48,2.9C115,96.64,115.65,96.85,115.17,97.57Z"/></g></g></svg>